<?xml version="1.0" encoding="UTF-8"?>
<svg id="Layer_2" data-name="Layer 2" xmlns="http://www.w3.org/2000/svg" viewBox="0 0 790.58 179.74">
  <defs>
    <style>
      .cls-1 {
        fill: #ab86f6;
      }

      .cls-2 {
        stroke: #4a4a4a;
      }

      .cls-2, .cls-3, .cls-4, .cls-5, .cls-6, .cls-7, .cls-8, .cls-9, .cls-10, .cls-11, .cls-12, .cls-13, .cls-14, .cls-15, .cls-16, .cls-17, .cls-18 {
        fill: none;
        stroke-linecap: round;
      }

      .cls-2, .cls-4, .cls-5, .cls-8, .cls-9, .cls-10, .cls-13, .cls-14, .cls-15, .cls-16, .cls-18 {
        stroke-miterlimit: 10;
      }

      .cls-2, .cls-4, .cls-8, .cls-9, .cls-10, .cls-13, .cls-14, .cls-15, .cls-16, .cls-18 {
        stroke-width: 3.63px;
      }

      .cls-3 {
        stroke: #858585;
      }

      .cls-3, .cls-6, .cls-7, .cls-11, .cls-12, .cls-17 {
        stroke-linejoin: round;
        stroke-width: 2.46px;
      }

      .cls-4 {
        stroke: #2f2f2f;
      }

      .cls-5 {
        stroke: #444;
        stroke-width: 3.63px;
      }

      .cls-6 {
        stroke: #333;
      }

      .cls-7 {
        stroke: #828282;
      }

      .cls-19 {
        fill: #4f4f4f;
      }

      .cls-8, .cls-12 {
        stroke: #4f4f4f;
      }

      .cls-9 {
        stroke: #242424;
      }

      .cls-20 {
        fill: #fff;
      }

      .cls-10 {
        stroke: #3a3a3a;
      }

      .cls-11 {
        stroke: #fff;
      }

      .cls-13 {
        stroke: #343434;
      }

      .cls-14 {
        stroke: #3f3f3f;
      }

      .cls-15 {
        stroke: #1f1f1f;
      }

      .cls-16, .cls-17 {
        stroke: #a361ff;
      }

      .cls-21 {
        fill: #d5b0ff;
      }

      .cls-18 {
        stroke: #2a2a2a;
      }
    </style>
  </defs>
  <g id="main">
    <g>
      <g>
        <path class="cls-8" d="M470.05,99.58c-22.72,0-41.14-18.42-41.14-41.14s18.42-41.14,41.14-41.14"/>
        <path class="cls-2" d="M457.17,97.66c-21.66,0-41.14-16.5-41.14-39.22s19.48-39.22,41.14-39.22"/>
        <path class="cls-5" d="M444.28,95.74c-20.6,0-41.14-14.58-41.14-37.31s20.54-37.31,41.14-37.31"/>
        <path class="cls-14" d="M431.4,93.82c-19.54,0-41.14-12.66-41.14-35.39s21.6-35.39,41.14-35.39"/>
        <path class="cls-10" d="M418.51,91.91c-18.48,0-41.14-10.75-41.14-33.47s22.66-33.47,41.14-33.47"/>
        <path class="cls-13" d="M405.62,89.99c-17.42,0-41.14-8.83-41.14-31.55s23.72-31.55,41.14-31.55"/>
        <path class="cls-4" d="M392.74,88.07c-16.36,0-41.14-6.91-41.14-29.63s24.78-29.63,41.14-29.63"/>
        <path class="cls-18" d="M379.85,86.15c-15.31,0-41.14-4.99-41.14-27.71s25.84-27.71,41.14-27.71"/>
        <path class="cls-9" d="M366.97,84.23c-14.25,0-41.14-3.07-41.14-25.79s26.9-25.79,41.14-25.79"/>
        <path class="cls-15" d="M354.08,82.31c-13.19,0-41.14-1.15-41.14-23.87s27.96-23.87,41.14-23.87"/>
      </g>
      <path class="cls-16" d="M470.05,17.29c22.72,0,41.14,18.42,41.14,41.14s-18.42,41.14-41.14,41.14"/>
      <g>
        <path class="cls-21" d="M27.04,17.5c0,2.78-.52,5.14-1.57,7.08-1.05,1.95-2.47,3.43-4.28,4.46s-3.83,1.54-6.07,1.54-4.29-.51-6.09-1.54c-1.8-1.03-3.22-2.51-4.26-4.46s-1.57-4.3-1.57-7.07.52-5.14,1.57-7.08,2.46-3.43,4.26-4.46c1.8-1.02,3.83-1.54,6.09-1.54s4.27.51,6.07,1.54,3.23,2.51,4.28,4.46,1.57,4.31,1.57,7.08ZM21.58,17.5c0-1.8-.27-3.31-.8-4.55-.53-1.23-1.29-2.17-2.26-2.81-.97-.64-2.1-.96-3.41-.96s-2.44.32-3.41.96c-.97.64-1.72,1.57-2.26,2.81-.53,1.23-.8,2.75-.8,4.55s.27,3.31.8,4.55c.53,1.23,1.29,2.17,2.26,2.81.97.64,2.1.96,3.41.96s2.44-.32,3.41-.96c.97-.64,1.72-1.57,2.26-2.81.53-1.23.8-2.75.8-4.55ZM13.25,21.38h4.57l2.3,2.96,2.26,2.64,4.26,5.34h-5.02l-2.93-3.6-1.5-2.14-3.94-5.2Z"/>
        <path class="cls-21" d="M35.96,30.55c-.82,0-1.52-.29-2.11-.88-.58-.58-.88-1.29-.88-2.11s.29-1.51.88-2.09c.58-.58,1.29-.87,2.11-.87s1.49.29,2.09.87c.6.58.9,1.28.9,2.09,0,.55-.14,1.05-.42,1.5s-.64.81-1.09,1.08c-.45.27-.94.4-1.48.4Z"/>
        <path class="cls-20" d="M40.52,9.21v-4.44h20.91v4.44h-7.79v21.02h-5.32V9.21h-7.79Z"/>
        <path class="cls-20" d="M67.64,30.59c-1.22,0-2.3-.21-3.26-.64-.95-.43-1.7-1.06-2.26-1.9-.55-.84-.83-1.89-.83-3.15,0-1.06.19-1.95.58-2.67.39-.72.92-1.3,1.59-1.74.67-.44,1.44-.77,2.29-.99.86-.22,1.76-.38,2.7-.47,1.11-.12,2.01-.23,2.69-.33.68-.1,1.17-.26,1.48-.47.31-.21.46-.51.46-.92v-.07c0-.79-.25-1.4-.74-1.83-.49-.43-1.19-.65-2.09-.65-.95,0-1.71.21-2.27.63s-.94.94-1.12,1.57l-4.9-.4c.25-1.16.74-2.16,1.47-3.01.73-.85,1.67-1.5,2.83-1.96,1.16-.46,2.5-.69,4.02-.69,1.06,0,2.08.12,3.05.37.97.25,1.84.63,2.6,1.16s1.36,1.19,1.8,2.01c.44.82.66,1.79.66,2.93v12.88h-5.02v-2.65h-.15c-.31.6-.72,1.12-1.23,1.57s-1.13.8-1.85,1.06c-.72.25-1.55.38-2.5.38ZM69.16,26.93c.78,0,1.47-.16,2.06-.47.6-.31,1.06-.73,1.4-1.26s.51-1.13.51-1.8v-2.03c-.17.11-.39.21-.68.29-.29.09-.61.17-.96.24-.36.07-.71.13-1.07.19-.36.05-.68.1-.97.14-.62.09-1.16.24-1.63.44-.46.2-.82.47-1.08.8s-.39.75-.39,1.25c0,.72.26,1.27.79,1.65.53.38,1.2.57,2.01.57Z"/>
        <path class="cls-20" d="M82.51,37.39V11.14h5.22v3.21h.24c.23-.51.57-1.04,1.01-1.57.44-.53,1.02-.98,1.74-1.34s1.61-.54,2.68-.54c1.39,0,2.68.36,3.85,1.09s2.12,1.81,2.82,3.27c.7,1.45,1.06,3.27,1.06,5.46s-.34,3.93-1.03,5.39c-.68,1.46-1.61,2.57-2.78,3.32s-2.48,1.12-3.93,1.12c-1.03,0-1.9-.17-2.62-.51-.72-.34-1.3-.77-1.76-1.29-.46-.52-.8-1.04-1.04-1.57h-.16v10.22h-5.29ZM87.69,20.68c0,1.14.16,2.13.47,2.97s.77,1.5,1.37,1.97c.6.47,1.32.7,2.17.7s1.59-.24,2.19-.71c.6-.48,1.05-1.14,1.36-1.99.31-.85.47-1.83.47-2.94s-.15-2.07-.46-2.91-.76-1.49-1.35-1.96-1.33-.71-2.2-.71-1.59.23-2.18.68c-.59.46-1.05,1.1-1.36,1.94s-.47,1.82-.47,2.96Z"/>
      </g>
      <g>
        <path class="cls-20" d="M9.17,80.35c-.05-.48-.25-.86-.62-1.13s-.86-.4-1.48-.4c-.42,0-.78.06-1.08.18-.29.12-.52.28-.67.49-.15.21-.23.44-.23.71,0,.22.04.41.14.58s.24.31.42.42.39.22.62.31c.24.09.49.16.76.22l1.1.26c.54.12,1.03.28,1.48.48.45.2.84.45,1.17.74.33.29.58.64.77,1.03s.28.85.28,1.36c0,.75-.2,1.4-.57,1.96-.38.55-.92.98-1.63,1.28-.71.3-1.57.45-2.57.45s-1.86-.15-2.59-.46c-.73-.3-1.31-.76-1.72-1.35-.41-.6-.63-1.34-.65-2.23h2.52c.03.41.15.76.36,1.03.21.27.49.48.85.62.35.14.76.21,1.2.21s.82-.06,1.15-.19c.33-.13.58-.31.76-.53s.27-.49.27-.79c0-.28-.08-.51-.24-.7-.16-.19-.4-.35-.71-.48-.31-.13-.69-.25-1.14-.36l-1.34-.34c-1.04-.25-1.86-.65-2.46-1.18-.6-.54-.9-1.26-.9-2.17,0-.74.2-1.4.6-1.95.4-.56.96-.99,1.66-1.3.7-.31,1.51-.47,2.4-.47s1.71.16,2.39.47c.68.31,1.21.75,1.59,1.3.38.56.58,1.2.59,1.93h-2.49Z"/>
        <path class="cls-20" d="M17.73,89.29c-.95,0-1.76-.19-2.45-.58-.68-.39-1.21-.94-1.58-1.65-.37-.71-.55-1.55-.55-2.53s.18-1.78.55-2.5.89-1.28,1.56-1.68c.67-.4,1.46-.6,2.36-.6.61,0,1.18.1,1.7.29.53.19.99.49,1.38.87.39.39.7.88.92,1.46.22.59.33,1.27.33,2.06v.7h-7.79v-1.59h5.38c0-.37-.08-.69-.24-.98-.16-.28-.38-.51-.66-.67-.28-.16-.61-.24-.98-.24s-.73.09-1.03.27-.53.42-.7.71c-.17.3-.25.63-.26.99v1.51c0,.46.08.85.26,1.18.17.33.41.59.72.77.31.18.68.27,1.11.27.28,0,.54-.04.78-.12.24-.08.44-.2.61-.36.17-.16.3-.36.38-.59l2.37.16c-.12.57-.37,1.06-.74,1.49-.37.42-.85.75-1.43.98-.58.23-1.25.35-2.02.35Z"/>
        <path class="cls-20" d="M27.84,89.29c-.95,0-1.76-.19-2.45-.58-.68-.39-1.21-.94-1.58-1.65-.37-.71-.55-1.55-.55-2.53s.18-1.78.55-2.5.89-1.28,1.56-1.68c.67-.4,1.46-.6,2.36-.6.61,0,1.18.1,1.7.29.53.19.99.49,1.38.87.39.39.7.88.92,1.46.22.59.33,1.27.33,2.06v.7h-7.79v-1.59h5.38c0-.37-.08-.69-.24-.98-.16-.28-.38-.51-.66-.67-.28-.16-.61-.24-.98-.24s-.73.09-1.03.27-.53.42-.7.71c-.17.3-.25.63-.26.99v1.51c0,.46.08.85.26,1.18.17.33.41.59.72.77.31.18.68.27,1.11.27.28,0,.54-.04.78-.12.24-.08.44-.2.61-.36.17-.16.3-.36.38-.59l2.37.16c-.12.57-.37,1.06-.74,1.49-.37.42-.85.75-1.43.98-.58.23-1.25.35-2.02.35Z"/>
        <path class="cls-20" d="M37.25,78.96v-2.14h10.1v2.14h-3.77v10.16h-2.57v-10.16h-3.77Z"/>
        <path class="cls-20" d="M51.53,83.78v5.33h-2.56v-12.3h2.49v4.7h.11c.21-.54.54-.97,1.01-1.28.46-.31,1.05-.47,1.75-.47.64,0,1.2.14,1.68.42.48.28.85.68,1.12,1.2.27.52.4,1.14.39,1.86v5.87h-2.56v-5.42c0-.57-.14-1.01-.43-1.33-.29-.32-.7-.47-1.22-.47-.35,0-.66.07-.92.22-.27.15-.47.36-.62.65-.15.28-.23.62-.23,1.02Z"/>
        <path class="cls-20" d="M59.53,89.11v-9.23h2.48v1.61h.1c.17-.57.45-1.01.85-1.3.4-.29.85-.44,1.37-.44.13,0,.27,0,.41.02.15.02.28.04.39.07v2.27c-.12-.04-.29-.07-.5-.1s-.41-.04-.58-.04c-.38,0-.71.08-1.01.24-.29.16-.53.39-.7.68-.17.29-.26.62-.26,1v5.22h-2.56Z"/>
        <path class="cls-20" d="M70.18,89.29c-.93,0-1.74-.2-2.42-.6-.68-.4-1.2-.95-1.57-1.67-.37-.71-.55-1.54-.55-2.49s.18-1.79.55-2.5.89-1.27,1.57-1.67,1.48-.6,2.42-.6,1.74.2,2.42.6,1.2.96,1.57,1.67c.37.71.55,1.55.55,2.5s-.18,1.78-.55,2.49c-.37.71-.89,1.27-1.57,1.67-.68.4-1.48.6-2.42.6ZM70.19,87.31c.42,0,.78-.12,1.06-.36.28-.24.5-.57.65-.99.15-.42.22-.9.22-1.44s-.07-1.02-.22-1.44c-.15-.42-.36-.75-.65-1s-.64-.37-1.06-.37-.79.12-1.08.37c-.29.24-.51.58-.65,1-.15.42-.22.9-.22,1.44s.07,1.01.22,1.44c.15.42.36.75.65.99.29.24.65.36,1.08.36Z"/>
        <path class="cls-20" d="M82.3,85.19v-5.3h2.56v9.23h-2.46v-1.68h-.1c-.21.54-.55.97-1.04,1.3s-1.07.49-1.76.49c-.62,0-1.16-.14-1.63-.42-.47-.28-.83-.68-1.1-1.2-.26-.52-.4-1.13-.4-1.86v-5.87h2.56v5.42c0,.54.15.98.44,1.29s.67.47,1.16.47c.31,0,.6-.07.86-.21.27-.14.49-.35.65-.63.17-.28.25-.63.24-1.04Z"/>
        <path class="cls-20" d="M91.06,92.77c-.83,0-1.54-.11-2.13-.34-.59-.23-1.06-.53-1.41-.92s-.57-.82-.68-1.31l2.37-.32c.07.18.19.36.34.52.16.16.36.29.62.39s.57.15.95.15c.56,0,1.02-.13,1.38-.41s.54-.72.54-1.35v-1.69h-.11c-.11.26-.28.5-.5.73-.22.23-.51.41-.86.56-.35.14-.77.22-1.26.22-.69,0-1.32-.16-1.89-.48-.57-.32-1.02-.82-1.35-1.48-.33-.67-.5-1.51-.5-2.53s.17-1.92.51-2.62.79-1.23,1.36-1.57c.57-.35,1.19-.52,1.86-.52.52,0,.95.09,1.3.26.35.17.63.39.84.65.21.26.38.51.5.76h.1v-1.55h2.54v9.32c0,.78-.19,1.44-.58,1.97-.38.53-.92.93-1.59,1.19s-1.46.4-2.34.4ZM91.11,87.06c.41,0,.76-.1,1.05-.31.29-.21.51-.5.66-.89s.23-.85.23-1.39-.08-1.01-.23-1.41-.37-.71-.66-.93c-.29-.22-.64-.33-1.05-.33s-.77.11-1.06.34c-.29.23-.51.54-.65.94-.15.4-.22.86-.22,1.39s.07.99.23,1.38c.15.39.37.68.65.9.29.21.64.32,1.06.32Z"/>
        <path class="cls-20" d="M100.17,83.78v5.33h-2.56v-12.3h2.49v4.7h.11c.21-.54.54-.97,1.01-1.28.46-.31,1.05-.47,1.75-.47.64,0,1.2.14,1.68.42.48.28.85.68,1.12,1.2.27.52.4,1.14.39,1.86v5.87h-2.56v-5.42c0-.57-.14-1.01-.43-1.33-.29-.32-.7-.47-1.22-.47-.35,0-.66.07-.92.22-.27.15-.47.36-.62.65-.15.28-.23.62-.23,1.02Z"/>
        <path class="cls-20" d="M2.5,111.56v-12.3h8.29v2.14h-5.69v2.93h5.26v2.14h-5.26v2.94h5.71v2.14H2.5Z"/>
        <path class="cls-20" d="M15.37,106.23v5.33h-2.56v-9.23h2.44v1.63h.11c.2-.54.55-.96,1.03-1.28s1.06-.47,1.75-.47c.64,0,1.2.14,1.68.42s.85.68,1.11,1.2c.26.52.4,1.14.4,1.85v5.87h-2.56v-5.42c0-.56-.14-1.01-.43-1.32-.29-.32-.69-.48-1.21-.48-.34,0-.65.07-.91.22-.26.15-.47.36-.61.65-.15.28-.22.62-.23,1.02Z"/>
        <path class="cls-20" d="M27.5,111.74c-.95,0-1.76-.2-2.44-.6-.68-.4-1.2-.96-1.56-1.68-.36-.72-.54-1.54-.54-2.47s.18-1.77.55-2.49c.37-.71.89-1.27,1.56-1.68.68-.4,1.48-.6,2.41-.6.8,0,1.51.15,2.11.44.6.29,1.08.7,1.44,1.23.35.53.55,1.15.58,1.86h-2.41c-.07-.46-.25-.83-.54-1.11-.29-.28-.67-.42-1.14-.42-.4,0-.74.11-1.04.32-.29.21-.52.53-.69.93-.16.41-.25.9-.25,1.48s.08,1.09.24,1.5c.16.41.39.73.69.94.3.22.64.32,1.04.32.29,0,.56-.06.79-.18.23-.12.43-.3.58-.53.15-.23.25-.51.3-.83h2.41c-.04.7-.23,1.32-.57,1.86-.34.53-.81.95-1.41,1.25-.6.3-1.31.45-2.13.45Z"/>
        <path class="cls-20" d="M33.26,111.56v-9.23h2.48v1.61h.1c.17-.57.45-1.01.85-1.3.4-.29.85-.44,1.37-.44.13,0,.27,0,.41.02.15.02.28.04.39.07v2.27c-.12-.04-.29-.07-.5-.1-.21-.03-.41-.04-.58-.04-.38,0-.71.08-1.01.24-.29.16-.53.39-.7.68-.17.29-.26.62-.26,1v5.22h-2.56Z"/>
        <path class="cls-20" d="M42.04,115.02c-.32,0-.63-.02-.91-.08-.28-.05-.52-.11-.7-.19l.58-1.91c.3.09.57.14.81.15s.45-.05.63-.17c.18-.12.32-.32.44-.61l.15-.39-3.31-9.49h2.69l1.91,6.78h.1l1.93-6.78h2.71l-3.59,10.22c-.17.5-.41.93-.7,1.3s-.67.66-1.11.86-.99.3-1.62.3Z"/>
        <path class="cls-20" d="M50.38,115.02v-12.69h2.52v1.55h.11c.11-.25.28-.5.49-.76.21-.26.49-.47.84-.65.35-.17.78-.26,1.29-.26.67,0,1.29.18,1.86.53.57.35,1.02.88,1.36,1.58s.51,1.58.51,2.64-.17,1.9-.5,2.6c-.33.71-.78,1.24-1.35,1.6-.57.36-1.2.54-1.9.54-.5,0-.92-.08-1.26-.25-.35-.16-.63-.37-.85-.62s-.39-.5-.5-.76h-.08v4.94h-2.56ZM52.88,106.95c0,.55.08,1.03.23,1.44.15.41.37.73.66.95.29.23.64.34,1.05.34s.77-.12,1.06-.35c.29-.23.51-.55.66-.96.15-.41.23-.88.23-1.42s-.07-1-.22-1.41c-.15-.4-.37-.72-.65-.95-.29-.23-.64-.34-1.06-.34s-.77.11-1.05.33c-.29.22-.51.53-.66.94-.15.4-.23.88-.23,1.43Z"/>
        <path class="cls-20" d="M65.98,102.34v1.92h-5.56v-1.92h5.56ZM61.68,100.13h2.56v8.6c0,.24.04.42.11.55s.17.22.3.27c.13.05.28.08.45.08.12,0,.24-.01.36-.03.12-.02.21-.04.28-.05l.4,1.9c-.13.04-.31.09-.54.14-.23.05-.51.09-.85.1-.62.02-1.16-.06-1.62-.25-.46-.19-.82-.48-1.08-.88-.26-.4-.38-.9-.38-1.5v-8.94Z"/>
        <path class="cls-20" d="M68.93,101.15c-.38,0-.71-.13-.98-.38-.27-.25-.41-.56-.41-.91s.14-.66.41-.92c.27-.25.6-.38.97-.38s.71.13.98.38c.27.25.41.56.41.91s-.14.66-.41.92c-.27.25-.6.38-.98.38ZM67.64,111.56v-9.23h2.56v9.23h-2.56Z"/>
        <path class="cls-20" d="M76.41,111.74c-.93,0-1.74-.2-2.42-.6-.68-.4-1.2-.95-1.57-1.67s-.55-1.54-.55-2.49.18-1.79.55-2.5.89-1.27,1.57-1.67,1.48-.6,2.42-.6,1.74.2,2.42.6,1.2.96,1.57,1.67c.37.71.55,1.55.55,2.5s-.18,1.77-.55,2.49c-.37.71-.89,1.27-1.57,1.67-.68.4-1.48.6-2.42.6ZM76.42,109.76c.42,0,.78-.12,1.06-.36s.5-.57.65-.99c.15-.42.22-.9.22-1.44s-.07-1.01-.22-1.44c-.15-.42-.36-.75-.65-1-.28-.24-.64-.37-1.06-.37s-.79.12-1.08.37c-.29.24-.51.58-.65,1-.15.42-.22.9-.22,1.44s.07,1.02.22,1.44c.15.42.36.75.65.99.29.24.65.36,1.08.36Z"/>
        <path class="cls-20" d="M85.18,106.23v5.33h-2.56v-9.23h2.44v1.63h.11c.2-.54.55-.96,1.03-1.28s1.06-.47,1.75-.47c.64,0,1.2.14,1.68.42s.85.68,1.11,1.2c.26.52.4,1.14.4,1.85v5.87h-2.56v-5.42c0-.56-.14-1.01-.43-1.32-.29-.32-.69-.48-1.21-.48-.34,0-.65.07-.91.22-.26.15-.47.36-.61.65-.15.28-.22.62-.23,1.02Z"/>
        <path class="cls-20" d="M98.88,111.56l-2.51-9.23h2.59l1.43,6.2h.08l1.49-6.2h2.54l1.51,6.16h.08l1.41-6.16h2.58l-2.5,9.23h-2.71l-1.59-5.8h-.11l-1.59,5.8h-2.7Z"/>
        <path class="cls-20" d="M112.73,101.15c-.38,0-.71-.13-.98-.38-.27-.25-.41-.56-.41-.91s.14-.66.41-.92c.27-.25.6-.38.97-.38s.71.13.98.38c.27.25.41.56.41.91s-.14.66-.41.92c-.27.25-.6.38-.98.38ZM111.44,111.56v-9.23h2.56v9.23h-2.56Z"/>
        <path class="cls-20" d="M120.94,102.34v1.92h-5.56v-1.92h5.56ZM116.65,100.13h2.56v8.6c0,.24.04.42.11.55s.17.22.3.27c.13.05.28.08.45.08.12,0,.24-.01.36-.03.12-.02.21-.04.28-.05l.4,1.9c-.13.04-.31.09-.54.14-.23.05-.51.09-.85.1-.62.02-1.16-.06-1.62-.25-.46-.19-.82-.48-1.08-.88-.26-.4-.38-.9-.38-1.5v-8.94Z"/>
        <path class="cls-20" d="M125.36,106.23v5.33h-2.56v-12.3h2.49v4.7h.11c.21-.54.54-.97,1.01-1.28s1.05-.47,1.75-.47c.64,0,1.2.14,1.68.42.48.28.85.68,1.12,1.2.27.52.4,1.14.39,1.86v5.87h-2.56v-5.42c0-.57-.14-1.01-.43-1.33-.29-.32-.7-.47-1.22-.47-.35,0-.66.07-.92.22-.27.15-.47.36-.62.65-.15.28-.23.62-.23,1.02Z"/>
        <path class="cls-20" d="M141.48,111.74c-.95,0-1.76-.19-2.45-.58-.68-.39-1.21-.93-1.58-1.65s-.55-1.55-.55-2.53.18-1.78.55-2.5.89-1.27,1.56-1.68c.67-.4,1.46-.6,2.36-.6.61,0,1.18.1,1.7.29.53.19.99.49,1.38.87.39.39.7.88.92,1.46.22.59.33,1.27.33,2.06v.7h-7.79v-1.59h5.38c0-.37-.08-.69-.24-.98-.16-.28-.38-.51-.66-.67-.28-.16-.61-.24-.98-.24s-.73.09-1.03.27c-.3.18-.53.42-.7.71-.17.3-.25.63-.26.99v1.51c0,.46.08.85.26,1.18.17.33.41.59.72.77.31.18.68.27,1.11.27.28,0,.54-.04.78-.12.24-.08.44-.2.61-.36.17-.16.3-.36.38-.59l2.37.16c-.12.57-.37,1.06-.74,1.49-.37.42-.85.75-1.43.99-.58.23-1.25.35-2.02.35Z"/>
        <path class="cls-20" d="M147.44,111.56v-12.3h4.93c.9,0,1.66.13,2.26.4s1.06.64,1.36,1.11c.3.47.46,1.02.46,1.64,0,.48-.1.9-.29,1.26-.19.36-.46.66-.79.89-.33.23-.72.39-1.14.49v.12c.47.02.91.15,1.32.4.41.24.74.59,1,1.02.26.44.38.96.38,1.56,0,.65-.16,1.23-.48,1.75-.32.51-.8.91-1.43,1.21-.63.3-1.4.44-2.32.44h-5.26ZM150.04,104.41h1.93c.36,0,.67-.06.95-.19.28-.13.5-.31.66-.54.16-.23.24-.51.24-.83,0-.44-.16-.8-.47-1.08-.31-.27-.76-.41-1.34-.41h-1.98v3.04ZM150.04,109.44h2.12c.72,0,1.25-.14,1.59-.42.33-.28.5-.65.5-1.11,0-.34-.08-.64-.25-.9-.16-.26-.4-.46-.7-.61-.3-.15-.66-.22-1.08-.22h-2.18v3.27Z"/>
        <path class="cls-20" d="M158.61,111.56v-12.3h4.85c.93,0,1.73.18,2.38.53.66.35,1.16.84,1.5,1.47.35.63.52,1.35.52,2.17s-.18,1.54-.53,2.16c-.35.62-.86,1.11-1.53,1.46-.67.35-1.47.52-2.42.52h-3.09v-2.08h2.67c.5,0,.91-.09,1.24-.26.33-.17.57-.42.73-.73.16-.31.24-.67.24-1.07s-.08-.77-.24-1.07c-.16-.31-.41-.54-.74-.71-.33-.17-.75-.26-1.25-.26h-1.75v10.17h-2.6Z"/>
        <path class="cls-20" d="M169.57,111.56v-12.3h8.14v2.14h-5.54v2.93h5v2.14h-5v5.08h-2.6Z"/>
      </g>
      <g>
        <g>
          <path class="cls-1" d="M9.43,173.63l1.57,2.04h-1.79l-.99-1.29c-.62.27-1.32.4-2.07.4-3.02,0-5.24-2.26-5.24-5.97s2.22-5.97,5.24-5.97,5.23,2.25,5.23,5.97c0,2.14-.74,3.8-1.94,4.81ZM7.28,170.86l1.12,1.46c.77-.73,1.24-1.91,1.24-3.5,0-2.83-1.5-4.37-3.5-4.37s-3.5,1.54-3.5,4.37,1.49,4.37,3.5,4.37c.37,0,.73-.05,1.06-.16l-1.65-2.17h1.73Z"/>
          <path class="cls-1" d="M13.44,165.91h1.66v1.41h.14c.3-.54.89-1.53,2.5-1.53,2.11,0,3.66,1.66,3.66,4.49s-1.53,4.51-3.64,4.51c-1.59,0-2.21-.97-2.52-1.53h-.1v4.63h-1.7v-11.99ZM17.38,173.35c1.52,0,2.31-1.33,2.31-3.08s-.77-3.03-2.31-3.03-2.28,1.21-2.28,3.03.82,3.08,2.28,3.08Z"/>
          <path class="cls-1" d="M22.92,170.31c0-2.71,1.61-4.51,4.06-4.51s4.06,1.8,4.06,4.51-1.61,4.5-4.06,4.5-4.06-1.8-4.06-4.5ZM29.33,170.3c0-1.67-.75-3.09-2.34-3.09s-2.36,1.42-2.36,3.09.75,3.08,2.36,3.08,2.34-1.4,2.34-3.08Z"/>
          <path class="cls-1" d="M32.73,163.55c0-.56.48-1.02,1.07-1.02s1.07.46,1.07,1.02-.49,1.01-1.07,1.01-1.07-.45-1.07-1.01ZM32.95,165.91h1.7v8.72h-1.7v-8.72Z"/>
          <path class="cls-1" d="M38.63,174.63h-1.7v-8.72h1.63v1.42h.11c.4-.93,1.26-1.53,2.57-1.53,1.78,0,2.97,1.13,2.97,3.29v5.55h-1.7v-5.34c0-1.27-.7-2.02-1.85-2.02s-2.03.79-2.03,2.19v5.18Z"/>
          <path class="cls-1" d="M50.56,167.27h-1.79v4.8c0,.98.49,1.16,1.04,1.16.27,0,.48-.05.6-.07l.31,1.4c-.2.07-.56.18-1.1.18-1.34.03-2.55-.74-2.54-2.32v-5.15h-1.28v-1.36h1.28v-2.09h1.7v2.09h1.79v1.36Z"/>
        </g>
        <g>
          <path class="cls-1" d="M84.65,174.79c-3.02,0-5.24-2.26-5.24-5.97s2.22-5.97,5.24-5.97,5.23,2.25,5.23,5.97-2.23,5.97-5.23,5.97ZM84.65,164.44c-2,0-3.5,1.54-3.5,4.37s1.49,4.37,3.5,4.37,3.5-1.54,3.5-4.37-1.5-4.37-3.5-4.37Z"/>
          <path class="cls-1" d="M91.94,165.91h1.66v1.41h.14c.3-.54.89-1.53,2.5-1.53,2.11,0,3.66,1.66,3.66,4.49s-1.53,4.51-3.64,4.51c-1.59,0-2.21-.97-2.52-1.53h-.1v4.63h-1.7v-11.99ZM95.87,173.35c1.52,0,2.31-1.33,2.31-3.08s-.77-3.03-2.31-3.03-2.28,1.21-2.28,3.03.82,3.08,2.28,3.08Z"/>
          <path class="cls-1" d="M101.42,170.33c0-2.68,1.6-4.53,4.03-4.53,1.98,0,3.86,1.23,3.86,4.38v.6h-6.2c.05,1.68,1.02,2.62,2.47,2.62.97,0,1.7-.42,2.01-1.24l1.61.29c-.39,1.42-1.73,2.36-3.63,2.36-2.57,0-4.15-1.77-4.15-4.48ZM107.65,169.51c0-1.33-.87-2.31-2.19-2.31s-2.28,1.07-2.34,2.31h4.53Z"/>
          <path class="cls-1" d="M112.91,174.63h-1.7v-8.72h1.63v1.42h.11c.4-.93,1.26-1.53,2.57-1.53,1.78,0,2.97,1.13,2.97,3.29v5.55h-1.7v-5.34c0-1.27-.7-2.02-1.85-2.02s-2.03.79-2.03,2.19v5.18Z"/>
          <path class="cls-1" d="M124.83,164.36c-1.43,0-2.33.73-2.33,1.72,0,1.11,1.2,1.54,2.11,1.77l1.14.29c1.48.36,3.34,1.17,3.34,3.27,0,1.97-1.57,3.41-4.3,3.41s-4.23-1.3-4.35-3.41h1.76c.1,1.27,1.23,1.87,2.58,1.87,1.49,0,2.58-.75,2.58-1.88,0-1.03-.96-1.44-2.2-1.77l-1.37-.38c-1.87-.5-3.03-1.45-3.03-3.07,0-2,1.79-3.34,4.12-3.34s4.01,1.35,4.06,3.21h-1.69c-.12-1.07-1.07-1.7-2.41-1.7Z"/>
          <path class="cls-1" d="M130.67,170.31c0-2.71,1.61-4.51,4.06-4.51s4.06,1.8,4.06,4.51-1.61,4.5-4.06,4.5-4.06-1.8-4.06-4.5ZM137.08,170.3c0-1.67-.75-3.09-2.34-3.09s-2.36,1.42-2.36,3.09.75,3.08,2.36,3.08,2.34-1.4,2.34-3.08Z"/>
          <path class="cls-1" d="M146.22,165.91h1.7v8.72h-1.67v-1.51h-.09c-.4.93-1.29,1.62-2.61,1.62-1.67,0-2.86-1.12-2.86-3.29v-5.55h1.7v5.34c0,1.19.73,1.95,1.78,1.95.95,0,2.05-.7,2.05-2.19v-5.1Z"/>
          <path class="cls-1" d="M150.21,165.91h1.64v1.38h.09c.32-.94,1.19-1.52,2.21-1.52.22,0,.55.02.72.04v1.62c-.14-.04-.53-.1-.89-.1-1.2,0-2.08.82-2.08,1.96v5.32h-1.7v-8.72Z"/>
          <path class="cls-1" d="M155.65,170.31c0-2.66,1.59-4.51,4.05-4.51,1.98,0,3.42,1.17,3.6,2.93h-1.65c-.18-.82-.84-1.5-1.92-1.5-1.42,0-2.36,1.17-2.36,3.04s.93,3.1,2.36,3.1c.97,0,1.7-.56,1.92-1.5h1.65c-.19,1.7-1.52,2.93-3.58,2.93-2.53,0-4.06-1.87-4.06-4.5Z"/>
          <path class="cls-1" d="M164.73,170.33c0-2.68,1.6-4.53,4.03-4.53,1.98,0,3.86,1.23,3.86,4.38v.6h-6.2c.05,1.68,1.02,2.62,2.47,2.62.96,0,1.7-.42,2.01-1.24l1.61.29c-.39,1.42-1.73,2.36-3.63,2.36-2.57,0-4.15-1.77-4.15-4.48ZM170.96,169.51c0-1.33-.87-2.31-2.19-2.31s-2.28,1.07-2.34,2.31h4.53Z"/>
        </g>
        <path class="cls-20" d="M68.1,170.65c.37-.5.61-1.17.61-1.9,0-1.55-1.01-2.8-2.25-2.8s-2.25.85-2.25,2.39c0,.06.01.11.01.17h-.02s-.02,0-.02,0c0-.06.01-.11.01-.17,0-1.55-1.01-2.39-2.25-2.39s-2.25,1.25-2.25,2.8c0,.74.23,1.4.61,1.9h0s.03.04.03.04c.02.02.04.05.06.07l3.82,3.87,3.82-3.87s.04-.05.06-.07l.03-.04h0Z"/>
      </g>
      <g>
        <polyline class="cls-12" points="701.03 35.99 736.62 35.99 759.44 13.18"/>
        <polygon class="cls-19" points="755.01 9.8 762.82 17.6 762.81 9.8 755.01 9.8"/>
      </g>
      <line class="cls-17" x1="663.18" y1="35.99" x2="689.69" y2="35.99"/>
      <g>
        <polyline class="cls-11" points="658.15 50.96 741.3 50.96 750.05 42.2"/>
        <polygon class="cls-20" points="745.62 38.82 753.43 46.63 753.43 38.83 745.62 38.82"/>
      </g>
      <line class="cls-12" x1="666.91" y1="58.44" x2="564.14" y2="58.44"/>
      <line class="cls-12" x1="709.17" y1="58.44" x2="683.12" y2="58.44"/>
      <g>
        <polyline class="cls-12" points="719.1 58.44 773.65 58.44 777.98 62.77"/>
        <polygon class="cls-19" points="781.36 58.34 773.56 66.15 781.36 66.15 781.36 58.34"/>
      </g>
      <line class="cls-12" x1="692.14" y1="43.47" x2="723.11" y2="43.47"/>
      <polyline class="cls-12" points="636.38 43.47 642.37 43.47 683.12 43.47"/>
      <line class="cls-12" x1="614.39" y1="80.88" x2="723.11" y2="80.88"/>
      <g>
        <polyline class="cls-12" points="667.73 88.36 732.12 88.36 746.87 103.11"/>
        <polygon class="cls-19" points="750.25 98.68 742.44 106.49 750.24 106.49 750.25 98.68"/>
      </g>
      <line class="cls-12" x1="610.3" y1="88.36" x2="658.63" y2="88.36"/>
      <g>
        <line class="cls-12" x1="771.44" y1="76.69" x2="787.2" y2="92.46"/>
        <polygon class="cls-19" points="790.58 88.03 782.78 95.84 790.58 95.83 790.58 88.03"/>
      </g>
      <polyline class="cls-12" points="631.89 65.92 760.67 65.92 765.2 70.45 767.43 72.68"/>
      <g>
        <polyline class="cls-12" points="703.89 73.4 746.34 73.4 752.71 79.77"/>
        <polygon class="cls-19" points="756.09 75.34 748.28 83.15 756.09 83.15 756.09 75.34"/>
      </g>
      <line class="cls-17" x1="669.93" y1="73.4" x2="694.65" y2="73.4"/>
      <line class="cls-12" x1="435.58" y1="35.99" x2="653.12" y2="35.99"/>
      <line class="cls-12" x1="428.91" y1="50.96" x2="646.57" y2="50.96"/>
      <line class="cls-11" x1="465.37" y1="58.44" x2="428.91" y2="58.44"/>
      <line class="cls-17" x1="554.32" y1="58.44" x2="474.82" y2="58.44"/>
      <line class="cls-17" x1="599.86" y1="43.47" x2="624.7" y2="43.47"/>
      <line class="cls-3" x1="521.68" y1="43.47" x2="590.85" y2="43.47"/>
      <line class="cls-12" x1="431.73" y1="43.47" x2="495.51" y2="43.47"/>
      <line class="cls-12" x1="435.58" y1="80.88" x2="600.44" y2="80.88"/>
      <line class="cls-17" x1="568.33" y1="88.36" x2="598.63" y2="88.36"/>
      <line class="cls-12" x1="441.83" y1="88.36" x2="559.23" y2="88.36"/>
      <line class="cls-12" x1="428.91" y1="65.92" x2="620.95" y2="65.92"/>
      <line class="cls-7" x1="598.54" y1="73.4" x2="658.15" y2="73.4"/>
      <line class="cls-11" x1="520.05" y1="73.4" x2="584.63" y2="73.4"/>
      <line class="cls-11" x1="431.73" y1="73.4" x2="495.51" y2="73.4"/>
      <path class="cls-16" d="M470.05,99.58c-22.72,0-41.14-18.42-41.14-41.14s18.42-41.14,41.14-41.14"/>
      <line class="cls-6" x1="1.43" y1="58.44" x2="179.34" y2="58.44"/>
      <line class="cls-6" x1="1.43" y1="127.72" x2="179.34" y2="127.72"/>
    </g>
  </g>
</svg>