<?xml version="1.0" encoding="UTF-8"?>
<svg id="Layer_2" data-name="Layer 2" xmlns="http://www.w3.org/2000/svg" viewBox="0 0 644.24 406.94">
  <defs>
    <style>
      .cls-1 {
        stroke: #ac7bf2;
      }

      .cls-1, .cls-2, .cls-3, .cls-4, .cls-5, .cls-6, .cls-7, .cls-8, .cls-9, .cls-10, .cls-11, .cls-12 {
        stroke-miterlimit: 10;
      }

      .cls-1, .cls-2, .cls-5, .cls-6, .cls-7, .cls-8, .cls-11, .cls-12 {
        stroke-width: 2.37px;
      }

      .cls-1, .cls-3, .cls-4, .cls-5, .cls-7, .cls-8, .cls-13, .cls-9, .cls-10, .cls-14, .cls-11, .cls-12 {
        fill: none;
      }

      .cls-2 {
        stroke: #e3cfff;
      }

      .cls-2, .cls-6, .cls-15 {
        fill: #9b5cf2;
      }

      .cls-16 {
        fill: #363636;
      }

      .cls-3 {
        stroke-width: .49px;
      }

      .cls-3, .cls-10 {
        stroke: #a678ff;
      }

      .cls-4 {
        stroke-width: 2.39px;
      }

      .cls-4, .cls-11, .cls-12 {
        stroke: #fff;
      }

      .cls-17 {
        opacity: .11;
      }

      .cls-17, .cls-18 {
        fill: #fff;
      }

      .cls-19 {
        fill: #0c1724;
      }

      .cls-5 {
        stroke: #9b5cf2;
      }

      .cls-5, .cls-7, .cls-13, .cls-9, .cls-11 {
        stroke-linecap: round;
      }

      .cls-5, .cls-7, .cls-11 {
        stroke-dasharray: 3.56 7.12;
      }

      .cls-6 {
        stroke: #bd96f2;
      }

      .cls-7 {
        stroke: #311d4d;
      }

      .cls-8 {
        stroke: #bba5ff;
      }

      .cls-20 {
        fill: #ac7bf2;
      }

      .cls-21 {
        fill: #1a1919;
      }

      .cls-22 {
        fill: #a361ff;
      }

      .cls-23 {
        fill: #bba5ff;
      }

      .cls-13, .cls-14 {
        stroke: #ab86f6;
        stroke-linejoin: round;
        stroke-width: 2.74px;
      }

      .cls-9 {
        stroke: #ff4747;
        stroke-width: 1.48px;
      }

      .cls-10 {
        stroke-width: .4px;
      }

      .cls-15 {
        opacity: .58;
      }

      .cls-24 {
        fill: #bc8cff;
      }

      .cls-25 {
        fill: #8e7dc2;
      }
    </style>
  </defs>
  <g id="main">
    <g>
      <path class="cls-17" d="M1.63,0h300.03C314.82,0,325.5,10.68,325.5,23.84v150.94c0,13.16-10.68,23.84-23.84,23.84H84.91C38.95,198.62,1.63,161.31,1.63,115.35V0h0Z"/>
      <circle class="cls-5" cx="184.62" cy="77.01" r="17.16"/>
      <g>
        <line class="cls-4" x1="78.16" y1="77.78" x2="538.33" y2="77.78"/>
        <polygon class="cls-18" points="530.39 87.57 528.76 85.82 537.41 77.78 528.76 69.74 530.39 67.98 540.93 77.78 530.39 87.57"/>
      </g>
      <polygon class="cls-17" points="644.24 101.7 644.24 51.93 601.14 27.05 558.04 51.93 558.04 101.7 601.14 125.11 644.24 101.7"/>
      <circle class="cls-11" cx="184.62" cy="77.01" r="11.98"/>
      <rect class="cls-18" x="250.75" y="62.64" width="242.68" height="28.74" rx="12.11" ry="12.11"/>
      <g>
        <path class="cls-25" d="M23.47,15.47c-1.17,0-1.81.53-1.81,1.26-.02.81.8,1.17,1.78,1.4l1.01.24c1.96.44,3.38,1.44,3.38,3.32,0,2.07-1.62,3.38-4.38,3.38s-4.48-1.26-4.54-3.7h2.31c.08,1.13.97,1.7,2.21,1.7s1.99-.56,2-1.39c0-.76-.69-1.11-1.92-1.41l-1.23-.31c-1.91-.46-3.08-1.41-3.07-3.07-.01-2.05,1.8-3.42,4.27-3.42s4.16,1.39,4.2,3.4h-2.29c-.09-.89-.79-1.4-1.93-1.4Z"/>
        <path class="cls-25" d="M29.05,20.72c0-2.61,1.61-4.38,4.1-4.38,2.24,0,3.98,1.42,3.98,4.3v.64h-5.76c0,1.27.74,2.04,1.92,2.04.78,0,1.39-.34,1.62-.98l2.17.14c-.33,1.57-1.74,2.59-3.83,2.59-2.61,0-4.2-1.67-4.2-4.36ZM34.92,19.83c0-1.01-.71-1.73-1.73-1.73s-1.77.77-1.82,1.73h3.55Z"/>
        <path class="cls-25" d="M38.66,16.45h2.27v1.48h.09c.31-1.05,1.09-1.6,2.03-1.6.24,0,.53.03.74.08v2.08c-.22-.07-.67-.13-.99-.13-1.04,0-1.8.72-1.8,1.76v4.79h-2.35v-8.46Z"/>
        <path class="cls-25" d="M50.19,24.91h-2.64l-2.96-8.46h2.48l1.76,6.05h.09l1.75-6.05h2.48l-2.96,8.46Z"/>
        <path class="cls-25" d="M53.73,20.72c0-2.61,1.61-4.38,4.1-4.38,2.24,0,3.98,1.42,3.98,4.3v.64h-5.76c0,1.27.74,2.04,1.92,2.04.78,0,1.39-.34,1.62-.98l2.17.14c-.33,1.57-1.74,2.59-3.83,2.59-2.61,0-4.2-1.67-4.2-4.36ZM59.6,19.83c0-1.01-.71-1.73-1.73-1.73s-1.77.77-1.82,1.73h3.55Z"/>
        <path class="cls-25" d="M63.34,16.45h2.27v1.48h.09c.31-1.05,1.09-1.6,2.03-1.6.24,0,.53.03.74.08v2.08c-.22-.07-.67-.13-.99-.13-1.04,0-1.8.72-1.8,1.76v4.79h-2.35v-8.46Z"/>
      </g>
      <g>
        <path class="cls-18" d="M575.1,66.28h6.15v1.59h-4.22v2.17h3.9v1.59h-3.9v2.18h4.24v1.59h-6.17v-9.12Z"/>
        <path class="cls-18" d="M585.58,70.95l1.29-2.39h1.95l-1.98,3.42,2.04,3.42h-1.94l-1.35-2.37-1.33,2.37h-1.96l2.03-3.42-1.96-3.42h1.96l1.26,2.39Z"/>
        <path class="cls-18" d="M593.57,69.98h-1.29v3.31c0,.53.26.67.64.67.18,0,.38-.04.47-.06l.3,1.41c-.19.06-.54.16-1.03.18-1.38.06-2.29-.61-2.28-1.95v-3.56h-.94v-1.43h.94v-1.64h1.9v1.64h1.29v1.43Z"/>
        <path class="cls-18" d="M594.45,72.01c0-2.11,1.31-3.54,3.32-3.54,1.81,0,3.22,1.15,3.22,3.48v.52h-4.66c0,1.02.6,1.65,1.55,1.65.63,0,1.12-.27,1.31-.79l1.76.12c-.27,1.27-1.41,2.09-3.1,2.09-2.11,0-3.4-1.35-3.4-3.52ZM599.2,71.29c0-.82-.57-1.4-1.4-1.4s-1.43.62-1.47,1.4h2.87Z"/>
        <path class="cls-18" d="M602.22,68.56h1.84v1.19h.07c.25-.85.88-1.29,1.64-1.29.19,0,.43.03.6.07v1.68c-.18-.06-.54-.1-.8-.1-.84,0-1.45.58-1.45,1.42v3.87h-1.9v-6.84Z"/>
        <path class="cls-18" d="M609.24,75.4h-1.9v-6.84h1.81v1.21h.08c.31-.8,1.04-1.3,2.06-1.3,1.43,0,2.36.98,2.36,2.58v4.36h-1.9v-4.02c0-.84-.45-1.34-1.22-1.34s-1.29.52-1.3,1.4v3.96Z"/>
        <path class="cls-18" d="M614.81,73.49c0-1.53,1.22-1.98,2.57-2.11,1.19-.12,1.66-.17,1.66-.61v-.03c0-.56-.37-.89-1.02-.89-.68,0-1.09.33-1.22.79l-1.76-.14c.26-1.25,1.34-2.03,2.98-2.03,1.52,0,2.9.69,2.9,2.32v4.62h-1.8v-.95h-.05c-.33.64-.99,1.08-2,1.08-1.31,0-2.27-.69-2.27-2.04ZM619.05,72.96v-.73c-.23.15-.9.25-1.32.31-.67.09-1.11.36-1.11.89s.42.79,1,.79c.83,0,1.43-.55,1.43-1.27Z"/>
        <path class="cls-18" d="M624.3,75.4h-1.9v-9.12h1.9v9.12Z"/>
        <path class="cls-18" d="M582,82.8c-.94,0-1.47.43-1.47,1.02-.01.66.65.95,1.44,1.13l.82.2c1.59.36,2.73,1.16,2.74,2.68,0,1.67-1.31,2.74-3.54,2.74s-3.63-1.02-3.68-2.99h1.87c.06.91.78,1.38,1.79,1.38s1.61-.45,1.62-1.12c0-.62-.56-.9-1.55-1.14l-.99-.25c-1.54-.37-2.49-1.14-2.49-2.49,0-1.66,1.46-2.76,3.46-2.76s3.37,1.12,3.4,2.75h-1.85c-.07-.72-.64-1.14-1.56-1.14Z"/>
        <path class="cls-18" d="M586.51,87.05c0-2.11,1.31-3.54,3.32-3.54,1.81,0,3.22,1.15,3.22,3.48v.52h-4.66c0,1.02.6,1.65,1.55,1.65.63,0,1.12-.27,1.31-.79l1.76.12c-.27,1.27-1.41,2.09-3.1,2.09-2.11,0-3.4-1.35-3.4-3.52ZM591.26,86.33c0-.82-.57-1.4-1.4-1.4s-1.43.62-1.47,1.4h2.87Z"/>
        <path class="cls-18" d="M594.27,83.59h1.84v1.19h.07c.25-.85.88-1.29,1.64-1.29.19,0,.43.03.6.07v1.68c-.18-.06-.54-.1-.8-.1-.84,0-1.45.58-1.45,1.42v3.87h-1.9v-6.84Z"/>
        <path class="cls-18" d="M603.6,90.44h-2.14l-2.39-6.84h2l1.42,4.9h.07l1.42-4.9h2.01l-2.39,6.84Z"/>
        <path class="cls-18" d="M606.88,81.75c0-.53.46-.96,1.02-.96s1.03.43,1.03.96-.46.96-1.03.96-1.02-.43-1.02-.96ZM606.95,83.59h1.9v6.84h-1.9v-6.84Z"/>
        <path class="cls-18" d="M610.08,87.04c0-2.1,1.28-3.54,3.36-3.54,1.79,0,2.98,1.04,3.07,2.62h-1.79c-.1-.68-.55-1.14-1.24-1.14-.88,0-1.46.74-1.46,2.03s.57,2.05,1.46,2.05c.65,0,1.13-.41,1.24-1.14h1.79c-.09,1.57-1.23,2.64-3.06,2.64-2.11,0-3.37-1.45-3.37-3.53Z"/>
        <path class="cls-18" d="M617.44,87.05c0-2.11,1.31-3.54,3.32-3.54,1.81,0,3.22,1.15,3.22,3.48v.52h-4.66c0,1.02.6,1.65,1.55,1.65.63,0,1.12-.27,1.31-.79l1.76.12c-.27,1.27-1.41,2.09-3.1,2.09-2.11,0-3.4-1.35-3.4-3.52ZM622.19,86.33c0-.82-.57-1.4-1.4-1.4s-1.43.62-1.47,1.4h2.87Z"/>
      </g>
      <g>
        <path d="M270.69,73.48h5.81v1.5h-3.99v2.06h3.69v1.5h-3.69v2.06h4v1.5h-5.83v-8.62Z"/>
        <path d="M285.47,82.1h-1.58l-3.75-5.43h-.06v5.43h-1.82v-8.62h1.6l3.72,5.42h.08v-5.42h1.82v8.62Z"/>
        <path d="M293.04,76.49c-.14-.95-.86-1.52-1.86-1.52-1.33,0-2.21,1.02-2.21,2.82s.89,2.82,2.2,2.82c.97,0,1.7-.53,1.87-1.45h1.84c-.2,1.6-1.53,3.07-3.74,3.07s-4.02-1.62-4.02-4.43,1.74-4.43,4.02-4.43c2,0,3.5,1.15,3.74,3.14h-1.84Z"/>
        <path d="M296.49,73.48h3.4c1.96,0,3.09,1.1,3.09,2.82,0,1.18-.54,2.03-1.52,2.46l1.83,3.35h-2.01l-1.63-3.06h-1.33v3.06h-1.82v-8.62ZM299.56,77.58c1.04,0,1.55-.43,1.55-1.28s-.51-1.33-1.56-1.33h-1.23v2.61h1.24Z"/>
        <path d="M305.76,73.48l1.97,3.71h.08l1.97-3.71h2.04l-3.15,5.58v3.05h-1.81v-3.05l-3.15-5.58h2.04Z"/>
        <path d="M313.11,73.48h3.4c1.96,0,3.09,1.21,3.09,2.92s-1.15,2.91-3.14,2.91h-1.53v2.8h-1.82v-8.62ZM316.17,77.84c1.04,0,1.55-.59,1.55-1.44s-.51-1.43-1.56-1.43h-1.23v2.88h1.24Z"/>
        <path d="M320.76,73.48h7.08v1.5h-2.64v7.12h-1.8v-7.12h-2.64v-1.5Z"/>
        <path d="M329.32,73.48h5.81v1.5h-3.99v2.06h3.69v1.5h-3.69v2.06h4v1.5h-5.83v-8.62Z"/>
        <path d="M336.88,82.1v-8.62h3.08c2.6,0,4.19,1.62,4.19,4.3s-1.59,4.32-4.22,4.32h-3.06ZM339.86,80.54c1.62,0,2.48-.83,2.48-2.76s-.85-2.74-2.47-2.74h-1.16v5.5h1.16Z"/>
        <path d="M354.62,76.49c-.14-.95-.86-1.52-1.86-1.52-1.33,0-2.21,1.02-2.21,2.82s.89,2.82,2.2,2.82c.97,0,1.7-.53,1.87-1.45h1.84c-.2,1.6-1.53,3.07-3.74,3.07s-4.02-1.62-4.02-4.43,1.74-4.43,4.02-4.43c2,0,3.5,1.15,3.74,3.14h-1.84Z"/>
        <path d="M361.96,82.22c-2.3,0-4.04-1.62-4.04-4.43s1.74-4.43,4.04-4.43,4.04,1.61,4.04,4.43-1.75,4.43-4.04,4.43ZM361.96,74.97c-1.33,0-2.19.99-2.19,2.82s.86,2.82,2.19,2.82,2.19-.99,2.19-2.82-.87-2.82-2.19-2.82Z"/>
        <path d="M374.86,82.1h-1.58l-3.75-5.43h-.06v5.43h-1.82v-8.62h1.6l3.72,5.42h.08v-5.42h1.81v8.62Z"/>
        <path d="M383.88,82.1h-1.58l-3.75-5.43h-.06v5.43h-1.82v-8.62h1.6l3.72,5.42h.08v-5.42h1.81v8.62Z"/>
        <path d="M385.68,73.48h5.81v1.5h-3.99v2.06h3.69v1.5h-3.69v2.06h4v1.5h-5.83v-8.62Z"/>
        <path d="M399.01,76.49c-.14-.95-.86-1.52-1.86-1.52-1.33,0-2.21,1.02-2.21,2.82s.89,2.82,2.2,2.82c.97,0,1.7-.53,1.87-1.45h1.84c-.2,1.6-1.53,3.07-3.74,3.07s-4.02-1.62-4.02-4.43,1.74-4.43,4.02-4.43c2,0,3.5,1.15,3.74,3.14h-1.84Z"/>
        <path d="M402.14,73.48h7.08v1.5h-2.64v7.12h-1.8v-7.12h-2.64v-1.5Z"/>
        <path d="M412.51,82.1h-1.82v-8.62h1.82v8.62Z"/>
        <path d="M418.2,82.22c-2.3,0-4.04-1.62-4.04-4.43s1.74-4.43,4.04-4.43,4.04,1.61,4.04,4.43-1.75,4.43-4.04,4.43ZM418.2,74.97c-1.33,0-2.19.99-2.19,2.82s.86,2.82,2.19,2.82,2.19-.99,2.19-2.82-.87-2.82-2.19-2.82Z"/>
        <path d="M431.1,82.1h-1.58l-3.75-5.43h-.06v5.43h-1.82v-8.62h1.6l3.72,5.42h.08v-5.42h1.82v8.62Z"/>
        <path d="M436.11,74.88c-.89,0-1.39.41-1.39.96-.01.62.61.9,1.36,1.07l.77.19c1.5.34,2.58,1.1,2.59,2.54,0,1.58-1.24,2.59-3.35,2.59s-3.43-.96-3.47-2.83h1.76c.06.86.74,1.3,1.69,1.3s1.52-.43,1.53-1.06c0-.58-.53-.85-1.47-1.08l-.94-.24c-1.46-.35-2.35-1.08-2.35-2.35,0-1.57,1.38-2.61,3.27-2.61s3.18,1.06,3.21,2.6h-1.75c-.07-.68-.6-1.07-1.47-1.07Z"/>
      </g>
      <circle class="cls-5" cx="184.62" cy="146.64" r="17.76"/>
      <circle class="cls-5" cx="184.62" cy="146.64" r="24.72"/>
      <circle class="cls-7" cx="184.62" cy="146.64" r="31.92"/>
      <g>
        <path class="cls-23" d="M30.47,123.1l4.02-11.66h3.18l4.02,11.66h-2.64l-.87-2.66h-4.21l-.87,2.66h-2.64ZM37.56,118.52l-1.43-4.41h-.09l-1.43,4.41h2.96Z"/>
        <path class="cls-23" d="M43.09,111.45h4.6c2.65,0,4.18,1.63,4.18,3.95s-1.56,3.93-4.24,3.93h-2.07v3.78h-2.46v-11.66ZM47.23,117.35c1.41,0,2.1-.8,2.1-1.95s-.69-1.94-2.11-1.94h-1.66v3.89h1.67Z"/>
        <path class="cls-23" d="M53.48,111.45h4.6c2.65,0,4.18,1.63,4.18,3.95s-1.56,3.93-4.24,3.93h-2.07v3.78h-2.46v-11.66ZM57.62,117.35c1.41,0,2.1-.8,2.1-1.95s-.69-1.94-2.11-1.94h-1.66v3.89h1.67Z"/>
        <path class="cls-23" d="M68.2,113.35c-1.21,0-1.87.55-1.87,1.3-.02.84.83,1.21,1.84,1.45l1.05.25c2.03.46,3.49,1.49,3.49,3.43,0,2.13-1.68,3.49-4.52,3.49s-4.63-1.3-4.7-3.82h2.38c.08,1.17,1,1.76,2.28,1.76s2.06-.58,2.07-1.43c0-.79-.71-1.15-1.98-1.46l-1.27-.32c-1.97-.47-3.18-1.46-3.18-3.18-.01-2.12,1.86-3.53,4.42-3.53s4.3,1.43,4.34,3.51h-2.36c-.09-.92-.81-1.45-1.99-1.45Z"/>
      </g>
      <g>
        <path class="cls-18" d="M170.52,45.27l2.41,3.03h-3.33l-1.36-1.67c-.91.35-1.9.52-2.96.52-4.5,0-7.9-3.17-7.9-8.67s3.4-8.67,7.9-8.67,7.9,3.15,7.9,8.67c0,3.01-1.02,5.31-2.67,6.79ZM167.08,41.05l1.25,1.61c.78-.93,1.24-2.34,1.24-4.18,0-3.58-1.7-5.51-4.28-5.51s-4.28,1.94-4.28,5.51,1.69,5.51,4.28,5.51c.32,0,.63-.03.92-.09l-2.16-2.85h3.03Z"/>
        <path class="cls-18" d="M176.66,45.15c0-1.08.89-1.96,1.98-1.96s1.97.88,1.98,1.96c0,1.1-.92,1.98-1.98,1.98s-1.99-.88-1.98-1.98Z"/>
        <path class="cls-18" d="M179.81,30.04h13.86v2.94h-5.17v13.93h-3.53v-13.93h-5.17v-2.94Z"/>
        <path class="cls-18" d="M193.58,43.38c0-2.83,2.25-3.67,4.75-3.9,2.2-.21,3.06-.32,3.06-1.14v-.05c0-1.04-.68-1.64-1.88-1.64-1.26,0-2.01.62-2.25,1.46l-3.25-.26c.49-2.31,2.48-3.76,5.51-3.76,2.82,0,5.37,1.27,5.37,4.28v8.54h-3.33v-1.75h-.1c-.62,1.18-1.83,1.99-3.7,1.99-2.41,0-4.2-1.27-4.2-3.77ZM201.43,42.39v-1.34c-.42.28-1.67.46-2.44.57-1.24.17-2.05.66-2.05,1.65s.77,1.47,1.85,1.47c1.54,0,2.64-1.01,2.64-2.34Z"/>
        <path class="cls-18" d="M207.64,34.26h3.46v2.13h.16c.47-1.03,1.48-2.29,3.6-2.29,2.78,0,5.13,2.16,5.13,6.51s-2.25,6.52-5.13,6.52c-2.04,0-3.11-1.18-3.59-2.23h-.11v6.77h-3.51v-17.4ZM213.74,44.33c1.72,0,2.66-1.53,2.66-3.74s-.92-3.7-2.66-3.7-2.66,1.44-2.66,3.7.97,3.74,2.66,3.74Z"/>
      </g>
      <polyline class="cls-12" points="68.46 59.06 87.86 59.06 106.6 77.8"/>
      <polyline class="cls-12" points="68.46 96.49 78.71 96.49 97.45 77.75"/>
      <polygon class="cls-8" points="43.32 73.61 43.32 81.95 50.54 86.11 57.75 81.95 57.75 73.61 50.54 69.44 43.32 73.61"/>
      <polygon class="cls-8" points="23.43 73.61 23.43 81.95 30.65 86.11 37.87 81.95 37.87 73.61 30.65 69.44 23.43 73.61"/>
      <polygon class="cls-8" points="54.02 55.65 54.02 63.98 61.24 68.15 68.46 63.98 68.46 55.65 61.24 51.48 54.02 55.65"/>
      <polygon class="cls-8" points="47.05 55.65 47.05 63.98 39.83 68.15 32.61 63.98 32.61 55.65 39.83 51.48 47.05 55.65"/>
      <polygon class="cls-8" points="54.02 99.91 54.02 91.57 61.24 87.41 68.46 91.57 68.46 99.91 61.24 104.08 54.02 99.91"/>
      <polygon class="cls-8" points="32.61 99.91 32.61 91.57 39.83 87.41 47.05 91.57 47.05 99.91 39.83 104.08 32.61 99.91"/>
      <polygon class="cls-8" points="63.72 73.61 63.72 81.95 70.94 86.11 78.16 81.95 78.16 73.61 70.94 69.44 63.72 73.61"/>
      <line class="cls-6" x1="184.62" y1="139.57" x2="184.62" y2="83.2"/>
      <circle class="cls-15" cx="184.62" cy="77.01" r="7.01"/>
      <g>
        <circle class="cls-13" cx="474.95" cy="76.15" r="4.26"/>
        <polyline class="cls-14" points="456.16 82.12 456.16 76.15 470.69 76.15"/>
        <line class="cls-14" x1="461.44" y1="82.12" x2="461.44" y2="76.15"/>
        <line class="cls-14" x1="458.92" y1="78.7" x2="458.92" y2="76.15"/>
      </g>
      <g>
        <path class="cls-1" d="M176.33,153.29l-98.9,98.9c-2.92,2.92-4.56,6.88-4.56,11.01v22.84"/>
        <polygon class="cls-20" points="63.16 278.18 64.9 276.56 72.86 285.13 80.83 276.56 82.56 278.18 72.86 288.61 63.16 278.18"/>
      </g>
      <g>
        <path class="cls-1" d="M192.91,153.29l98.9,98.9c2.92,2.92,4.56,6.88,4.56,11.01v22.84"/>
        <polygon class="cls-20" points="286.67 278.18 288.41 276.56 296.37 285.13 304.34 276.56 306.07 278.18 296.37 288.61 286.67 278.18"/>
      </g>
      <circle class="cls-2" cx="184.62" cy="146.64" r="10.95"/>
      <g>
        <path class="cls-24" d="M165.74,347.76c0-1.67,1.38-2.1,2.82-2.26,1.31-.14,1.84-.16,1.84-.67v-.03c0-.73-.44-1.15-1.26-1.15-.86,0-1.35.44-1.52.94l-1.63-.23c.39-1.35,1.59-2.05,3.15-2.05,1.42,0,3.02.59,3.02,2.55v4.97h-1.68v-1.02h-.06c-.32.62-1.02,1.17-2.18,1.17-1.42,0-2.49-.77-2.49-2.23ZM170.4,347.18v-.88c-.23.18-1.15.3-1.61.36-.78.11-1.37.39-1.37,1.06s.52.98,1.25.98c1.05,0,1.72-.7,1.72-1.53Z"/>
        <path class="cls-24" d="M175.66,349.85h-1.75v-7.43h1.67v1.26h.09c.34-.83,1.1-1.36,2.22-1.36,1.53,0,2.55,1.02,2.54,2.8v4.73h-1.75v-4.46c0-.99-.54-1.59-1.45-1.59s-1.57.62-1.57,1.69v4.35Z"/>
        <path class="cls-24" d="M181.9,346.14c0-2.48,1.35-3.82,3.07-3.82,1.31,0,1.86.79,2.12,1.33h.07v-3.71h1.76v9.91h-1.72v-1.17h-.11c-.28.54-.85,1.3-2.13,1.3-1.75,0-3.06-1.39-3.06-3.84ZM187.19,346.13c0-1.44-.62-2.38-1.75-2.38s-1.77.99-1.77,2.38.61,2.41,1.77,2.41,1.75-.97,1.75-2.41Z"/>
        <path class="cls-24" d="M195.01,351.33h-1.53l3.19-11.86h1.53l-3.19,11.86Z"/>
        <path class="cls-24" d="M202.37,346.16c0-2.3,1.38-3.84,3.56-3.84s3.56,1.54,3.56,3.84-1.38,3.83-3.56,3.83-3.56-1.53-3.56-3.83ZM207.71,346.15c0-1.36-.59-2.45-1.77-2.45s-1.79,1.09-1.79,2.45.59,2.43,1.79,2.43,1.77-1.07,1.77-2.43Z"/>
        <path class="cls-24" d="M210.96,342.42h1.7v1.24h.08c.27-.86.98-1.34,1.83-1.34.19,0,.47.02.63.05v1.61c-.15-.05-.52-.1-.81-.1-.96,0-1.67.67-1.67,1.61v4.37h-1.75v-7.43Z"/>
      </g>
      <path class="cls-18" d="M183.79,145.53c.54,0,.96.21,1.58.74.35.31.53.45.83.45.42,0,.72-.32.7-.99h1.21c.04,1.52-.74,2.27-1.76,2.27-.56,0-.99-.22-1.58-.74-.37-.32-.53-.45-.82-.45-.41,0-.71.28-.7.99h-1.21c-.05-1.52.71-2.28,1.76-2.28Z"/>
      <rect class="cls-18" x="1.72" y="308.17" width="147.22" height="75.83" rx="4.25" ry="4.25"/>
      <rect class="cls-18" x="236.99" y="307.78" width="147.22" height="75.83" rx="4.25" ry="4.25"/>
      <g>
        <path class="cls-18" d="M252.8,394.13h5.38v.93h-4.3v2.91h4.02v.93h-4.02v2.93h4.37v.93h-5.44v-8.62Z"/>
        <path class="cls-18" d="M262.35,398.93l1.6-2.65h1.18l-2.16,3.23,2.16,3.23h-1.18l-1.6-2.51-1.6,2.51h-1.18l2.12-3.23-2.12-3.23h1.18l1.6,2.65Z"/>
        <path class="cls-18" d="M266.38,394.54c0-.37.33-.67.73-.67s.73.3.73.67-.33.67-.73.67-.73-.3-.73-.67ZM266.59,396.29h1.03v6.47h-1.03v-6.47Z"/>
        <path class="cls-18" d="M273.3,397.99c-.18-.45-.55-.93-1.44-.93-.82,0-1.43.4-1.43.96,0,.5.36.75,1.15.94l.99.24c1.19.28,1.77.85,1.77,1.75,0,1.12-1.06,1.94-2.61,1.94-1.37,0-2.3-.59-2.54-1.68l.97-.24c.18.69.71,1.04,1.55,1.04.96,0,1.57-.45,1.57-1.01,0-.45-.32-.76-.99-.91l-1.11-.25c-1.23-.28-1.77-.88-1.77-1.77,0-1.09,1.04-1.87,2.45-1.87,1.32,0,2.04.62,2.37,1.53l-.92.25Z"/>
        <path class="cls-18" d="M278.8,397.13h-1.43v3.77c0,.84.44.98.89.98.23,0,.37-.03.45-.05l.21.89c-.14.05-.38.12-.77.12-.87,0-1.81-.54-1.81-1.67v-4.04h-1.01v-.84h1.01v-1.55h1.03v1.55h1.43v.84Z"/>
        <path class="cls-18" d="M280.13,394.54c0-.37.33-.67.73-.67s.73.3.73.67-.33.67-.73.67-.73-.3-.73-.67ZM280.34,396.29h1.03v6.47h-1.03v-6.47Z"/>
        <path class="cls-18" d="M284.27,402.76h-1.03v-6.47h.99v1.01h.09c.31-.66.94-1.1,1.95-1.1,1.35,0,2.26.79,2.26,2.44v4.11h-1.03v-4.04c0-1.02-.58-1.62-1.53-1.62s-1.7.64-1.7,1.77v3.89Z"/>
        <path class="cls-18" d="M290.37,404.02l.82-.56c.27.36.7.98,1.91.98,1.08,0,1.86-.49,1.86-1.57v-1.31h-.09c-.23.35-.64,1.09-1.95,1.09-1.62,0-2.84-1.15-2.84-3.17s1.17-3.29,2.85-3.29c1.3,0,1.72.78,1.95,1.11h.1v-1.03h.99v6.65c0,1.67-1.29,2.38-2.89,2.38-1.49,0-2.31-.62-2.73-1.3ZM294.98,399.47c0-1.4-.66-2.38-1.91-2.38s-1.95,1.06-1.95,2.38.66,2.29,1.95,2.29,1.91-.86,1.91-2.29Z"/>
        <path class="cls-18" d="M305.03,402.87c-2.28,0-3.93-1.7-3.93-4.43s1.65-4.43,3.93-4.43,3.93,1.7,3.93,4.43-1.65,4.43-3.93,4.43ZM305.03,394.99c-1.62,0-2.89,1.21-2.89,3.45s1.27,3.45,2.89,3.45,2.89-1.21,2.89-3.45-1.27-3.45-2.89-3.45Z"/>
        <path class="cls-18" d="M310.77,394.13h1.03v3.18h.09c.23-.34.63-1.11,1.93-1.11,1.69,0,2.85,1.3,2.85,3.34s-1.17,3.35-2.84,3.35c-1.29,0-1.72-.77-1.95-1.13h-.12v.99h-.99v-8.62ZM313.69,402c1.29,0,1.95-1.09,1.95-2.48s-.64-2.43-1.95-2.43-1.91.98-1.91,2.43.68,2.48,1.91,2.48Z"/>
        <path class="cls-18" d="M322.04,397.99c-.18-.45-.55-.93-1.44-.93-.82,0-1.43.4-1.43.96,0,.5.36.75,1.15.94l.99.24c1.19.28,1.77.85,1.77,1.75,0,1.12-1.06,1.94-2.61,1.94-1.37,0-2.3-.59-2.54-1.68l.97-.24c.18.69.71,1.04,1.55,1.04.96,0,1.57-.45,1.57-1.01,0-.45-.32-.76-.99-.91l-1.11-.25c-1.23-.28-1.77-.88-1.77-1.77,0-1.09,1.04-1.87,2.45-1.87,1.32,0,2.04.62,2.37,1.53l-.92.25Z"/>
        <path class="cls-18" d="M324.31,399.57c0-1.99,1.2-3.37,3.01-3.37,1.39,0,2.87.83,2.87,3.23v.42h-4.85c.05,1.39.88,2.14,2.08,2.14.8,0,1.41-.34,1.67-1.01l.99.27c-.31.98-1.3,1.63-2.66,1.63-1.93,0-3.11-1.33-3.11-3.32ZM329.15,399c0-1.1-.71-1.9-1.83-1.9-1.17,0-1.91.9-1.98,1.9h3.81Z"/>
        <path class="cls-18" d="M331.76,396.29h.99v.98h.07c.24-.64.94-1.08,1.74-1.08.15,0,.42,0,.54.02v1.01c-.07-.02-.35-.07-.63-.07-.97,0-1.69.64-1.69,1.52v4.09h-1.03v-6.47Z"/>
        <path class="cls-18" d="M339.51,402.76h-1.04l-2.47-6.47h1.11l1.84,5.15h.07l1.84-5.15h1.11l-2.47,6.47Z"/>
        <path class="cls-18" d="M342.81,400.92c0-1.48,1.35-1.75,2.59-1.9,1.22-.15,1.72-.11,1.72-.59v-.03c0-.83-.47-1.31-1.41-1.31s-1.51.51-1.74.98l-.97-.34c.52-1.18,1.67-1.52,2.68-1.52.85,0,2.47.24,2.47,2.29v4.26h-1.03v-.88h-.05c-.21.42-.82,1.03-1.98,1.03-1.27,0-2.28-.72-2.28-1.99ZM347.13,400.42v-.91c-.17.2-1.34.32-1.77.37-.8.1-1.51.34-1.51,1.09,0,.69.59,1.04,1.41,1.04,1.22,0,1.88-.79,1.88-1.6Z"/>
        <path class="cls-18" d="M350.17,394.13h1.03v3.18h.09c.23-.34.63-1.11,1.93-1.11,1.69,0,2.85,1.3,2.85,3.34s-1.17,3.35-2.84,3.35c-1.29,0-1.72-.77-1.95-1.13h-.12v.99h-.99v-8.62ZM353.09,402c1.29,0,1.95-1.09,1.95-2.48s-.64-2.43-1.95-2.43-1.91.98-1.91,2.43.68,2.48,1.91,2.48Z"/>
        <path class="cls-18" d="M357.42,394.54c0-.37.33-.67.73-.67s.73.3.73.67-.33.67-.73.67-.73-.3-.73-.67ZM357.63,396.29h1.03v6.47h-1.03v-6.47Z"/>
        <path class="cls-18" d="M361.56,402.76h-1.03v-8.62h1.03v8.62Z"/>
        <path class="cls-18" d="M363.23,394.54c0-.37.33-.67.73-.67s.73.3.73.67-.33.67-.73.67-.73-.3-.73-.67ZM363.44,396.29h1.03v6.47h-1.03v-6.47Z"/>
        <path class="cls-18" d="M369.25,397.13h-1.43v3.77c0,.84.44.98.89.98.23,0,.37-.03.45-.05l.21.89c-.14.05-.38.12-.77.12-.87,0-1.81-.54-1.81-1.67v-4.04h-1.01v-.84h1.01v-1.55h1.03v1.55h1.43v.84Z"/>
        <path class="cls-18" d="M370.7,405.06l.26-.88c.75.19,1.21.09,1.58-.89l.19-.51-2.47-6.5h1.11l1.84,5.15h.07l1.84-5.15h1.11l-2.84,7.41c-.39,1.01-1.04,1.48-1.97,1.48-.35,0-.64-.07-.75-.12Z"/>
      </g>
      <g>
        <path class="cls-18" d="M343.1,145.81v-13.13h5.18c.99,0,1.84.18,2.54.53.7.35,1.24.85,1.61,1.49.37.64.55,1.4.55,2.27s-.19,1.62-.56,2.25c-.38.63-.92,1.11-1.63,1.44-.71.33-1.57.5-2.58.5h-3.47v-2.23h3.02c.53,0,.97-.07,1.32-.22.35-.15.61-.36.79-.65.17-.29.26-.65.26-1.08s-.09-.8-.26-1.1c-.17-.3-.44-.53-.79-.68-.35-.16-.8-.23-1.33-.23h-1.87v10.86h-2.78ZM350.19,139.83l3.26,5.98h-3.06l-3.19-5.98h2.99Z"/>
        <path class="cls-18" d="M361.21,141.61v-5.66h2.73v9.85h-2.62v-1.79h-.1c-.22.58-.59,1.04-1.11,1.39s-1.14.53-1.88.53c-.66,0-1.24-.15-1.74-.45-.5-.3-.89-.72-1.17-1.28-.28-.55-.42-1.21-.43-1.98v-6.27h2.73v5.78c0,.58.16,1.04.47,1.38.31.34.72.51,1.24.51.33,0,.64-.08.92-.23.29-.15.52-.38.7-.68s.26-.67.26-1.11Z"/>
        <path class="cls-18" d="M368.86,132.67v13.13h-2.73v-13.13h2.73Z"/>
        <path class="cls-18" d="M375.52,146c-1.01,0-1.88-.21-2.61-.62s-1.29-1-1.68-1.76c-.39-.76-.59-1.66-.59-2.7s.2-1.9.59-2.67c.39-.77.95-1.36,1.66-1.79.72-.43,1.56-.64,2.52-.64.65,0,1.26.1,1.82.31.56.21,1.05.52,1.48.93.42.42.75.94.98,1.56.23.63.35,1.36.35,2.2v.75h-8.32v-1.69h5.75c0-.39-.09-.74-.26-1.05s-.41-.54-.71-.71c-.3-.17-.65-.26-1.05-.26s-.78.1-1.1.29c-.32.19-.57.44-.75.76-.18.32-.27.67-.28,1.06v1.61c0,.49.09.91.27,1.26.18.35.44.63.77.82s.73.29,1.19.29c.3,0,.58-.04.83-.13.25-.09.47-.21.65-.38s.32-.38.41-.63l2.53.17c-.13.61-.39,1.14-.79,1.59s-.9.8-1.53,1.05c-.62.25-1.34.38-2.15.38Z"/>
        <path class="cls-18" d="M381.88,145.81v-13.13h2.78v5.79h.17l4.73-5.79h3.33l-4.87,5.88,4.93,7.25h-3.32l-3.6-5.4-1.37,1.67v3.73h-2.78Z"/>
        <path class="cls-18" d="M396.28,134.69c-.41,0-.75-.13-1.04-.4-.29-.27-.44-.59-.44-.97s.15-.71.44-.98c.29-.27.64-.41,1.04-.41s.76.13,1.05.4c.29.27.43.59.43.98s-.14.71-.43.98-.64.41-1.04.41ZM394.9,145.81v-9.85h2.73v9.85h-2.73Z"/>
        <path class="cls-18" d="M405.05,135.96v2.05h-5.93v-2.05h5.93ZM400.46,133.6h2.73v9.18c0,.25.04.45.12.59.08.14.18.24.32.29.14.06.3.08.48.08.13,0,.26-.01.38-.04.13-.02.23-.04.3-.05l.43,2.03c-.14.04-.33.09-.58.15-.25.06-.55.09-.9.11-.66.03-1.23-.06-1.73-.26-.49-.2-.88-.51-1.15-.94-.27-.42-.41-.96-.4-1.6v-9.54Z"/>
      </g>
      <g>
        <path class="cls-18" d="M351.01,162.69c-.31-1.4-1.55-2.15-2.94-2.15-1.9,0-3.38,1.42-3.38,4.04s1.49,4.04,3.38,4.04c1.39,0,2.63-.75,2.94-2.15h1.26c-.39,2.07-2.1,3.29-4.2,3.29-2.67,0-4.61-1.99-4.61-5.19s1.94-5.19,4.61-5.19c2.1,0,3.81,1.22,4.2,3.29h-1.26Z"/>
        <path class="cls-18" d="M353.77,165.88c0-2.37,1.43-3.92,3.55-3.92s3.55,1.56,3.55,3.92-1.43,3.9-3.55,3.9-3.55-1.56-3.55-3.9ZM359.66,165.88c0-1.52-.73-2.88-2.34-2.88s-2.34,1.36-2.34,2.88.73,2.86,2.34,2.86,2.34-1.34,2.34-2.86Z"/>
        <path class="cls-18" d="M363.9,169.63h-1.2v-7.57h1.16v1.18h.1c.37-.77,1.1-1.28,2.28-1.28,1.58,0,2.65.93,2.65,2.86v4.81h-1.2v-4.73c0-1.19-.68-1.89-1.79-1.89s-2,.75-2,2.07v4.55Z"/>
        <path class="cls-18" d="M370.72,165.86c0-2.39,1.37-3.9,3.34-3.9,1.53,0,2,.91,2.26,1.3h.1v-3.73h1.2v10.09h-1.16v-1.16h-.14c-.27.41-.77,1.32-2.28,1.32-1.96,0-3.32-1.52-3.32-3.92ZM376.45,165.84c0-1.7-.77-2.84-2.24-2.84s-2.28,1.24-2.28,2.84.77,2.9,2.28,2.9,2.24-1.18,2.24-2.9Z"/>
        <path class="cls-18" d="M379.74,160.01c0-.43.39-.79.86-.79s.86.35.86.79-.39.79-.86.79-.86-.35-.86-.79ZM379.99,162.06h1.2v7.57h-1.2v-7.57Z"/>
        <path class="cls-18" d="M386.79,163.04h-1.67v4.42c0,.99.51,1.14,1.04,1.14.27,0,.43-.04.53-.06l.24,1.04c-.16.06-.45.14-.9.14-1.02,0-2.12-.63-2.12-1.95v-4.73h-1.18v-.99h1.18v-1.81h1.2v1.81h1.67v.99Z"/>
        <path class="cls-18" d="M388.36,160.01c0-.43.39-.79.86-.79s.86.35.86.79-.39.79-.86.79-.86-.35-.86-.79ZM388.6,162.06h1.2v7.57h-1.2v-7.57Z"/>
        <path class="cls-18" d="M391.64,165.88c0-2.37,1.43-3.92,3.55-3.92s3.55,1.56,3.55,3.92-1.43,3.9-3.55,3.9-3.55-1.56-3.55-3.9ZM397.53,165.88c0-1.52-.73-2.88-2.34-2.88s-2.34,1.36-2.34,2.88.73,2.86,2.34,2.86,2.34-1.34,2.34-2.86Z"/>
        <path class="cls-18" d="M401.76,169.63h-1.2v-7.57h1.16v1.18h.1c.37-.77,1.1-1.28,2.28-1.28,1.58,0,2.65.93,2.65,2.86v4.81h-1.2v-4.73c0-1.19-.68-1.89-1.79-1.89s-2,.75-2,2.07v4.55Z"/>
        <path class="cls-18" d="M408.58,167.48c0-1.73,1.58-2.05,3.04-2.23,1.43-.18,2.02-.13,2.02-.69v-.04c0-.97-.55-1.54-1.65-1.54s-1.77.59-2.04,1.14l-1.14-.39c.61-1.38,1.96-1.77,3.14-1.77,1,0,2.89.28,2.89,2.68v4.99h-1.2v-1.03h-.06c-.24.49-.96,1.2-2.32,1.2-1.49,0-2.67-.85-2.67-2.33ZM413.64,166.89v-1.06c-.2.24-1.57.37-2.08.43-.94.12-1.77.39-1.77,1.28,0,.81.69,1.22,1.65,1.22,1.43,0,2.2-.93,2.2-1.87Z"/>
        <path class="cls-18" d="M418.24,169.63h-1.2v-10.09h1.2v10.09Z"/>
        <path class="cls-18" d="M421.64,169.63h-1.2v-10.09h1.2v10.09Z"/>
        <path class="cls-18" d="M423.74,172.33l.31-1.02c.88.22,1.42.11,1.85-1.04l.22-.59-2.9-7.61h1.3l2.16,6.03h.08l2.16-6.03h1.3l-3.32,8.67c-.45,1.18-1.22,1.73-2.3,1.73-.41,0-.75-.08-.88-.14Z"/>
        <path class="cls-18" d="M435.86,162.06h1.16v1.2h.14c.27-.39.73-1.3,2.26-1.3,1.98,0,3.34,1.52,3.34,3.9s-1.37,3.92-3.32,3.92c-1.51,0-2.02-.91-2.28-1.32h-.1v4h-1.2v-10.41ZM439.28,168.74c1.51,0,2.28-1.28,2.28-2.9s-.75-2.84-2.28-2.84-2.24,1.14-2.24,2.84.79,2.9,2.24,2.9Z"/>
        <path class="cls-18" d="M444.23,165.9c0-2.33,1.41-3.94,3.53-3.94,1.63,0,3.36.97,3.36,3.79v.49h-5.68c.06,1.62,1.03,2.5,2.44,2.5.94,0,1.65-.39,1.96-1.18l1.16.32c-.37,1.14-1.53,1.91-3.12,1.91-2.26,0-3.65-1.56-3.65-3.88ZM449.9,165.23c0-1.28-.84-2.23-2.14-2.23-1.38,0-2.24,1.05-2.32,2.23h4.46Z"/>
        <path class="cls-18" d="M452.95,162.06h1.16v1.14h.08c.29-.75,1.1-1.26,2.04-1.26.18,0,.49,0,.63.02v1.18c-.08-.02-.41-.08-.73-.08-1.14,0-1.98.75-1.98,1.77v4.79h-1.2v-7.57Z"/>
        <path class="cls-18" d="M462.75,164.05c-.21-.52-.64-1.08-1.69-1.08-.96,0-1.67.47-1.67,1.12,0,.58.42.88,1.35,1.1l1.16.28c1.4.33,2.08,1,2.08,2.05,0,1.31-1.24,2.27-3.06,2.27-1.6,0-2.7-.69-2.98-1.97l1.14-.28c.21.81.83,1.22,1.81,1.22,1.12,0,1.83-.53,1.83-1.18,0-.52-.37-.89-1.16-1.06l-1.3-.3c-1.44-.33-2.08-1.02-2.08-2.07,0-1.28,1.22-2.19,2.87-2.19,1.55,0,2.4.72,2.77,1.79l-1.08.3Z"/>
        <path class="cls-18" d="M465.54,160.01c0-.43.39-.79.86-.79s.86.35.86.79-.39.79-.86.79-.86-.35-.86-.79ZM465.78,162.06h1.2v7.57h-1.2v-7.57Z"/>
        <path class="cls-18" d="M473.65,164.05c-.21-.52-.64-1.08-1.69-1.08-.96,0-1.67.47-1.67,1.12,0,.58.42.88,1.35,1.1l1.16.28c1.4.33,2.08,1,2.08,2.05,0,1.31-1.24,2.27-3.06,2.27-1.6,0-2.7-.69-2.98-1.97l1.14-.28c.21.81.83,1.22,1.81,1.22,1.12,0,1.83-.53,1.83-1.18,0-.52-.37-.89-1.16-1.06l-1.3-.3c-1.44-.33-2.08-1.02-2.08-2.07,0-1.28,1.22-2.19,2.87-2.19,1.55,0,2.4.72,2.77,1.79l-1.08.3Z"/>
        <path class="cls-18" d="M480.09,163.04h-1.67v4.42c0,.99.51,1.14,1.04,1.14.26,0,.43-.04.53-.06l.24,1.04c-.16.06-.45.14-.9.14-1.02,0-2.12-.63-2.12-1.95v-4.73h-1.18v-.99h1.18v-1.81h1.2v1.81h1.67v.99Z"/>
        <path class="cls-18" d="M489.33,163.04h-1.67v4.42c0,.99.51,1.14,1.04,1.14.27,0,.43-.04.53-.06l.24,1.04c-.16.06-.45.14-.9.14-1.02,0-2.12-.63-2.12-1.95v-4.73h-1.18v-.99h1.18v-1.81h1.2v1.81h1.67v.99Z"/>
        <path class="cls-18" d="M492.51,169.63h-1.2v-10.09h1.2v3.71h.1c.37-.78,1.07-1.28,2.3-1.28,1.6,0,2.67.91,2.67,2.86v4.81h-1.2v-4.73c0-1.2-.68-1.89-1.81-1.89-1.19,0-2.06.75-2.06,2.07v4.55Z"/>
        <path class="cls-18" d="M499.41,165.9c0-2.33,1.41-3.94,3.53-3.94,1.63,0,3.36.97,3.36,3.79v.49h-5.68c.06,1.62,1.03,2.5,2.44,2.5.94,0,1.65-.39,1.96-1.18l1.16.32c-.37,1.14-1.53,1.91-3.12,1.91-2.26,0-3.65-1.56-3.65-3.88ZM505.08,165.23c0-1.28-.84-2.23-2.14-2.23-1.38,0-2.24,1.05-2.32,2.23h4.46Z"/>
        <path class="cls-18" d="M511.8,165.9c0-2.33,1.41-3.94,3.53-3.94,1.63,0,3.36.97,3.36,3.79v.49h-5.68c.06,1.62,1.03,2.5,2.44,2.5.94,0,1.65-.39,1.96-1.18l1.16.32c-.37,1.14-1.53,1.91-3.12,1.91-2.26,0-3.65-1.56-3.65-3.88ZM517.46,165.23c0-1.28-.84-2.23-2.14-2.23-1.38,0-2.24,1.05-2.32,2.23h4.46Z"/>
        <path class="cls-18" d="M521.72,169.63h-1.2v-7.57h1.16v1.18h.1c.37-.77,1.1-1.28,2.28-1.28,1.58,0,2.65.93,2.65,2.86v4.81h-1.2v-4.73c0-1.19-.68-1.89-1.79-1.89s-2,.75-2,2.07v4.55Z"/>
        <path class="cls-18" d="M532.31,163.04h-1.67v4.42c0,.99.51,1.14,1.04,1.14.27,0,.43-.04.53-.06l.24,1.04c-.16.06-.45.14-.9.14-1.02,0-2.12-.63-2.12-1.95v-4.73h-1.18v-.99h1.18v-1.81h1.2v1.81h1.67v.99Z"/>
        <path class="cls-18" d="M533.88,160.01c0-.43.39-.79.86-.79s.86.35.86.79-.39.79-.86.79-.86-.35-.86-.79ZM534.12,162.06h1.2v7.57h-1.2v-7.57Z"/>
        <path class="cls-18" d="M537.52,162.06h1.16v1.14h.08c.29-.75,1.1-1.26,2.04-1.26.18,0,.49,0,.63.02v1.18c-.08-.02-.41-.08-.73-.08-1.14,0-1.98.75-1.98,1.77v4.79h-1.2v-7.57Z"/>
        <path class="cls-18" d="M542.25,165.9c0-2.33,1.41-3.94,3.53-3.94,1.63,0,3.36.97,3.36,3.79v.49h-5.68c.06,1.62,1.03,2.5,2.44,2.5.94,0,1.65-.39,1.96-1.18l1.16.32c-.37,1.14-1.53,1.91-3.12,1.91-2.26,0-3.65-1.56-3.65-3.88ZM547.92,165.23c0-1.28-.84-2.23-2.14-2.23-1.38,0-2.24,1.05-2.32,2.23h4.46Z"/>
        <path class="cls-18" d="M343.71,180.23h1.16v1.14h.08c.29-.75,1.1-1.26,2.04-1.26.18,0,.49,0,.63.02v1.18c-.08-.02-.41-.08-.73-.08-1.14,0-1.98.75-1.98,1.77v4.79h-1.2v-7.57Z"/>
        <path class="cls-18" d="M348.43,184.08c0-2.33,1.41-3.94,3.53-3.94,1.63,0,3.36.97,3.36,3.79v.49h-5.68c.06,1.62,1.03,2.5,2.44,2.5.94,0,1.65-.39,1.96-1.18l1.16.32c-.37,1.14-1.53,1.91-3.12,1.91-2.26,0-3.65-1.56-3.65-3.88ZM354.1,183.4c0-1.28-.84-2.23-2.14-2.23-1.38,0-2.24,1.05-2.32,2.23h4.46Z"/>
        <path class="cls-18" d="M362.49,190.64v-4h-.1c-.26.41-.77,1.32-2.28,1.32-1.96,0-3.32-1.52-3.32-3.92s1.37-3.9,3.34-3.9c1.53,0,2,.91,2.26,1.3h.14v-1.2h1.16v10.41h-1.2ZM360.27,181.18c-1.53,0-2.28,1.24-2.28,2.84s.77,2.9,2.28,2.9,2.24-1.18,2.24-2.9-.77-2.84-2.24-2.84Z"/>
        <path class="cls-18" d="M370.82,180.23h1.2v7.57h-1.2v-1.28h-.08c-.37.77-1.14,1.38-2.32,1.38-1.47,0-2.53-.93-2.53-2.86v-4.81h1.2v4.73c0,1.1.71,1.81,1.71,1.81.9,0,2.02-.65,2.02-2.07v-4.48Z"/>
        <path class="cls-18" d="M373.85,184.08c0-2.33,1.41-3.94,3.53-3.94,1.63,0,3.36.97,3.36,3.79v.49h-5.68c.06,1.62,1.03,2.5,2.44,2.5.94,0,1.65-.39,1.96-1.18l1.16.32c-.37,1.14-1.53,1.91-3.12,1.91-2.26,0-3.65-1.56-3.65-3.88ZM379.52,183.4c0-1.28-.84-2.23-2.14-2.23-1.38,0-2.24,1.05-2.32,2.23h4.46Z"/>
        <path class="cls-18" d="M387.04,182.22c-.21-.52-.64-1.08-1.69-1.08-.96,0-1.67.47-1.67,1.12,0,.58.42.88,1.35,1.1l1.16.28c1.4.33,2.08,1,2.08,2.05,0,1.31-1.24,2.27-3.06,2.27-1.6,0-2.7-.69-2.98-1.97l1.14-.28c.21.81.83,1.22,1.81,1.22,1.12,0,1.83-.53,1.83-1.18,0-.52-.37-.89-1.16-1.06l-1.3-.3c-1.44-.33-2.08-1.02-2.08-2.07,0-1.28,1.22-2.19,2.87-2.19,1.55,0,2.4.72,2.77,1.79l-1.08.3Z"/>
        <path class="cls-18" d="M393.47,181.22h-1.67v4.42c0,.99.51,1.14,1.04,1.14.27,0,.43-.04.53-.06l.24,1.04c-.16.06-.45.14-.9.14-1.02,0-2.12-.63-2.12-1.95v-4.73h-1.18v-.99h1.18v-1.81h1.2v1.81h1.67v.99Z"/>
        <path class="cls-18" d="M399.64,189.32h-1.1l3.36-12.08h1.1l-3.36,12.08Z"/>
        <path class="cls-18" d="M408.46,180.23h1.16v1.14h.08c.29-.75,1.1-1.26,2.04-1.26.18,0,.49,0,.63.02v1.18c-.08-.02-.41-.08-.73-.08-1.14,0-1.98.75-1.98,1.77v4.79h-1.2v-7.57Z"/>
        <path class="cls-18" d="M413.19,184.08c0-2.33,1.41-3.94,3.53-3.94,1.63,0,3.36.97,3.36,3.79v.49h-5.68c.06,1.62,1.03,2.5,2.44,2.5.94,0,1.65-.39,1.96-1.18l1.16.32c-.37,1.14-1.53,1.91-3.12,1.91-2.26,0-3.65-1.56-3.65-3.88ZM418.86,183.4c0-1.28-.84-2.23-2.14-2.23-1.38,0-2.24,1.05-2.32,2.23h4.46Z"/>
        <path class="cls-18" d="M426.37,182.22c-.21-.52-.64-1.08-1.69-1.08-.96,0-1.67.47-1.67,1.12,0,.58.42.88,1.35,1.1l1.16.28c1.4.33,2.08,1,2.08,2.05,0,1.31-1.24,2.27-3.06,2.27-1.6,0-2.7-.69-2.98-1.97l1.14-.28c.21.81.83,1.22,1.81,1.22,1.12,0,1.83-.53,1.83-1.18,0-.52-.37-.89-1.16-1.06l-1.3-.3c-1.44-.33-2.08-1.02-2.08-2.07,0-1.28,1.22-2.19,2.87-2.19,1.55,0,2.4.72,2.77,1.79l-1.08.3Z"/>
        <path class="cls-18" d="M429.4,180.23h1.16v1.2h.14c.27-.39.73-1.3,2.26-1.3,1.98,0,3.34,1.52,3.34,3.9s-1.37,3.92-3.32,3.92c-1.51,0-2.02-.91-2.28-1.32h-.1v4h-1.2v-10.41ZM432.83,186.91c1.51,0,2.28-1.28,2.28-2.9s-.75-2.84-2.28-2.84-2.24,1.14-2.24,2.84.79,2.9,2.24,2.9Z"/>
        <path class="cls-18" d="M437.77,184.06c0-2.37,1.43-3.92,3.55-3.92s3.55,1.56,3.55,3.92-1.43,3.9-3.55,3.9-3.55-1.56-3.55-3.9ZM443.67,184.06c0-1.52-.73-2.88-2.34-2.88s-2.34,1.36-2.34,2.88.73,2.86,2.34,2.86,2.34-1.34,2.34-2.86Z"/>
        <path class="cls-18" d="M447.9,187.8h-1.2v-7.57h1.16v1.18h.1c.37-.77,1.1-1.28,2.28-1.28,1.58,0,2.65.93,2.65,2.86v4.81h-1.2v-4.73c0-1.19-.68-1.89-1.79-1.89s-2,.75-2,2.07v4.55Z"/>
        <path class="cls-18" d="M459.55,182.22c-.21-.52-.64-1.08-1.69-1.08-.96,0-1.67.47-1.67,1.12,0,.58.42.88,1.35,1.1l1.16.28c1.4.33,2.08,1,2.08,2.05,0,1.31-1.24,2.27-3.06,2.27-1.6,0-2.7-.69-2.98-1.97l1.14-.28c.21.81.83,1.22,1.81,1.22,1.12,0,1.83-.53,1.83-1.18,0-.52-.37-.89-1.16-1.06l-1.3-.3c-1.44-.33-2.08-1.02-2.08-2.07,0-1.28,1.22-2.19,2.87-2.19,1.55,0,2.4.72,2.77,1.79l-1.08.3Z"/>
        <path class="cls-18" d="M462.22,184.08c0-2.33,1.41-3.94,3.53-3.94,1.63,0,3.36.97,3.36,3.79v.49h-5.68c.06,1.62,1.03,2.5,2.44,2.5.94,0,1.65-.39,1.96-1.18l1.16.32c-.37,1.14-1.53,1.91-3.12,1.91-2.26,0-3.65-1.56-3.65-3.88ZM467.89,183.4c0-1.28-.84-2.23-2.14-2.23-1.38,0-2.24,1.05-2.32,2.23h4.46Z"/>
      </g>
      <g>
        <path class="cls-18" d="M2.37,394.52l3.03,7.16h.1l3.03-7.16h1.29v8.62h-1.01v-6.55h-.09l-2.78,6.55h-.97l-2.78-6.55h-.09v6.55h-1.01v-8.62h1.29Z"/>
        <path class="cls-18" d="M11.51,401.31c0-1.48,1.35-1.75,2.59-1.9,1.22-.15,1.72-.11,1.72-.59v-.03c0-.83-.47-1.31-1.41-1.31s-1.51.5-1.74.98l-.97-.34c.52-1.18,1.67-1.52,2.68-1.52.85,0,2.47.24,2.47,2.29v4.26h-1.03v-.88h-.05c-.21.42-.82,1.03-1.98,1.03-1.27,0-2.28-.72-2.28-1.99ZM15.83,400.8v-.91c-.17.2-1.34.32-1.77.37-.8.1-1.51.34-1.51,1.1,0,.69.59,1.04,1.41,1.04,1.22,0,1.88-.79,1.88-1.6Z"/>
        <path class="cls-18" d="M18.73,396.68h.99v1.03h.12c.23-.34.63-1.11,1.93-1.11,1.69,0,2.85,1.3,2.85,3.33s-1.17,3.35-2.84,3.35c-1.29,0-1.72-.77-1.95-1.13h-.09v3.42h-1.03v-8.89ZM21.65,402.39c1.29,0,1.95-1.1,1.95-2.48s-.64-2.43-1.95-2.43-1.91.98-1.91,2.43.68,2.48,1.91,2.48Z"/>
        <path class="cls-18" d="M26.19,396.68h.99v1.03h.12c.23-.34.63-1.11,1.93-1.11,1.69,0,2.85,1.3,2.85,3.33s-1.17,3.35-2.84,3.35c-1.29,0-1.72-.77-1.95-1.13h-.09v3.42h-1.03v-8.89ZM29.11,402.39c1.29,0,1.95-1.1,1.95-2.48s-.64-2.43-1.95-2.43-1.91.98-1.91,2.43.68,2.48,1.91,2.48Z"/>
        <path class="cls-18" d="M33.44,394.92c0-.37.33-.67.73-.67s.73.3.73.67-.33.67-.73.67-.73-.3-.73-.67ZM33.65,396.68h1.03v6.47h-1.03v-6.47Z"/>
        <path class="cls-18" d="M37.58,403.14h-1.03v-6.47h.99v1.01h.09c.31-.66.94-1.09,1.95-1.09,1.35,0,2.26.79,2.26,2.44v4.11h-1.03v-4.04c0-1.02-.58-1.62-1.53-1.62s-1.7.64-1.7,1.77v3.89Z"/>
        <path class="cls-18" d="M43.68,404.41l.82-.56c.27.36.7.98,1.91.98,1.08,0,1.86-.49,1.86-1.57v-1.31h-.09c-.23.35-.64,1.1-1.95,1.1-1.62,0-2.83-1.15-2.83-3.17s1.17-3.28,2.85-3.28c1.3,0,1.72.77,1.95,1.11h.1v-1.03h.99v6.65c0,1.67-1.29,2.38-2.89,2.38-1.49,0-2.31-.62-2.73-1.3ZM48.29,399.86c0-1.4-.66-2.38-1.91-2.38s-1.95,1.06-1.95,2.38.66,2.29,1.95,2.29,1.91-.86,1.91-2.29Z"/>
        <path class="cls-18" d="M54.89,404.44h-.94l2.87-10.33h.94l-2.87,10.33Z"/>
        <path class="cls-18" d="M65.57,401.78h.1l2.64-7.26h1.13l-3.27,8.62h-1.11l-3.27-8.62h1.13l2.64,7.26Z"/>
        <path class="cls-18" d="M70.49,394.92c0-.37.33-.67.73-.67s.73.3.73.67-.33.67-.73.67-.73-.3-.73-.67ZM70.7,396.68h1.03v6.47h-1.03v-6.47Z"/>
        <path class="cls-18" d="M77.41,398.38c-.18-.45-.55-.93-1.44-.93-.82,0-1.43.4-1.43.96,0,.5.36.75,1.15.94l.99.24c1.19.28,1.77.85,1.77,1.75,0,1.12-1.06,1.94-2.61,1.94-1.37,0-2.3-.59-2.54-1.68l.97-.24c.18.69.71,1.04,1.55,1.04.96,0,1.57-.46,1.57-1.01,0-.45-.32-.76-.99-.91l-1.11-.25c-1.23-.28-1.77-.88-1.77-1.77,0-1.1,1.04-1.87,2.45-1.87,1.32,0,2.04.61,2.37,1.53l-.92.25Z"/>
        <path class="cls-18" d="M79.79,394.92c0-.37.33-.67.73-.67s.73.3.73.67-.33.67-.73.67-.73-.3-.73-.67ZM80,396.68h1.03v6.47h-1.03v-6.47Z"/>
        <path class="cls-18" d="M83.04,394.52h1.03v3.18h.09c.23-.34.63-1.11,1.93-1.11,1.69,0,2.85,1.3,2.85,3.33s-1.17,3.35-2.84,3.35c-1.29,0-1.72-.77-1.95-1.13h-.12v.99h-.99v-8.62ZM85.96,402.39c1.29,0,1.95-1.1,1.95-2.48s-.64-2.43-1.95-2.43-1.91.98-1.91,2.43.68,2.48,1.91,2.48Z"/>
        <path class="cls-18" d="M90.29,394.92c0-.37.33-.67.73-.67s.73.3.73.67-.33.67-.73.67-.73-.3-.73-.67ZM90.5,396.68h1.03v6.47h-1.03v-6.47Z"/>
        <path class="cls-18" d="M94.43,403.14h-1.03v-8.62h1.03v8.62Z"/>
        <path class="cls-18" d="M96.1,394.92c0-.37.33-.67.73-.67s.73.3.73.67-.33.67-.73.67-.73-.3-.73-.67ZM96.31,396.68h1.03v6.47h-1.03v-6.47Z"/>
        <path class="cls-18" d="M102.12,397.52h-1.43v3.77c0,.84.43.98.89.98.23,0,.37-.03.45-.05l.21.89c-.14.05-.38.12-.77.12-.87,0-1.81-.54-1.81-1.67v-4.04h-1.01v-.84h1.01v-1.55h1.03v1.55h1.43v.84Z"/>
        <path class="cls-18" d="M103.58,405.45l.26-.88c.75.19,1.21.09,1.58-.89l.19-.51-2.47-6.5h1.11l1.84,5.15h.07l1.84-5.15h1.11l-2.84,7.41c-.39,1.01-1.04,1.48-1.97,1.48-.35,0-.64-.07-.75-.12Z"/>
        <path class="cls-18" d="M114.2,404.44h-.94l2.87-10.33h.94l-2.87,10.33Z"/>
        <path class="cls-18" d="M122.95,403.14h-1.08v-8.62h1.08v8.62Z"/>
        <path class="cls-18" d="M125.99,403.14h-1.03v-6.47h.99v1.01h.09c.31-.66.94-1.09,1.95-1.09,1.35,0,2.26.79,2.26,2.44v4.11h-1.03v-4.04c0-1.02-.58-1.62-1.53-1.62s-1.7.64-1.7,1.77v3.89Z"/>
        <path class="cls-18" d="M135.94,398.38c-.18-.45-.55-.93-1.44-.93-.82,0-1.43.4-1.43.96,0,.5.36.75,1.15.94l.99.24c1.19.28,1.77.85,1.77,1.75,0,1.12-1.06,1.94-2.61,1.94-1.37,0-2.3-.59-2.54-1.68l.97-.24c.18.69.71,1.04,1.55,1.04.96,0,1.57-.46,1.57-1.01,0-.45-.32-.76-.99-.91l-1.11-.25c-1.23-.28-1.77-.88-1.77-1.77,0-1.1,1.04-1.87,2.45-1.87,1.32,0,2.04.61,2.37,1.53l-.92.25Z"/>
        <path class="cls-18" d="M138.32,394.92c0-.37.33-.67.73-.67s.73.3.73.67-.33.67-.73.67-.73-.3-.73-.67ZM138.53,396.68h1.03v6.47h-1.03v-6.47Z"/>
        <path class="cls-18" d="M141.39,404.41l.82-.56c.27.36.7.98,1.91.98,1.08,0,1.86-.49,1.86-1.57v-1.31h-.09c-.23.35-.64,1.1-1.95,1.1-1.62,0-2.83-1.15-2.83-3.17s1.17-3.28,2.85-3.28c1.3,0,1.72.77,1.95,1.11h.1v-1.03h.99v6.65c0,1.67-1.29,2.38-2.89,2.38-1.49,0-2.31-.62-2.73-1.3ZM146,399.86c0-1.4-.66-2.38-1.91-2.38s-1.95,1.06-1.95,2.38.66,2.29,1.95,2.29,1.91-.86,1.91-2.29Z"/>
        <path class="cls-18" d="M149.92,403.14h-1.03v-8.62h1.03v3.17h.09c.31-.67.91-1.09,1.97-1.09,1.37,0,2.28.78,2.28,2.44v4.11h-1.03v-4.04c0-1.03-.58-1.62-1.55-1.62-1.01,0-1.76.64-1.76,1.77v3.89Z"/>
        <path class="cls-18" d="M159.03,397.52h-1.43v3.77c0,.84.44.98.89.98.23,0,.37-.03.45-.05l.21.89c-.14.05-.38.12-.77.12-.87,0-1.81-.54-1.81-1.67v-4.04h-1.01v-.84h1.01v-1.55h1.03v1.55h1.43v.84Z"/>
        <path class="cls-18" d="M164.26,398.38c-.18-.45-.55-.93-1.44-.93-.82,0-1.43.4-1.43.96,0,.5.36.75,1.15.94l.99.24c1.19.28,1.77.85,1.77,1.75,0,1.12-1.06,1.94-2.61,1.94-1.37,0-2.3-.59-2.54-1.68l.97-.24c.18.69.71,1.04,1.55,1.04.96,0,1.57-.46,1.57-1.01,0-.45-.32-.76-.99-.91l-1.11-.25c-1.23-.28-1.77-.88-1.77-1.77,0-1.1,1.04-1.87,2.45-1.87,1.32,0,2.04.61,2.37,1.53l-.92.25Z"/>
      </g>
      <path class="cls-21" d="M266.43,335.45c-.32-.32-.76-.52-1.25-.52s-.93.2-1.24.52h0c-.32.32-.51.76-.51,1.25s.2.93.51,1.25h0c.31.33.75.52,1.24.52s.93-.19,1.25-.51h0c.32-.32.51-.76.51-1.26s-.19-.93-.51-1.25h0ZM265.17,359.64c.49,0,.93-.2,1.25-.51h0c.32-.32.51-.77.51-1.25s-.19-.93-.51-1.25h0c-.32-.32-.76-.52-1.25-.52s-.93.2-1.24.52h0c-.32.32-.51.76-.51,1.25s.2.93.51,1.24h0c.31.32.75.52,1.24.52ZM274.8,354.28c.44-.12.83-.4,1.08-.82l.03-.06c.22-.4.25-.87.14-1.28-.12-.44-.4-.83-.82-1.07l-.03-.02c-.41-.23-.88-.28-1.32-.16-.44.11-.83.4-1.07.82-.24.42-.29.9-.18,1.34.12.44.4.83.82,1.08h0c.42.24.9.29,1.34.17ZM266.99,345.47c-.46-.46-1.1-.75-1.81-.75s-1.35.29-1.81.75c-.46.46-.75,1.1-.75,1.81s.28,1.35.75,1.82c.46.46,1.1.75,1.81.75s1.35-.29,1.81-.75c.46-.47.75-1.11.75-1.82s-.28-1.35-.75-1.81ZM265.97,342.46c1.03.17,1.95.66,2.66,1.37h0c.11.11.22.24.32.36l1.76-1.02c-.24-.72-.25-1.47-.06-2.17.25-.94.86-1.78,1.78-2.31l.03-.02c.9-.51,1.93-.62,2.86-.37.94.25,1.79.86,2.32,1.78h0c.53.91.63,1.95.38,2.89-.25.94-.86,1.79-1.78,2.31l-.24.14h-.02c-.85.4-1.77.47-2.63.24-.7-.19-1.34-.58-1.85-1.13l-1.76,1.02c.2.54.31,1.11.31,1.72s-.11,1.19-.31,1.73l1.76,1.01c.5-.56,1.15-.95,1.85-1.13.94-.26,1.98-.15,2.89.38l.06.03h0c.88.54,1.47,1.36,1.72,2.29.25.93.14,1.98-.38,2.89l-.03.06h0c-.53.87-1.36,1.47-2.28,1.72-.94.25-1.98.14-2.89-.38h0c-.91-.54-1.52-1.38-1.78-2.32-.19-.7-.18-1.45.06-2.17l-1.76-1.02c-.1.12-.21.24-.32.35h0c-.71.71-1.63,1.21-2.66,1.37v2.04c.73.15,1.39.52,1.9,1.03h0c.69.69,1.12,1.65,1.12,2.7s-.43,2-1.12,2.69h0c-.69.7-1.65,1.13-2.7,1.13s-2-.43-2.69-1.12h0c-.69-.7-1.12-1.65-1.12-2.7s.43-2.01,1.12-2.69h0s0,0,0,0c.51-.51,1.17-.88,1.9-1.03v-2.04c-1.03-.16-1.95-.66-2.65-1.36h0c-.88-.89-1.43-2.11-1.43-3.45s.55-2.56,1.43-3.45h0c.7-.71,1.63-1.2,2.65-1.37v-2.03c-.73-.16-1.39-.52-1.9-1.04h0c-.69-.7-1.12-1.65-1.12-2.7s.43-2,1.12-2.69h0c.69-.69,1.65-1.12,2.69-1.12s2,.43,2.7,1.12h0s0,0,0,0c.69.69,1.12,1.65,1.12,2.69s-.43,2-1.12,2.69h0c-.51.52-1.17.88-1.9,1.04v2.03ZM275.88,341.11l-.02-.02c-.24-.41-.63-.68-1.06-.8-.44-.12-.92-.07-1.35.18h0c-.42.24-.71.63-.83,1.07-.12.44-.07.92.18,1.34h0c.24.43.63.71,1.07.82.44.12.92.07,1.34-.17h.02c.41-.26.69-.65.8-1.07.12-.44.07-.92-.17-1.34Z"/>
      <path class="cls-19" d="M297.62,337.32c0,.38-.08.73-.24,1.06-.16.32-.39.6-.67.82-.29.23-.63.4-1.03.53-.4.13-.84.19-1.31.19-.57,0-1.08-.08-1.52-.23-.45-.15-.9-.41-1.35-.77l.75-1.21c.36.3.68.52.97.66.29.14.58.21.88.21.37,0,.67-.09.89-.29.23-.19.34-.45.34-.77,0-.14-.02-.27-.06-.39-.04-.12-.12-.25-.22-.38-.11-.13-.26-.27-.45-.42-.19-.15-.43-.34-.74-.55-.23-.16-.46-.33-.67-.5-.22-.17-.42-.36-.6-.55-.18-.2-.32-.42-.43-.66-.11-.24-.17-.52-.17-.83,0-.36.08-.69.22-.98s.35-.55.61-.76c.26-.21.57-.37.93-.49.36-.12.75-.17,1.18-.17.45,0,.88.06,1.3.18.42.12.81.3,1.17.53l-.67,1.09c-.46-.32-.95-.49-1.46-.49-.31,0-.57.08-.77.24s-.3.36-.3.61c0,.23.09.44.27.63.18.19.49.44.92.78.44.32.81.61,1.09.85.29.24.52.47.69.69.17.21.28.43.35.65.07.23.1.47.1.74h0ZM305.28,335.28c0,.34-.04.7-.11,1.09-.07.39-.19.75-.36,1.08-.17.33-.39.6-.66.81-.27.21-.62.32-1.04.32-.7,0-1.25-.28-1.65-.84-.4-.55-.6-1.32-.6-2.29s.2-1.78.61-2.37c.41-.59.96-.88,1.66-.88s1.18.28,1.57.82c.38.55.58,1.3.58,2.25h0ZM307.7,335.19c0-.65-.09-1.24-.28-1.77-.19-.53-.45-.99-.79-1.37-.34-.38-.75-.68-1.22-.89s-.99-.32-1.55-.32c-.63,0-1.17.12-1.65.35-.47.24-.92.61-1.32,1.12v-1.27h-2.24v13.01h2.22v-5.49c.22.25.43.47.63.64.2.17.41.32.62.42.21.11.43.19.66.23.23.04.48.07.75.07.59,0,1.14-.12,1.65-.35.51-.24.95-.57,1.32-1,.37-.43.66-.93.87-1.5.21-.57.32-1.2.32-1.88h0ZM308.69,339.71h2.29v-12.73h-2.29v12.73ZM320.73,339.72v-8.69h-2.29v4.67c0,.42-.02.74-.05.97-.04.23-.09.43-.17.62-.32.72-.92,1.08-1.78,1.08-.67,0-1.14-.24-1.41-.73-.11-.18-.18-.39-.22-.63-.04-.23-.06-.57-.06-1.01v-4.97h-2.29v4.94c0,.34,0,.62,0,.85,0,.23.02.44.04.62.02.18.05.34.08.48.03.14.07.27.13.4.21.53.55.93,1.01,1.21.47.27,1.05.41,1.72.41.61,0,1.15-.11,1.62-.32s.92-.56,1.35-1.05v1.16s2.3,0,2.3,0h0ZM330.59,339.71v-4.93c0-.34,0-.62,0-.86,0-.24-.02-.44-.04-.62-.02-.17-.05-.33-.08-.46-.04-.13-.08-.26-.12-.39-.21-.52-.55-.92-1.01-1.2s-1.05-.42-1.73-.42c-.61,0-1.15.11-1.62.32s-.92.57-1.35,1.05v-1.16h-2.31v8.67h2.3v-4.68c0-.4.01-.72.04-.94.03-.22.08-.43.17-.64.15-.35.38-.61.69-.79s.67-.27,1.1-.27c.67,0,1.14.24,1.41.73.1.18.17.39.21.62.04.23.06.57.06,1.01v4.94h2.28s0,0,0,0ZM340.05,339.14l-3.48-4.33,2.94-3.16-1.73-.75-3.06,3.56h-.24v-7.47h-2.3v12.73h2.3v-4.61l3.45,4.78,2.13-.75h0ZM348.96,336.03v-1.42l-6.93-3.48v1.56l5.37,2.62-5.37,2.65v1.53l6.93-3.46h0Z"/>
      <path class="cls-19" d="M301.82,361.09c0,.22.02.44.08.65.07.18.15.36.23.52.03.05.05.11.05.17,0,.09-.06.17-.14.22l-.46.3c-.06.04-.12.07-.19.07-.08,0-.16-.04-.22-.1-.09-.1-.19-.22-.26-.34s-.15-.26-.22-.43c-.57.67-1.28,1-2.13,1-.61,0-1.1-.17-1.45-.52s-.54-.81-.54-1.39c0-.62.22-1.12.66-1.5s1.03-.57,1.78-.57c.25,0,.52.02.77.06.27.04.54.09.83.16v-.53c0-.55-.12-.94-.34-1.16s-.62-.33-1.18-.33c-.26,0-.53.03-.78.09-.27.07-.53.15-.78.25-.08.04-.17.07-.25.09-.04.01-.08.02-.12.02-.1,0-.15-.07-.15-.22v-.36c0-.09.01-.17.05-.25.06-.07.12-.12.2-.15.29-.15.6-.25.91-.33.37-.09.75-.14,1.13-.14.86,0,1.5.2,1.9.59.41.39.6.99.6,1.79v2.35h.01ZM298.88,362.2c.25,0,.51-.04.75-.13.27-.09.5-.25.69-.46.12-.13.2-.29.25-.46.05-.2.07-.42.07-.63v-.3c-.22-.05-.44-.09-.67-.12-.22-.03-.46-.04-.68-.04-.49,0-.84.09-1.08.29s-.36.47-.36.83c0,.34.09.6.27.77.18.17.43.27.76.27h0ZM304.7,362.98c-.09,0-.2-.01-.28-.07-.07-.08-.13-.17-.15-.28l-1.71-5.61c-.04-.09-.06-.19-.07-.29,0-.09.05-.17.14-.18h.75c.14,0,.23.02.28.07.05.05.1.15.15.28l1.21,4.8,1.13-4.8c.04-.15.08-.24.14-.28.09-.05.19-.08.29-.07h.58c.14,0,.23.02.29.07.07.08.12.17.14.28l1.15,4.86,1.26-4.86c.02-.11.07-.2.15-.28.09-.05.18-.08.28-.07h.67c.09-.01.17.05.18.14v.04s0,.08-.01.12c-.01.07-.03.12-.05.18l-1.75,5.61c-.04.15-.09.24-.15.28-.08.05-.18.08-.28.07h-.62c-.14,0-.23-.02-.29-.07-.07-.08-.12-.18-.14-.29l-1.12-4.68-1.12,4.67c-.01.11-.07.21-.14.29-.09.06-.19.08-.29.07h-.62ZM314.03,363.17c-.38,0-.75-.04-1.12-.13-.36-.09-.65-.18-.83-.29-.09-.04-.17-.12-.22-.2-.03-.07-.04-.13-.04-.2v-.37c0-.15.06-.22.17-.22.04,0,.09,0,.13.02.04.01.11.04.18.07.25.12.52.2.8.25.28.06.57.09.86.09.46,0,.81-.08,1.06-.24.24-.15.38-.41.38-.69,0-.19-.07-.37-.2-.51-.13-.14-.38-.26-.73-.38l-1.05-.33c-.53-.17-.92-.41-1.16-.74-.23-.3-.36-.67-.36-1.05,0-.28.06-.56.2-.81.13-.23.3-.44.52-.6.22-.17.48-.3.75-.38.3-.09.6-.13.91-.12.16,0,.33,0,.49.03.17.02.32.05.47.08s.28.07.41.12c.11.04.21.08.3.13.09.04.16.1.22.18.05.07.07.15.07.24v.34c0,.15-.06.23-.17.23-.09-.01-.19-.04-.28-.09-.44-.2-.91-.29-1.39-.28-.41,0-.74.07-.97.2s-.34.35-.34.65c0,.2.07.38.22.52.15.14.41.28.8.4l1.03.33c.52.17.9.4,1.12.7.22.29.34.65.33,1.02,0,.29-.06.58-.19.84-.13.25-.31.46-.53.64-.24.19-.52.33-.81.41-.33.1-.68.15-1.04.15h0Z"/>
      <path class="cls-19" d="M315.4,366.7c-2.39,1.76-5.86,2.7-8.84,2.7-4.18,0-7.95-1.55-10.79-4.12-.22-.2-.02-.48.25-.32,3.08,1.79,6.87,2.87,10.8,2.87,2.83-.01,5.63-.59,8.24-1.68.4-.18.74.26.35.55h0Z"/>
      <path class="cls-19" d="M316.39,365.57c-.3-.39-2.02-.19-2.79-.09-.23.03-.27-.17-.06-.33,1.36-.96,3.61-.68,3.87-.36s-.07,2.57-1.35,3.64c-.2.17-.38.08-.3-.14.29-.72.94-2.34.63-2.72Z"/>
      <path class="cls-19" d="M326.17,364.66c.13.26.32.48.56.65.25.17.52.3.82.36.31.08.63.12.96.12.25,0,.48-.03.73-.05.25-.04.49-.1.73-.22.22-.1.41-.26.56-.44.16-.21.23-.45.22-.71.01-.29-.1-.56-.3-.75-.22-.21-.49-.36-.78-.48-.35-.14-.71-.25-1.09-.34-.4-.09-.82-.21-1.23-.32-.43-.1-.84-.23-1.26-.39-.39-.14-.76-.35-1.09-.61-.32-.25-.58-.56-.78-.92-.21-.41-.31-.87-.3-1.33-.01-.53.12-1.06.39-1.53.25-.43.58-.8.98-1.09.41-.3.88-.51,1.37-.65.51-.14,1.02-.21,1.54-.21.58,0,1.15.06,1.72.19.53.12,1.02.34,1.46.65.43.3.78.69,1.02,1.14.26.52.39,1.1.38,1.68h-2.44c-.01-.3-.09-.58-.22-.84-.12-.22-.29-.4-.49-.53-.22-.13-.45-.22-.7-.27-.29-.05-.57-.08-.86-.08-.21,0-.41.03-.61.06s-.39.12-.56.22-.3.25-.4.4c-.12.18-.17.39-.16.61-.01.19.04.38.13.54.13.18.3.31.51.39.34.14.69.26,1.04.35.44.12,1.02.27,1.74.45.21.04.51.12.89.23.4.12.78.3,1.13.53.39.26.73.58.97.97.27.41.41.93.41,1.58,0,.51-.1,1-.31,1.46-.21.45-.52.86-.91,1.17-.44.35-.95.61-1.49.76-.67.19-1.36.29-2.06.27-.62,0-1.23-.08-1.84-.23-.57-.14-1.1-.39-1.57-.74-.45-.34-.83-.76-1.09-1.27-.29-.57-.41-1.19-.39-1.83h2.44c-.01.38.06.71.21,1.02h0ZM337.98,360.79c.27-.01.53-.08.78-.18.23-.09.44-.25.6-.44.17-.22.25-.49.23-.76,0-.48-.16-.86-.48-1.1-.31-.26-.7-.39-1.1-.39-.58,0-1.01.19-1.31.57-.31.41-.45.92-.43,1.44h-2.16c.01-.54.12-1.08.31-1.58.18-.45.44-.88.79-1.23.35-.35.75-.62,1.2-.79.51-.19,1.04-.29,1.57-.29.45,0,.91.06,1.35.19s.84.34,1.2.6c.35.26.65.6.87.97.23.4.35.87.34,1.33.01.51-.13,1.01-.39,1.44-.27.43-.69.73-1.18.86v.04c.57.12,1.09.43,1.45.89.36.48.54,1.06.53,1.65.01.54-.1,1.09-.34,1.57-.22.45-.53.84-.92,1.15-.4.31-.84.56-1.33.7-.51.16-1.04.25-1.57.25-.58.01-1.17-.09-1.72-.27-.49-.17-.95-.44-1.32-.79-.38-.36-.66-.79-.84-1.28-.21-.56-.3-1.14-.29-1.74h2.16c.01.29.05.58.14.86.08.26.21.49.38.71.17.19.36.36.6.47.27.13.56.18.86.18.48.01.95-.16,1.3-.47s.53-.75.53-1.3c0-.43-.08-.75-.25-.97-.16-.22-.38-.39-.63-.49-.27-.1-.56-.16-.84-.17-.31-.01-.6-.03-.87-.03v-1.59c.26.03.53.03.79,0h0ZM320.52,355.27h.51v12.77h-.51v-12.77Z"/>
      <g>
        <g>
          <path class="cls-16" d="M272.07,128.34c4.87,0,8.04,2.75,11.6,2.75"/>
          <path class="cls-3" d="M295.26,128.34c-4.87,0-8.04,2.75-11.6,2.75s-6.72-2.75-11.6-2.75-8.04,2.75-11.6,2.75-6.72-2.75-11.6-2.75c-5.67,0-10.27,4.6-10.27,10.27s4.6,10.27,10.27,10.27c4.87,0,8.04-2.75,11.6-2.75s6.72,2.75,11.6,2.75c2.82,0,5.07-.92,7.15-1.7l4.45-1.06c3.56,0,6.72,2.75,11.6,2.75,5.67,0,10.27-4.6,10.27-10.27s-4.6-10.27-10.27-10.27Z"/>
          <circle class="cls-20" cx="248.83" cy="138.61" r="5.27"/>
          <line class="cls-9" x1="268.34" y1="136.2" x2="268.34" y2="139.51"/>
          <line class="cls-9" x1="268.34" y1="141.7" x2="268.34" y2="141.7"/>
          <line class="cls-9" x1="272.07" y1="140.42" x2="275.38" y2="140.42"/>
          <line class="cls-9" x1="272.07" y1="137.74" x2="275.38" y2="137.74"/>
        </g>
        <polygon class="cls-18" points="295.31 133.19 290.06 142.28 300.56 142.28 295.31 133.19"/>
      </g>
      <line class="cls-12" x1="176.05" y1="111.72" x2="180.63" y2="111.72"/>
      <line class="cls-12" x1="188.33" y1="111.72" x2="192.91" y2="111.72"/>
      <line class="cls-12" x1="180.63" y1="106.08" x2="188.33" y2="106.08"/>
      <polyline class="cls-10" points="197.63 107.64 217.45 107.64 241.4 131.58"/>
      <g>
        <path class="cls-22" d="M67.14,352.32l1.95,2.45h-2.69l-1.1-1.35c-.73.28-1.54.42-2.39.42-3.64,0-6.4-2.57-6.4-7.01s2.75-7.01,6.4-7.01,6.39,2.55,6.39,7.01c0,2.43-.83,4.3-2.16,5.49ZM64.36,348.9l1.01,1.3c.63-.75,1-1.89,1-3.38,0-2.89-1.37-4.46-3.47-4.46s-3.47,1.57-3.47,4.46,1.37,4.46,3.47,4.46c.26,0,.51-.03.75-.07l-1.75-2.31h2.45Z"/>
        <path class="cls-22" d="M71.38,343.41h2.8v1.72h.13c.38-.83,1.2-1.85,2.91-1.85,2.25,0,4.15,1.75,4.15,5.27s-1.82,5.27-4.15,5.27c-1.65,0-2.51-.95-2.91-1.81h-.09v5.48h-2.84v-14.08ZM76.32,351.56c1.39,0,2.15-1.24,2.15-3.03s-.75-2.99-2.15-2.99-2.15,1.17-2.15,2.99.79,3.03,2.15,3.03Z"/>
        <path class="cls-22" d="M82.84,348.57c0-3.17,1.93-5.29,5.04-5.29s5.04,2.12,5.04,5.29-1.93,5.28-5.04,5.28-5.04-2.13-5.04-5.28ZM90.03,348.55c0-1.79-.73-3.11-2.14-3.11s-2.17,1.32-2.17,3.11.73,3.1,2.17,3.1,2.14-1.31,2.14-3.1Z"/>
        <path class="cls-22" d="M94.66,340.65c0-.79.69-1.43,1.53-1.43s1.54.65,1.54,1.43-.69,1.44-1.54,1.44-1.53-.65-1.53-1.44ZM94.77,343.41h2.84v10.24h-2.84v-10.24Z"/>
        <path class="cls-22" d="M102.71,353.65h-2.84v-10.24h2.71v1.81h.12c.46-1.19,1.56-1.94,3.08-1.94,2.13,0,3.53,1.47,3.53,3.85v6.52h-2.84v-6.01c0-1.25-.68-2-1.82-2s-1.93.77-1.94,2.09v5.92Z"/>
        <path class="cls-22" d="M116.99,345.54h-1.93v4.96c0,.79.39,1,.96,1,.27,0,.57-.07.71-.09l.45,2.11c-.29.09-.81.24-1.54.27-2.06.09-3.43-.91-3.41-2.91v-5.33h-1.4v-2.13h1.4v-2.45h2.84v2.45h1.93v2.13Z"/>
      </g>
      <g>
        <path class="cls-22" d="M48.43,360.53c-.28,0-.55-.11-.77-.32l-.7-.7c-.42-.42-.42-1.11,0-1.53.42-.42,1.11-.42,1.53,0l.7.7c.42.42.42,1.11,0,1.53-.21.21-.49.32-.77.32Z"/>
        <path class="cls-22" d="M34.33,330.16c-8.38,0-15.18,6.8-15.18,15.18s6.8,15.18,15.18,15.18,15.18-6.8,15.18-15.18-6.8-15.18-15.18-15.18ZM42.75,353.94c-.25.25-.58.38-.91.38s-.66-.13-.91-.38l-3.76-3.76c-.5-.5-.5-1.32,0-1.83.5-.5,1.32-.5,1.83,0l3.76,3.76c.5.5.5,1.32,0,1.83Z"/>
      </g>
    </g>
  </g>
</svg>