<?xml version="1.0" encoding="UTF-8"?>
<svg id="Layer_2" data-name="Layer 2" xmlns="http://www.w3.org/2000/svg" viewBox="0 0 699.22 446.3">
  <defs>
    <style>
      .cls-1, .cls-2, .cls-3, .cls-4, .cls-5, .cls-6, .cls-7, .cls-8, .cls-9, .cls-10, .cls-11, .cls-12 {
        stroke-miterlimit: 10;
      }

      .cls-1, .cls-2, .cls-4, .cls-5, .cls-6, .cls-7, .cls-8, .cls-12 {
        stroke-width: 2.22px;
      }

      .cls-1, .cls-3, .cls-4, .cls-5, .cls-7, .cls-13, .cls-8, .cls-9, .cls-10, .cls-14, .cls-11, .cls-12 {
        fill: none;
      }

      .cls-1, .cls-4, .cls-13, .cls-8, .cls-9 {
        stroke-linecap: round;
      }

      .cls-1, .cls-4, .cls-8 {
        stroke-dasharray: 3.33 6.66;
      }

      .cls-1, .cls-11, .cls-12 {
        stroke: #fff;
      }

      .cls-2, .cls-5 {
        stroke: #e3cfff;
      }

      .cls-2, .cls-6, .cls-15, .cls-16 {
        fill: #9b5cf2;
      }

      .cls-17 {
        fill: #363636;
      }

      .cls-3 {
        stroke-width: .46px;
      }

      .cls-3, .cls-10 {
        stroke: #a678ff;
      }

      .cls-18 {
        fill: #dfc7ff;
      }

      .cls-19 {
        fill: #0c1724;
      }

      .cls-4 {
        stroke: #9b5cf2;
      }

      .cls-6 {
        stroke: #bd96f2;
      }

      .cls-20 {
        fill: #b078ff;
      }

      .cls-21 {
        fill: #fff;
      }

      .cls-7 {
        stroke: #bba5ff;
      }

      .cls-22 {
        fill: #ac7bf2;
      }

      .cls-23 {
        fill: #1a1919;
      }

      .cls-24 {
        fill: #a361ff;
      }

      .cls-25 {
        fill: #e3cfff;
      }

      .cls-26 {
        fill: #bba5ff;
      }

      .cls-13, .cls-14 {
        stroke: #ab86f6;
        stroke-linejoin: round;
        stroke-width: 2.56px;
      }

      .cls-8 {
        stroke: #311d4d;
      }

      .cls-9 {
        stroke: #ff4747;
        stroke-width: 1.38px;
      }

      .cls-10 {
        stroke-width: .37px;
      }

      .cls-16 {
        opacity: .58;
      }

      .cls-27 {
        fill: #bc8cff;
      }

      .cls-11 {
        stroke-width: 2.24px;
      }
    </style>
  </defs>
  <g id="main">
    <g>
      <path class="cls-15" d="M687.2,446.3H10.77C4.82,446.3,0,441.48,0,435.54V10.77c0-5.95,4.82-10.77,10.77-10.77h677.69c5.96,0,10.78,4.84,10.77,10.8l-1.26,424.77c-.02,5.93-4.83,10.74-10.77,10.74Z"/>
      <g>
        <rect class="cls-20" x="184.78" y="345.53" width="66.44" height="26.54" rx="11.96" ry="11.96"/>
        <path d="M40.42,35.27h279.09c13.16,0,23.84,10.68,23.84,23.84v138.1c0,13.16-10.68,23.84-23.84,23.84H123.69c-45.96,0-83.27-37.31-83.27-83.27V35.27h0Z"/>
        <circle class="cls-4" cx="211.57" cy="107.3" r="16.05"/>
        <g>
          <line class="cls-11" x1="112" y1="108.02" x2="555.8" y2="108.02"/>
          <polygon class="cls-21" points="548.37 117.18 546.85 115.54 554.94 108.02 546.85 100.5 548.37 98.86 558.23 108.02 548.37 117.18"/>
        </g>
        <polygon points="654.86 130.4 654.86 83.85 614.55 60.57 574.23 83.85 574.23 130.4 614.55 153.68 654.86 130.4"/>
        <circle class="cls-1" cx="211.57" cy="107.3" r="11.21"/>
        <rect class="cls-21" x="273.43" y="93.86" width="240.37" height="26.89" rx="12.11" ry="12.11"/>
        <g>
          <path class="cls-27" d="M60.84,49.73c-1.09,0-1.7.5-1.7,1.18-.02.76.75,1.1,1.67,1.31l.95.23c1.84.41,3.16,1.35,3.17,3.1,0,1.93-1.52,3.17-4.1,3.17s-4.2-1.18-4.26-3.47h2.16c.07,1.06.91,1.59,2.07,1.59s1.87-.53,1.87-1.3c0-.71-.64-1.04-1.79-1.32l-1.15-.29c-1.79-.43-2.88-1.32-2.88-2.88-.01-1.92,1.69-3.2,4-3.2s3.9,1.3,3.93,3.18h-2.14c-.08-.83-.74-1.32-1.81-1.32Z"/>
          <path class="cls-27" d="M66.06,54.65c0-2.44,1.51-4.1,3.84-4.1,2.09,0,3.72,1.33,3.72,4.02v.6h-5.39c0,1.19.7,1.91,1.79,1.91.73,0,1.3-.31,1.52-.92l2.03.13c-.31,1.47-1.63,2.42-3.59,2.42-2.44,0-3.93-1.57-3.93-4.08ZM71.55,53.81c0-.94-.67-1.62-1.62-1.62s-1.66.72-1.71,1.62h3.33Z"/>
          <path class="cls-27" d="M75.05,50.65h2.13v1.38h.08c.29-.98,1.02-1.5,1.9-1.5.22,0,.5.03.69.08v1.95c-.21-.07-.62-.12-.93-.12-.97,0-1.68.67-1.68,1.65v4.48h-2.2v-7.92Z"/>
          <path class="cls-27" d="M85.84,58.57h-2.48l-2.77-7.92h2.32l1.65,5.67h.08l1.64-5.67h2.33l-2.77,7.92Z"/>
          <path class="cls-27" d="M89.14,54.65c0-2.44,1.51-4.1,3.84-4.1,2.09,0,3.72,1.33,3.72,4.02v.6h-5.39c0,1.19.7,1.91,1.79,1.91.73,0,1.3-.31,1.52-.92l2.03.13c-.31,1.47-1.63,2.42-3.59,2.42-2.44,0-3.93-1.57-3.93-4.08ZM94.64,53.81c0-.94-.67-1.62-1.62-1.62s-1.66.72-1.71,1.62h3.33Z"/>
          <path class="cls-27" d="M98.13,50.65h2.13v1.38h.08c.29-.98,1.02-1.5,1.9-1.5.22,0,.5.03.69.08v1.95c-.21-.07-.62-.12-.93-.12-.97,0-1.68.67-1.68,1.65v4.48h-2.2v-7.92Z"/>
        </g>
        <g>
          <path class="cls-18" d="M590.18,97.27h5.75v1.49h-3.95v2.03h3.65v1.49h-3.65v2.04h3.96v1.49h-5.77v-8.53Z"/>
          <path class="cls-18" d="M599.99,101.64l1.2-2.24h1.82l-1.85,3.2,1.9,3.2h-1.81l-1.26-2.21-1.24,2.21h-1.83l1.9-3.2-1.83-3.2h1.83l1.17,2.24Z"/>
          <path class="cls-18" d="M607.46,100.73h-1.2v3.1c0,.49.25.62.6.62.17,0,.35-.04.44-.06l.28,1.32c-.18.06-.5.15-.96.17-1.29.05-2.14-.57-2.13-1.82v-3.33h-.88v-1.33h.88v-1.53h1.77v1.53h1.2v1.33Z"/>
          <path class="cls-18" d="M608.29,102.63c0-1.97,1.22-3.31,3.1-3.31,1.69,0,3.01,1.07,3.01,3.25v.49h-4.36c0,.96.56,1.54,1.45,1.54.59,0,1.05-.25,1.23-.74l1.64.11c-.25,1.19-1.32,1.96-2.9,1.96-1.97,0-3.17-1.27-3.17-3.29ZM612.73,101.96c0-.76-.54-1.31-1.31-1.31s-1.34.58-1.38,1.31h2.69Z"/>
          <path class="cls-18" d="M615.55,99.4h1.72v1.12h.07c.23-.79.82-1.21,1.54-1.21.18,0,.4.03.56.06v1.58c-.17-.05-.5-.1-.75-.1-.78,0-1.36.54-1.36,1.33v3.62h-1.77v-6.4Z"/>
          <path class="cls-18" d="M622.11,105.8h-1.77v-6.4h1.69v1.13h.08c.29-.75.97-1.21,1.92-1.21,1.33,0,2.21.92,2.21,2.41v4.07h-1.77v-3.76c0-.78-.42-1.25-1.14-1.25s-1.21.48-1.21,1.31v3.7Z"/>
          <path class="cls-18" d="M627.33,104.01c0-1.43,1.14-1.85,2.4-1.97,1.11-.11,1.55-.16,1.55-.57v-.03c0-.52-.35-.83-.95-.83-.64,0-1.02.31-1.14.74l-1.64-.13c.25-1.17,1.25-1.9,2.79-1.9,1.42,0,2.72.64,2.72,2.17v4.32h-1.68v-.89h-.05c-.31.6-.92,1.01-1.87,1.01-1.22,0-2.12-.64-2.12-1.91ZM631.29,103.51v-.68c-.21.14-.85.23-1.23.29-.62.09-1.04.33-1.04.83s.39.74.94.74c.78,0,1.33-.51,1.33-1.18Z"/>
          <path class="cls-18" d="M636.2,105.8h-1.77v-8.53h1.77v8.53Z"/>
          <path class="cls-18" d="M596.64,112.72c-.88,0-1.37.4-1.37.95-.01.61.61.89,1.35,1.06l.77.18c1.48.33,2.55,1.09,2.56,2.51,0,1.56-1.23,2.56-3.31,2.56s-3.39-.95-3.44-2.8h1.75c.06.85.73,1.29,1.67,1.29s1.51-.42,1.51-1.05c0-.57-.52-.84-1.45-1.07l-.93-.23c-1.44-.35-2.33-1.07-2.32-2.32,0-1.55,1.36-2.58,3.23-2.58s3.15,1.05,3.17,2.57h-1.73c-.07-.67-.6-1.06-1.46-1.06Z"/>
          <path class="cls-18" d="M600.85,116.69c0-1.97,1.22-3.31,3.1-3.31,1.69,0,3.01,1.07,3.01,3.25v.49h-4.36c0,.96.56,1.54,1.45,1.54.59,0,1.05-.25,1.23-.74l1.64.11c-.25,1.19-1.32,1.96-2.9,1.96-1.97,0-3.17-1.27-3.17-3.29ZM605.29,116.02c0-.76-.54-1.31-1.31-1.31s-1.34.58-1.38,1.31h2.69Z"/>
          <path class="cls-18" d="M608.11,113.47h1.72v1.12h.07c.23-.79.82-1.21,1.54-1.21.18,0,.4.03.56.06v1.58c-.17-.05-.5-.1-.75-.1-.78,0-1.36.54-1.36,1.33v3.62h-1.77v-6.4Z"/>
          <path class="cls-18" d="M616.83,119.86h-2l-2.24-6.4h1.87l1.33,4.58h.07l1.33-4.58h1.88l-2.24,6.4Z"/>
          <path class="cls-18" d="M619.91,111.74c0-.49.43-.9.96-.9s.96.4.96.9-.43.9-.96.9-.96-.4-.96-.9ZM619.97,113.47h1.77v6.4h-1.77v-6.4Z"/>
          <path class="cls-18" d="M622.9,116.69c0-1.96,1.2-3.31,3.14-3.31,1.67,0,2.79.97,2.87,2.45h-1.67c-.1-.64-.51-1.07-1.16-1.07-.83,0-1.37.69-1.37,1.9s.54,1.92,1.37,1.92c.61,0,1.06-.38,1.16-1.07h1.67c-.08,1.47-1.15,2.47-2.86,2.47-1.97,0-3.15-1.35-3.15-3.3Z"/>
          <path class="cls-18" d="M629.79,116.69c0-1.97,1.22-3.31,3.1-3.31,1.69,0,3.01,1.07,3.01,3.25v.49h-4.36c0,.96.56,1.54,1.45,1.54.59,0,1.05-.25,1.23-.74l1.64.11c-.25,1.19-1.32,1.96-2.9,1.96-1.97,0-3.17-1.27-3.17-3.29ZM634.23,116.02c0-.76-.54-1.31-1.31-1.31s-1.34.58-1.38,1.31h2.69Z"/>
        </g>
        <g>
          <path d="M292.13,103.44h5.81v1.5h-3.99v2.05h3.69v1.5h-3.69v2.06h4v1.5h-5.83v-8.62Z"/>
          <path d="M306.9,112.07h-1.58l-3.75-5.43h-.06v5.43h-1.82v-8.62h1.6l3.72,5.42h.08v-5.42h1.82v8.62Z"/>
          <path d="M314.47,106.46c-.14-.95-.86-1.52-1.86-1.52-1.33,0-2.21,1.02-2.21,2.82s.89,2.82,2.2,2.82c.97,0,1.7-.53,1.87-1.45h1.84c-.2,1.6-1.53,3.07-3.74,3.07s-4.02-1.62-4.02-4.43,1.74-4.43,4.02-4.43c2,0,3.5,1.15,3.74,3.14h-1.84Z"/>
          <path d="M317.93,103.44h3.4c1.96,0,3.09,1.1,3.09,2.82,0,1.18-.54,2.03-1.53,2.46l1.83,3.35h-2.01l-1.63-3.06h-1.33v3.06h-1.82v-8.62ZM320.99,107.54c1.04,0,1.55-.43,1.55-1.28s-.51-1.33-1.56-1.33h-1.23v2.61h1.24Z"/>
          <path d="M327.19,103.44l1.97,3.71h.08l1.97-3.71h2.04l-3.15,5.58v3.05h-1.81v-3.05l-3.15-5.58h2.04Z"/>
          <path d="M334.54,103.44h3.4c1.96,0,3.09,1.21,3.09,2.92s-1.15,2.91-3.14,2.91h-1.53v2.8h-1.82v-8.62ZM337.6,107.81c1.04,0,1.55-.59,1.55-1.44s-.51-1.43-1.56-1.43h-1.23v2.88h1.24Z"/>
          <path d="M342.19,103.44h7.08v1.5h-2.64v7.12h-1.8v-7.12h-2.64v-1.5Z"/>
          <path d="M350.75,103.44h5.81v1.5h-3.99v2.05h3.69v1.5h-3.69v2.06h4v1.5h-5.83v-8.62Z"/>
          <path d="M358.31,112.07v-8.62h3.08c2.6,0,4.2,1.62,4.2,4.3s-1.59,4.32-4.22,4.32h-3.06ZM361.29,110.5c1.62,0,2.48-.83,2.48-2.76s-.86-2.74-2.47-2.74h-1.16v5.5h1.16Z"/>
          <path d="M376.05,106.46c-.14-.95-.86-1.52-1.86-1.52-1.33,0-2.21,1.02-2.21,2.82s.89,2.82,2.2,2.82c.97,0,1.7-.53,1.87-1.45h1.84c-.2,1.6-1.53,3.07-3.74,3.07s-4.02-1.62-4.02-4.43,1.74-4.43,4.02-4.43c2,0,3.5,1.15,3.74,3.14h-1.84Z"/>
          <path d="M383.39,112.18c-2.3,0-4.04-1.62-4.04-4.43s1.74-4.43,4.04-4.43,4.04,1.61,4.04,4.43-1.75,4.43-4.04,4.43ZM383.39,104.94c-1.33,0-2.19.99-2.19,2.82s.86,2.82,2.19,2.82,2.19-.99,2.19-2.82-.87-2.82-2.19-2.82Z"/>
          <path d="M396.29,112.07h-1.58l-3.75-5.43h-.06v5.43h-1.82v-8.62h1.6l3.72,5.42h.08v-5.42h1.82v8.62Z"/>
          <path d="M405.31,112.07h-1.58l-3.75-5.43h-.06v5.43h-1.82v-8.62h1.6l3.72,5.42h.08v-5.42h1.82v8.62Z"/>
          <path d="M407.11,103.44h5.81v1.5h-3.99v2.05h3.69v1.5h-3.69v2.06h4v1.5h-5.83v-8.62Z"/>
          <path d="M420.44,106.46c-.14-.95-.86-1.52-1.86-1.52-1.33,0-2.21,1.02-2.21,2.82s.89,2.82,2.2,2.82c.97,0,1.7-.53,1.87-1.45h1.84c-.2,1.6-1.53,3.07-3.74,3.07s-4.02-1.62-4.02-4.43,1.74-4.43,4.02-4.43c2,0,3.5,1.15,3.74,3.14h-1.84Z"/>
          <path d="M423.57,103.44h7.08v1.5h-2.64v7.12h-1.8v-7.12h-2.64v-1.5Z"/>
          <path d="M433.94,112.07h-1.82v-8.62h1.82v8.62Z"/>
          <path d="M439.63,112.18c-2.3,0-4.04-1.62-4.04-4.43s1.74-4.43,4.04-4.43,4.04,1.61,4.04,4.43-1.75,4.43-4.04,4.43ZM439.63,104.94c-1.33,0-2.19.99-2.19,2.82s.86,2.82,2.19,2.82,2.19-.99,2.19-2.82-.87-2.82-2.19-2.82Z"/>
          <path d="M452.53,112.07h-1.58l-3.75-5.43h-.06v5.43h-1.82v-8.62h1.6l3.72,5.42h.08v-5.42h1.82v8.62Z"/>
          <path d="M457.54,104.85c-.89,0-1.38.41-1.38.96-.01.62.61.9,1.36,1.07l.77.19c1.5.34,2.58,1.1,2.59,2.54,0,1.58-1.24,2.59-3.35,2.59s-3.43-.96-3.47-2.83h1.76c.06.86.74,1.3,1.69,1.3s1.52-.43,1.53-1.06c0-.58-.53-.85-1.47-1.08l-.94-.24c-1.46-.35-2.35-1.08-2.35-2.35,0-1.57,1.38-2.61,3.27-2.61s3.18,1.06,3.21,2.6h-1.75c-.07-.68-.6-1.07-1.47-1.07Z"/>
        </g>
        <circle class="cls-4" cx="211.57" cy="172.43" r="16.61"/>
        <circle class="cls-4" cx="211.57" cy="172.43" r="23.13"/>
        <circle class="cls-8" cx="211.57" cy="172.43" r="29.86"/>
        <g>
          <path class="cls-26" d="M67.38,150.42l3.77-10.91h2.97l3.76,10.91h-2.47l-.81-2.49h-3.94l-.81,2.49h-2.47ZM74.02,146.13l-1.34-4.13h-.08l-1.34,4.13h2.77Z"/>
          <path class="cls-26" d="M79.19,139.51h4.3c2.48,0,3.91,1.53,3.91,3.7s-1.46,3.67-3.97,3.67h-1.94v3.54h-2.31v-10.91ZM83.06,145.03c1.32,0,1.96-.75,1.96-1.83s-.64-1.81-1.98-1.81h-1.55v3.64h1.57Z"/>
          <path class="cls-26" d="M88.91,139.51h4.3c2.48,0,3.91,1.53,3.91,3.7s-1.46,3.67-3.97,3.67h-1.94v3.54h-2.31v-10.91ZM92.78,145.03c1.32,0,1.96-.75,1.96-1.83s-.64-1.81-1.98-1.81h-1.55v3.64h1.57Z"/>
          <path class="cls-26" d="M102.67,141.29c-1.13,0-1.75.52-1.75,1.22-.02.78.78,1.13,1.73,1.35l.98.23c1.9.43,3.26,1.39,3.27,3.21,0,2-1.57,3.27-4.23,3.27s-4.33-1.22-4.39-3.58h2.23c.07,1.09.94,1.65,2.13,1.65s1.93-.54,1.93-1.34c0-.73-.67-1.08-1.85-1.36l-1.19-.3c-1.84-.44-2.98-1.36-2.97-2.97-.01-1.98,1.74-3.3,4.13-3.3s4.03,1.34,4.06,3.29h-2.21c-.08-.86-.76-1.36-1.86-1.36Z"/>
        </g>
        <g>
          <path class="cls-21" d="M198.38,77.61l2.26,2.84h-3.11l-1.27-1.56c-.85.32-1.78.49-2.77.49-4.21,0-7.39-2.97-7.39-8.11s3.18-8.11,7.39-8.11,7.39,2.94,7.39,8.11c0,2.81-.96,4.97-2.5,6.35ZM195.16,73.67l1.17,1.5c.73-.87,1.16-2.19,1.16-3.91,0-3.34-1.59-5.16-4.01-5.16s-4.01,1.81-4.01,5.16,1.58,5.16,4.01,5.16c.3,0,.59-.03.86-.08l-2.02-2.67h2.84Z"/>
          <path class="cls-21" d="M204.13,77.51c0-1.01.83-1.83,1.85-1.83s1.84.83,1.85,1.83c0,1.03-.86,1.85-1.85,1.85s-1.86-.82-1.85-1.85Z"/>
          <path class="cls-21" d="M207.07,63.37h12.96v2.75h-4.83v13.03h-3.3v-13.03h-4.83v-2.75Z"/>
          <path class="cls-21" d="M219.95,75.85c0-2.64,2.1-3.43,4.45-3.64,2.06-.2,2.87-.3,2.87-1.06v-.05c0-.97-.64-1.53-1.76-1.53-1.18,0-1.88.58-2.1,1.36l-3.04-.25c.46-2.16,2.32-3.51,5.16-3.51,2.64,0,5.02,1.19,5.02,4.01v7.98h-3.11v-1.64h-.09c-.58,1.1-1.71,1.87-3.46,1.87-2.26,0-3.93-1.19-3.93-3.53ZM227.29,74.92v-1.26c-.39.26-1.56.43-2.28.53-1.16.16-1.92.62-1.92,1.54s.72,1.37,1.73,1.37c1.44,0,2.47-.95,2.47-2.19Z"/>
          <path class="cls-21" d="M233.1,67.32h3.24v1.99h.15c.44-.96,1.39-2.14,3.37-2.14,2.6,0,4.79,2.02,4.79,6.09s-2.1,6.09-4.8,6.09c-1.91,0-2.91-1.1-3.36-2.09h-.1v6.33h-3.28v-16.27ZM238.8,76.73c1.61,0,2.49-1.43,2.49-3.5s-.86-3.46-2.49-3.46-2.49,1.35-2.49,3.46.91,3.5,2.49,3.5Z"/>
        </g>
        <polyline class="cls-12" points="102.93 90.52 121.07 90.52 138.6 108.04"/>
        <polyline class="cls-12" points="102.93 125.53 112.51 125.53 130.04 108"/>
        <polygon class="cls-7" points="79.41 104.12 79.41 111.92 86.16 115.82 92.91 111.92 92.91 104.12 86.16 100.23 79.41 104.12"/>
        <polygon class="cls-7" points="60.81 104.12 60.81 111.92 67.56 115.82 74.32 111.92 74.32 104.12 67.56 100.23 60.81 104.12"/>
        <polygon class="cls-7" points="89.42 87.32 89.42 95.12 96.18 99.02 102.93 95.12 102.93 87.32 96.18 83.42 89.42 87.32"/>
        <polygon class="cls-7" points="82.9 87.32 82.9 95.12 76.14 99.02 69.39 95.12 69.39 87.32 76.14 83.42 82.9 87.32"/>
        <polygon class="cls-7" points="89.42 128.72 89.42 120.93 96.18 117.03 102.93 120.93 102.93 128.72 96.18 132.62 89.42 128.72"/>
        <polygon class="cls-7" points="69.39 128.72 69.39 120.93 76.14 117.03 82.9 120.93 82.9 128.72 76.14 132.62 69.39 128.72"/>
        <polygon class="cls-7" points="98.5 104.12 98.5 111.92 105.25 115.82 112 111.92 112 104.12 105.25 100.23 98.5 104.12"/>
        <line class="cls-6" x1="211.57" y1="165.82" x2="211.57" y2="113.09"/>
        <circle class="cls-16" cx="211.57" cy="107.3" r="6.55"/>
        <g>
          <circle class="cls-13" cx="496.52" cy="106.5" r="3.99"/>
          <polyline class="cls-14" points="478.94 112.09 478.94 106.5 492.53 106.5"/>
          <line class="cls-14" x1="483.88" y1="112.09" x2="483.88" y2="106.5"/>
          <line class="cls-14" x1="481.52" y1="108.88" x2="481.52" y2="106.5"/>
        </g>
        <g>
          <path class="cls-5" d="M203.82,178.65l-92.51,92.51c-2.73,2.73-4.26,6.43-4.26,10.3v21.36"/>
          <polygon class="cls-25" points="97.97 295.47 99.59 293.95 107.04 301.97 114.49 293.95 116.12 295.47 107.04 305.23 97.97 295.47"/>
        </g>
        <g>
          <path class="cls-5" d="M219.33,178.65l92.51,92.51c2.73,2.73,4.26,6.43,4.26,10.3v21.36"/>
          <polygon class="cls-25" points="307.03 295.47 308.65 293.95 316.1 301.97 323.55 293.95 325.18 295.47 316.1 305.23 307.03 295.47"/>
        </g>
        <circle class="cls-2" cx="211.57" cy="172.43" r="10.24"/>
        <g>
          <path class="cls-21" d="M192.84,360.55c0-1.56,1.29-1.96,2.63-2.11,1.22-.13,1.72-.15,1.72-.62v-.03c0-.68-.42-1.07-1.17-1.07-.8,0-1.26.41-1.42.88l-1.53-.22c.36-1.27,1.48-1.92,2.94-1.92,1.32,0,2.82.55,2.82,2.38v4.64h-1.57v-.95h-.05c-.3.58-.95,1.09-2.04,1.09-1.32,0-2.32-.72-2.32-2.09ZM197.2,360.01v-.82c-.21.17-1.07.28-1.5.34-.73.1-1.28.37-1.28.99s.49.91,1.17.91c.99,0,1.61-.65,1.61-1.43Z"/>
          <path class="cls-21" d="M202.11,362.5h-1.63v-6.94h1.56v1.18h.08c.32-.77,1.03-1.27,2.07-1.27,1.43,0,2.38.95,2.38,2.61v4.42h-1.64v-4.16c0-.93-.51-1.48-1.35-1.48s-1.47.58-1.47,1.58v4.07Z"/>
          <path class="cls-21" d="M207.96,359.04c0-2.31,1.26-3.57,2.86-3.57,1.22,0,1.73.74,1.98,1.24h.07v-3.46h1.64v9.25h-1.61v-1.09h-.1c-.26.51-.79,1.21-1.99,1.21-1.64,0-2.86-1.3-2.86-3.58ZM212.9,359.03c0-1.35-.58-2.22-1.63-2.22s-1.65.93-1.65,2.22.57,2.25,1.65,2.25,1.63-.9,1.63-2.25Z"/>
          <path class="cls-21" d="M220.22,363.89h-1.43l2.98-11.08h1.43l-2.98,11.08Z"/>
          <path class="cls-21" d="M227.1,359.06c0-2.15,1.29-3.59,3.32-3.59s3.32,1.44,3.32,3.59-1.29,3.58-3.32,3.58-3.32-1.43-3.32-3.58ZM232.09,359.05c0-1.27-.55-2.29-1.66-2.29s-1.68,1.02-1.68,2.29.55,2.27,1.68,2.27,1.66-1,1.66-2.27Z"/>
          <path class="cls-21" d="M235.14,355.56h1.59v1.16h.07c.25-.8.92-1.26,1.71-1.26.18,0,.44.02.59.05v1.5c-.14-.05-.48-.1-.76-.1-.9,0-1.56.62-1.56,1.5v4.08h-1.63v-6.94Z"/>
        </g>
        <path class="cls-21" d="M210.79,171.4c.5,0,.9.19,1.47.7.32.29.5.42.77.42.39,0,.67-.3.66-.92h1.13c.04,1.42-.69,2.12-1.64,2.12-.52,0-.93-.21-1.48-.69-.34-.3-.5-.42-.77-.42-.38,0-.67.26-.66.92h-1.13c-.04-1.42.67-2.13,1.64-2.13Z"/>
        <rect class="cls-21" x="259.5" y="323.16" width="137.71" height="70.92" rx="4.25" ry="4.25"/>
        <g>
          <path class="cls-21" d="M274.27,403.93h5.02v.87h-4.01v2.72h3.75v.87h-3.75v2.74h4.07v.87h-5.08v-8.06Z"/>
          <path class="cls-21" d="M283.2,408.42l1.49-2.47h1.1l-2.01,3.02,2.01,3.02h-1.1l-1.49-2.35-1.49,2.35h-1.1l1.98-3.02-1.98-3.02h1.1l1.49,2.47Z"/>
          <path class="cls-21" d="M286.98,404.31c0-.35.31-.63.68-.63s.68.28.68.63-.31.63-.68.63-.68-.28-.68-.63ZM287.17,405.94h.96v6.05h-.96v-6.05Z"/>
          <path class="cls-21" d="M293.44,407.54c-.17-.42-.51-.87-1.35-.87-.76,0-1.33.38-1.33.9,0,.46.33.7,1.07.88l.92.22c1.11.26,1.66.79,1.66,1.64,0,1.04-.99,1.81-2.44,1.81-1.27,0-2.15-.55-2.37-1.57l.91-.22c.17.65.66.98,1.45.98.89,0,1.46-.43,1.46-.95,0-.42-.3-.71-.93-.85l-1.04-.24c-1.14-.26-1.66-.82-1.66-1.65,0-1.02.97-1.75,2.29-1.75,1.23,0,1.91.58,2.21,1.43l-.86.24Z"/>
          <path class="cls-21" d="M298.58,406.73h-1.33v3.53c0,.79.41.91.83.91.21,0,.34-.03.42-.05l.2.83c-.13.05-.36.11-.71.11-.81,0-1.69-.5-1.69-1.56v-3.78h-.94v-.79h.94v-1.45h.96v1.45h1.33v.79Z"/>
          <path class="cls-21" d="M299.84,404.31c0-.35.31-.63.68-.63s.68.28.68.63-.31.63-.68.63-.68-.28-.68-.63ZM300.04,405.94h.96v6.05h-.96v-6.05Z"/>
          <path class="cls-21" d="M303.71,411.99h-.96v-6.05h.92v.94h.08c.29-.61.88-1.02,1.82-1.02,1.26,0,2.11.74,2.11,2.28v3.84h-.96v-3.78c0-.95-.54-1.51-1.43-1.51s-1.59.6-1.59,1.65v3.64Z"/>
          <path class="cls-21" d="M309.42,413.17l.76-.52c.26.33.65.91,1.79.91,1.01,0,1.74-.46,1.74-1.46v-1.23h-.08c-.21.33-.6,1.02-1.82,1.02-1.51,0-2.65-1.07-2.65-2.96s1.09-3.07,2.66-3.07c1.22,0,1.61.72,1.82,1.04h.1v-.96h.92v6.22c0,1.56-1.2,2.22-2.69,2.22-1.39,0-2.16-.58-2.55-1.21ZM313.72,408.92c0-1.31-.62-2.22-1.79-2.22s-1.82.99-1.82,2.22.62,2.14,1.82,2.14,1.79-.8,1.79-2.14Z"/>
          <path class="cls-21" d="M323.12,412.1c-2.13,0-3.67-1.59-3.67-4.14s1.54-4.14,3.67-4.14,3.67,1.59,3.67,4.14-1.54,4.14-3.67,4.14ZM323.12,404.73c-1.51,0-2.7,1.13-2.7,3.23s1.18,3.23,2.7,3.23,2.69-1.13,2.69-3.23-1.18-3.23-2.69-3.23Z"/>
          <path class="cls-21" d="M328.5,403.93h.96v2.98h.08c.21-.32.58-1.04,1.8-1.04,1.58,0,2.66,1.21,2.66,3.12s-1.09,3.13-2.65,3.13c-1.2,0-1.61-.72-1.82-1.05h-.11v.93h-.92v-8.06ZM331.22,411.28c1.2,0,1.82-1.02,1.82-2.31s-.6-2.27-1.82-2.27-1.79.91-1.79,2.27.63,2.31,1.79,2.31Z"/>
          <path class="cls-21" d="M339.03,407.54c-.17-.42-.51-.87-1.35-.87-.76,0-1.33.38-1.33.9,0,.46.33.7,1.07.88l.92.22c1.11.26,1.66.79,1.66,1.64,0,1.04-.99,1.81-2.44,1.81-1.27,0-2.15-.55-2.37-1.57l.91-.22c.17.65.66.98,1.45.98.89,0,1.46-.43,1.46-.95,0-.42-.3-.71-.93-.85l-1.04-.24c-1.14-.26-1.66-.82-1.66-1.65,0-1.02.97-1.75,2.29-1.75,1.23,0,1.91.58,2.21,1.43l-.86.24Z"/>
          <path class="cls-21" d="M341.17,409.01c0-1.86,1.12-3.15,2.81-3.15,1.3,0,2.68.77,2.68,3.02v.39h-4.53c.04,1.29.82,2,1.94,2,.75,0,1.32-.31,1.56-.94l.93.25c-.29.91-1.22,1.53-2.48,1.53-1.8,0-2.91-1.24-2.91-3.1ZM345.68,408.48c0-1.02-.67-1.78-1.7-1.78-1.1,0-1.78.84-1.85,1.78h3.55Z"/>
          <path class="cls-21" d="M348.13,405.94h.92v.91h.07c.23-.6.88-1.01,1.62-1.01.14,0,.39,0,.5.02v.95c-.07-.02-.33-.06-.58-.06-.91,0-1.57.6-1.57,1.42v3.83h-.96v-6.05Z"/>
          <path class="cls-21" d="M355.37,411.99h-.97l-2.31-6.05h1.04l1.72,4.82h.07l1.72-4.82h1.04l-2.31,6.05Z"/>
          <path class="cls-21" d="M358.47,410.27c0-1.39,1.26-1.63,2.42-1.78,1.14-.14,1.61-.1,1.61-.55v-.03c0-.78-.43-1.23-1.31-1.23s-1.41.47-1.62.91l-.91-.31c.49-1.1,1.56-1.42,2.5-1.42.79,0,2.3.22,2.3,2.14v3.98h-.96v-.82h-.05c-.2.39-.76.96-1.85.96-1.18,0-2.13-.68-2.13-1.86ZM362.5,409.8v-.85c-.16.19-1.25.3-1.66.35-.75.09-1.41.31-1.41,1.02,0,.65.55.98,1.32.98,1.14,0,1.75-.74,1.75-1.5Z"/>
          <path class="cls-21" d="M365.35,403.93h.96v2.98h.08c.21-.32.58-1.04,1.8-1.04,1.58,0,2.66,1.21,2.66,3.12s-1.09,3.13-2.65,3.13c-1.2,0-1.61-.72-1.82-1.05h-.11v.93h-.92v-8.06ZM368.08,411.28c1.2,0,1.82-1.02,1.82-2.31s-.6-2.27-1.82-2.27-1.79.91-1.79,2.27.63,2.31,1.79,2.31Z"/>
          <path class="cls-21" d="M372.13,404.31c0-.35.31-.63.68-.63s.68.28.68.63-.31.63-.68.63-.68-.28-.68-.63ZM372.33,405.94h.96v6.05h-.96v-6.05Z"/>
          <path class="cls-21" d="M376,411.99h-.96v-8.06h.96v8.06Z"/>
          <path class="cls-21" d="M377.56,404.31c0-.35.31-.63.68-.63s.68.28.68.63-.31.63-.68.63-.68-.28-.68-.63ZM377.76,405.94h.96v6.05h-.96v-6.05Z"/>
          <path class="cls-21" d="M383.18,406.73h-1.33v3.53c0,.79.41.91.83.91.21,0,.34-.03.42-.05l.2.83c-.13.05-.36.11-.71.11-.81,0-1.69-.5-1.69-1.56v-3.78h-.94v-.79h.94v-1.45h.96v1.45h1.33v.79Z"/>
          <path class="cls-21" d="M384.56,414.15l.24-.82c.7.17,1.13.09,1.48-.83l.18-.47-2.31-6.08h1.04l1.72,4.82h.07l1.72-4.82h1.04l-2.65,6.93c-.36.94-.97,1.39-1.83,1.39-.33,0-.6-.06-.7-.11Z"/>
        </g>
        <g>
          <path class="cls-21" d="M359.8,171.65v-12.28h4.85c.93,0,1.72.17,2.38.5.66.33,1.16.79,1.5,1.4.35.6.52,1.31.52,2.12s-.18,1.52-.53,2.1-.86,1.03-1.53,1.35c-.67.31-1.47.47-2.41.47h-3.25v-2.09h2.83c.5,0,.91-.07,1.24-.2.33-.14.57-.34.73-.61.16-.27.24-.61.24-1.01s-.08-.75-.24-1.03c-.16-.28-.41-.49-.74-.64-.33-.15-.75-.22-1.25-.22h-1.75v10.16h-2.6ZM366.43,166.06l3.05,5.59h-2.87l-2.99-5.59h2.8Z"/>
          <path class="cls-21" d="M376.74,167.73v-5.29h2.56v9.21h-2.45v-1.67h-.1c-.21.54-.55.97-1.03,1.3-.48.33-1.07.49-1.76.49-.62,0-1.16-.14-1.62-.42-.47-.28-.83-.68-1.09-1.19-.26-.52-.4-1.13-.4-1.85v-5.87h2.56v5.41c0,.54.15.97.44,1.29.29.32.67.47,1.16.47.31,0,.6-.07.86-.21.27-.14.49-.35.65-.63.17-.28.25-.63.24-1.04Z"/>
          <path class="cls-21" d="M383.89,159.37v12.28h-2.56v-12.28h2.56Z"/>
          <path class="cls-21" d="M390.13,171.83c-.95,0-1.76-.19-2.44-.58-.68-.39-1.21-.93-1.58-1.64-.37-.71-.55-1.55-.55-2.52s.18-1.78.55-2.5c.37-.72.89-1.27,1.56-1.67s1.46-.6,2.36-.6c.61,0,1.17.1,1.7.29.53.19.99.48,1.38.87.39.39.7.88.92,1.46s.33,1.27.33,2.05v.7h-7.78v-1.58h5.37c0-.37-.08-.69-.24-.98-.16-.28-.38-.51-.66-.67-.28-.16-.61-.24-.98-.24s-.73.09-1.03.27c-.3.18-.53.42-.7.71s-.25.63-.26.99v1.5c0,.46.08.85.25,1.18.17.33.41.59.72.77.31.18.68.27,1.11.27.28,0,.54-.04.78-.12.24-.08.44-.2.61-.36.17-.16.3-.36.38-.59l2.36.16c-.12.57-.37,1.06-.74,1.49s-.85.75-1.43.98c-.58.23-1.25.35-2.01.35Z"/>
          <path class="cls-21" d="M396.07,171.65v-12.28h2.6v5.42h.16l4.42-5.42h3.11l-4.56,5.5,4.61,6.78h-3.11l-3.37-5.05-1.28,1.56v3.49h-2.6Z"/>
          <path class="cls-21" d="M409.54,161.25c-.38,0-.71-.13-.98-.38-.27-.25-.41-.56-.41-.91s.14-.66.41-.92c.27-.25.6-.38.97-.38s.71.13.98.38c.27.25.4.56.4.91s-.13.66-.4.91c-.27.25-.59.38-.97.38ZM408.25,171.65v-9.21h2.56v9.21h-2.56Z"/>
          <path class="cls-21" d="M417.75,162.44v1.92h-5.55v-1.92h5.55ZM413.46,160.23h2.55v8.59c0,.24.04.42.11.55s.17.22.3.27c.13.05.28.08.45.08.12,0,.24-.01.36-.03.12-.02.21-.04.28-.05l.4,1.9c-.13.04-.31.09-.54.14-.23.05-.51.09-.85.1-.62.02-1.15-.06-1.62-.25-.46-.19-.82-.48-1.08-.88-.26-.4-.38-.9-.38-1.5v-8.93Z"/>
        </g>
        <g>
          <path class="cls-21" d="M367.19,187.42c-.29-1.31-1.45-2.02-2.74-2.02-1.77,0-3.16,1.33-3.16,3.79s1.39,3.79,3.16,3.79c1.29,0,2.46-.7,2.74-2.02h1.18c-.36,1.94-1.96,3.09-3.92,3.09-2.49,0-4.3-1.87-4.3-4.86s1.81-4.86,4.3-4.86c1.96,0,3.56,1.15,3.92,3.09h-1.18Z"/>
          <path class="cls-21" d="M369.78,190.42c0-2.22,1.33-3.68,3.31-3.68s3.31,1.46,3.31,3.68-1.33,3.66-3.31,3.66-3.31-1.46-3.31-3.66ZM375.28,190.42c0-1.42-.69-2.7-2.19-2.7s-2.19,1.28-2.19,2.7.69,2.68,2.19,2.68,2.19-1.26,2.19-2.68Z"/>
          <path class="cls-21" d="M379.25,193.93h-1.12v-7.1h1.09v1.11h.09c.34-.72,1.03-1.2,2.13-1.2,1.48,0,2.48.87,2.48,2.68v4.51h-1.12v-4.44c0-1.11-.63-1.78-1.68-1.78s-1.87.7-1.87,1.94v4.27Z"/>
          <path class="cls-21" d="M385.63,190.4c0-2.24,1.28-3.66,3.12-3.66,1.43,0,1.87.85,2.11,1.22h.09v-3.5h1.12v9.47h-1.09v-1.09h-.13c-.25.39-.72,1.24-2.13,1.24-1.83,0-3.1-1.42-3.1-3.68ZM390.98,190.38c0-1.59-.72-2.66-2.09-2.66s-2.13,1.17-2.13,2.66.72,2.72,2.13,2.72,2.09-1.11,2.09-2.72Z"/>
          <path class="cls-21" d="M394.07,184.91c0-.41.36-.74.8-.74s.8.33.8.74-.36.74-.8.74-.8-.33-.8-.74ZM394.3,186.83h1.12v7.1h-1.12v-7.1Z"/>
          <path class="cls-21" d="M400.66,187.76h-1.56v4.14c0,.92.48,1.07.97,1.07.25,0,.4-.04.5-.06l.23.98c-.15.06-.42.13-.84.13-.95,0-1.98-.59-1.98-1.83v-4.44h-1.1v-.92h1.1v-1.7h1.12v1.7h1.56v.92Z"/>
          <path class="cls-21" d="M402.13,184.91c0-.41.36-.74.8-.74s.8.33.8.74-.36.74-.8.74-.8-.33-.8-.74ZM402.36,186.83h1.12v7.1h-1.12v-7.1Z"/>
          <path class="cls-21" d="M405.2,190.42c0-2.22,1.33-3.68,3.31-3.68s3.31,1.46,3.31,3.68-1.33,3.66-3.31,3.66-3.31-1.46-3.31-3.66ZM410.7,190.42c0-1.42-.69-2.7-2.19-2.7s-2.19,1.28-2.19,2.7.69,2.68,2.19,2.68,2.19-1.26,2.19-2.68Z"/>
          <path class="cls-21" d="M414.67,193.93h-1.12v-7.1h1.08v1.11h.1c.34-.72,1.03-1.2,2.13-1.2,1.48,0,2.48.87,2.48,2.68v4.51h-1.12v-4.44c0-1.11-.63-1.78-1.68-1.78s-1.87.7-1.87,1.94v4.27Z"/>
          <path class="cls-21" d="M421.05,191.92c0-1.63,1.48-1.92,2.84-2.09,1.33-.17,1.88-.12,1.88-.65v-.04c0-.91-.51-1.44-1.54-1.44s-1.66.55-1.9,1.07l-1.07-.37c.57-1.29,1.83-1.67,2.93-1.67.93,0,2.7.26,2.7,2.52v4.68h-1.12v-.96h-.06c-.23.46-.9,1.13-2.17,1.13-1.39,0-2.49-.79-2.49-2.18ZM425.77,191.36v-1c-.19.22-1.47.35-1.94.41-.88.11-1.66.37-1.66,1.2,0,.76.65,1.15,1.54,1.15,1.33,0,2.06-.87,2.06-1.76Z"/>
          <path class="cls-21" d="M430.08,193.93h-1.12v-9.47h1.12v9.47Z"/>
          <path class="cls-21" d="M433.26,193.93h-1.12v-9.47h1.12v9.47Z"/>
          <path class="cls-21" d="M435.23,196.47l.29-.96c.82.2,1.32.1,1.73-.98l.21-.55-2.7-7.14h1.22l2.02,5.66h.08l2.02-5.66h1.22l-3.1,8.14c-.42,1.11-1.14,1.63-2.15,1.63-.38,0-.71-.07-.82-.13Z"/>
          <path class="cls-21" d="M446.56,186.83h1.09v1.13h.13c.25-.37.69-1.22,2.11-1.22,1.85,0,3.12,1.42,3.12,3.66s-1.28,3.68-3.1,3.68c-1.41,0-1.88-.85-2.13-1.24h-.1v3.75h-1.12v-9.76ZM449.76,193.1c1.41,0,2.13-1.2,2.13-2.72s-.71-2.66-2.13-2.66-2.09,1.07-2.09,2.66.74,2.72,2.09,2.72Z"/>
          <path class="cls-21" d="M454.39,190.44c0-2.18,1.31-3.7,3.29-3.7,1.52,0,3.14.91,3.14,3.55v.46h-5.31c.05,1.52.96,2.35,2.28,2.35.88,0,1.54-.37,1.83-1.11l1.08.3c-.34,1.07-1.43,1.79-2.91,1.79-2.11,0-3.41-1.46-3.41-3.64ZM459.69,189.81c0-1.2-.78-2.09-2-2.09-1.29,0-2.09.98-2.17,2.09h4.17Z"/>
          <path class="cls-21" d="M462.55,186.83h1.08v1.07h.08c.27-.7,1.03-1.18,1.9-1.18.17,0,.46,0,.59.02v1.11c-.08-.02-.39-.07-.69-.07-1.07,0-1.85.7-1.85,1.66v4.49h-1.12v-7.1Z"/>
          <path class="cls-21" d="M471.71,188.7c-.2-.49-.6-1.02-1.58-1.02-.9,0-1.56.44-1.56,1.05,0,.54.39.83,1.26,1.04l1.08.26c1.3.31,1.94.93,1.94,1.92,0,1.22-1.16,2.13-2.86,2.13-1.49,0-2.52-.64-2.78-1.85l1.07-.26c.2.76.78,1.15,1.69,1.15,1.05,0,1.71-.5,1.71-1.11,0-.49-.35-.83-1.09-1l-1.22-.28c-1.34-.31-1.94-.96-1.94-1.94,0-1.2,1.14-2.05,2.68-2.05,1.45,0,2.24.68,2.59,1.68l-1.01.28Z"/>
          <path class="cls-21" d="M474.32,184.91c0-.41.36-.74.8-.74s.8.33.8.74-.36.74-.8.74-.8-.33-.8-.74ZM474.55,186.83h1.12v7.1h-1.12v-7.1Z"/>
          <path class="cls-21" d="M481.9,188.7c-.19-.49-.6-1.02-1.58-1.02-.89,0-1.56.44-1.56,1.05,0,.54.39.83,1.26,1.04l1.09.26c1.3.31,1.94.93,1.94,1.92,0,1.22-1.16,2.13-2.86,2.13-1.5,0-2.52-.64-2.78-1.85l1.07-.26c.2.76.78,1.15,1.7,1.15,1.05,0,1.71-.5,1.71-1.11,0-.49-.35-.83-1.08-1l-1.22-.28c-1.34-.31-1.94-.96-1.94-1.94,0-1.2,1.14-2.05,2.69-2.05,1.45,0,2.24.68,2.59,1.68l-1.01.28Z"/>
          <path class="cls-21" d="M487.92,187.76h-1.56v4.14c0,.92.48,1.07.97,1.07.25,0,.4-.04.5-.06l.23.98c-.15.06-.42.13-.84.13-.95,0-1.98-.59-1.98-1.83v-4.44h-1.1v-.92h1.1v-1.7h1.12v1.7h1.56v.92Z"/>
          <path class="cls-21" d="M496.58,187.76h-1.56v4.14c0,.92.48,1.07.97,1.07.25,0,.4-.04.5-.06l.23.98c-.15.06-.42.13-.84.13-.95,0-1.98-.59-1.98-1.83v-4.44h-1.1v-.92h1.1v-1.7h1.12v1.7h1.56v.92Z"/>
          <path class="cls-21" d="M499.55,193.93h-1.12v-9.47h1.12v3.48h.1c.34-.74,1-1.2,2.15-1.2,1.49,0,2.49.86,2.49,2.68v4.51h-1.12v-4.44c0-1.13-.64-1.78-1.7-1.78-1.11,0-1.92.7-1.92,1.94v4.27Z"/>
          <path class="cls-21" d="M506.01,190.44c0-2.18,1.31-3.7,3.29-3.7,1.52,0,3.14.91,3.14,3.55v.46h-5.31c.05,1.52.96,2.35,2.28,2.35.88,0,1.54-.37,1.83-1.11l1.08.3c-.34,1.07-1.43,1.79-2.91,1.79-2.11,0-3.41-1.46-3.41-3.64ZM511.3,189.81c0-1.2-.78-2.09-2-2.09-1.29,0-2.09.98-2.17,2.09h4.17Z"/>
          <path class="cls-21" d="M517.59,190.44c0-2.18,1.31-3.7,3.29-3.7,1.52,0,3.14.91,3.14,3.55v.46h-5.31c.05,1.52.96,2.35,2.28,2.35.88,0,1.54-.37,1.83-1.11l1.08.3c-.34,1.07-1.43,1.79-2.91,1.79-2.11,0-3.41-1.46-3.41-3.64ZM522.89,189.81c0-1.2-.78-2.09-2-2.09-1.29,0-2.09.98-2.17,2.09h4.17Z"/>
          <path class="cls-21" d="M526.87,193.93h-1.12v-7.1h1.08v1.11h.1c.34-.72,1.03-1.2,2.13-1.2,1.48,0,2.48.87,2.48,2.68v4.51h-1.12v-4.44c0-1.11-.63-1.78-1.68-1.78s-1.87.7-1.87,1.94v4.27Z"/>
          <path class="cls-21" d="M536.78,187.76h-1.56v4.14c0,.92.48,1.07.97,1.07.25,0,.4-.04.5-.06l.23.98c-.15.06-.42.13-.84.13-.95,0-1.98-.59-1.98-1.83v-4.44h-1.1v-.92h1.1v-1.7h1.12v1.7h1.56v.92Z"/>
          <path class="cls-21" d="M538.25,184.91c0-.41.36-.74.8-.74s.8.33.8.74-.36.74-.8.74-.8-.33-.8-.74ZM538.47,186.83h1.12v7.1h-1.12v-7.1Z"/>
          <path class="cls-21" d="M541.66,186.83h1.09v1.07h.08c.27-.7,1.03-1.18,1.9-1.18.17,0,.46,0,.59.02v1.11c-.08-.02-.39-.07-.69-.07-1.07,0-1.85.7-1.85,1.66v4.49h-1.12v-7.1Z"/>
          <path class="cls-21" d="M546.08,190.44c0-2.18,1.31-3.7,3.29-3.7,1.52,0,3.14.91,3.14,3.55v.46h-5.31c.05,1.52.96,2.35,2.28,2.35.88,0,1.54-.37,1.83-1.11l1.09.3c-.34,1.07-1.43,1.79-2.91,1.79-2.11,0-3.41-1.46-3.41-3.64ZM551.37,189.81c0-1.2-.78-2.09-2-2.09-1.29,0-2.09.98-2.17,2.09h4.17Z"/>
          <path class="cls-21" d="M360.37,203.83h1.08v1.07h.08c.27-.7,1.03-1.18,1.9-1.18.17,0,.46,0,.59.02v1.11c-.08-.02-.39-.07-.69-.07-1.07,0-1.85.7-1.85,1.66v4.49h-1.12v-7.1Z"/>
          <path class="cls-21" d="M364.79,207.44c0-2.18,1.31-3.7,3.29-3.7,1.52,0,3.14.91,3.14,3.55v.46h-5.31c.05,1.52.96,2.35,2.28,2.35.88,0,1.54-.37,1.83-1.11l1.09.3c-.34,1.07-1.43,1.79-2.91,1.79-2.11,0-3.41-1.46-3.41-3.64ZM370.08,206.81c0-1.2-.78-2.09-2-2.09-1.29,0-2.09.98-2.17,2.09h4.17Z"/>
          <path class="cls-21" d="M377.93,213.6v-3.75h-.09c-.25.39-.72,1.24-2.13,1.24-1.83,0-3.1-1.42-3.1-3.68s1.28-3.66,3.12-3.66c1.43,0,1.87.85,2.11,1.22h.13v-1.13h1.09v9.76h-1.12ZM375.86,204.72c-1.43,0-2.13,1.17-2.13,2.66s.72,2.72,2.13,2.72,2.09-1.11,2.09-2.72-.72-2.66-2.09-2.66Z"/>
          <path class="cls-21" d="M385.73,203.83h1.12v7.1h-1.12v-1.2h-.08c-.34.72-1.07,1.29-2.17,1.29-1.37,0-2.36-.87-2.36-2.68v-4.51h1.12v4.44c0,1.04.67,1.7,1.6,1.7.84,0,1.88-.61,1.88-1.94v-4.2Z"/>
          <path class="cls-21" d="M388.57,207.44c0-2.18,1.31-3.7,3.29-3.7,1.52,0,3.14.91,3.14,3.55v.46h-5.31c.05,1.52.96,2.35,2.28,2.35.88,0,1.54-.37,1.83-1.11l1.09.3c-.34,1.07-1.43,1.79-2.91,1.79-2.11,0-3.41-1.46-3.41-3.64ZM393.86,206.81c0-1.2-.78-2.09-2-2.09-1.29,0-2.09.98-2.17,2.09h4.17Z"/>
          <path class="cls-21" d="M400.89,205.7c-.19-.49-.6-1.02-1.58-1.02-.89,0-1.56.44-1.56,1.05,0,.54.39.83,1.26,1.04l1.09.26c1.3.31,1.94.93,1.94,1.92,0,1.22-1.16,2.13-2.86,2.13-1.5,0-2.52-.64-2.78-1.85l1.07-.26c.2.76.78,1.15,1.7,1.15,1.05,0,1.71-.5,1.71-1.11,0-.49-.35-.83-1.08-1l-1.22-.28c-1.34-.31-1.94-.96-1.94-1.94,0-1.2,1.14-2.05,2.69-2.05,1.45,0,2.24.68,2.59,1.68l-1.01.28Z"/>
          <path class="cls-21" d="M406.91,204.76h-1.56v4.14c0,.92.48,1.07.97,1.07.25,0,.4-.04.5-.06l.23.98c-.15.06-.42.13-.84.13-.95,0-1.98-.59-1.98-1.83v-4.44h-1.1v-.92h1.1v-1.7h1.12v1.7h1.56v.92Z"/>
          <path class="cls-21" d="M412.69,212.36h-1.03l3.14-11.34h1.03l-3.14,11.34Z"/>
          <path class="cls-21" d="M420.94,203.83h1.08v1.07h.08c.27-.7,1.03-1.18,1.9-1.18.17,0,.46,0,.59.02v1.11c-.08-.02-.39-.07-.69-.07-1.07,0-1.85.7-1.85,1.66v4.49h-1.12v-7.1Z"/>
          <path class="cls-21" d="M425.36,207.44c0-2.18,1.31-3.7,3.29-3.7,1.52,0,3.14.91,3.14,3.55v.46h-5.31c.05,1.52.96,2.35,2.28,2.35.88,0,1.54-.37,1.83-1.11l1.09.3c-.34,1.07-1.43,1.79-2.91,1.79-2.11,0-3.41-1.46-3.41-3.64ZM430.65,206.81c0-1.2-.78-2.09-2-2.09-1.29,0-2.09.98-2.17,2.09h4.17Z"/>
          <path class="cls-21" d="M437.68,205.7c-.19-.49-.6-1.02-1.58-1.02-.89,0-1.56.44-1.56,1.05,0,.54.39.83,1.26,1.04l1.09.26c1.3.31,1.94.93,1.94,1.92,0,1.22-1.16,2.13-2.86,2.13-1.5,0-2.52-.64-2.78-1.85l1.07-.26c.2.76.78,1.15,1.7,1.15,1.05,0,1.71-.5,1.71-1.11,0-.49-.35-.83-1.08-1l-1.22-.28c-1.34-.31-1.94-.96-1.94-1.94,0-1.2,1.14-2.05,2.69-2.05,1.45,0,2.24.68,2.59,1.68l-1.01.28Z"/>
          <path class="cls-21" d="M440.52,203.83h1.08v1.13h.13c.25-.37.69-1.22,2.11-1.22,1.85,0,3.12,1.42,3.12,3.66s-1.28,3.68-3.1,3.68c-1.41,0-1.89-.85-2.13-1.24h-.09v3.75h-1.12v-9.76ZM443.72,210.1c1.41,0,2.13-1.2,2.13-2.72s-.7-2.66-2.13-2.66-2.09,1.07-2.09,2.66.74,2.72,2.09,2.72Z"/>
          <path class="cls-21" d="M448.35,207.42c0-2.22,1.33-3.68,3.31-3.68s3.31,1.46,3.31,3.68-1.33,3.66-3.31,3.66-3.31-1.46-3.31-3.66ZM453.86,207.42c0-1.42-.69-2.7-2.19-2.7s-2.19,1.28-2.19,2.7.69,2.68,2.19,2.68,2.19-1.26,2.19-2.68Z"/>
          <path class="cls-21" d="M457.82,210.93h-1.12v-7.1h1.08v1.11h.1c.34-.72,1.03-1.2,2.13-1.2,1.48,0,2.48.87,2.48,2.68v4.51h-1.12v-4.44c0-1.11-.63-1.78-1.68-1.78s-1.87.7-1.87,1.94v4.27Z"/>
          <path class="cls-21" d="M468.72,205.7c-.2-.49-.6-1.02-1.58-1.02-.9,0-1.56.44-1.56,1.05,0,.54.39.83,1.26,1.04l1.08.26c1.3.31,1.94.93,1.94,1.92,0,1.22-1.16,2.13-2.86,2.13-1.49,0-2.52-.64-2.78-1.85l1.07-.26c.2.76.78,1.15,1.69,1.15,1.05,0,1.71-.5,1.71-1.11,0-.49-.35-.83-1.09-1l-1.22-.28c-1.34-.31-1.94-.96-1.94-1.94,0-1.2,1.14-2.05,2.68-2.05,1.45,0,2.24.68,2.59,1.68l-1.01.28Z"/>
          <path class="cls-21" d="M471.22,207.44c0-2.18,1.31-3.7,3.29-3.7,1.52,0,3.14.91,3.14,3.55v.46h-5.31c.05,1.52.96,2.35,2.28,2.35.88,0,1.54-.37,1.83-1.11l1.09.3c-.34,1.07-1.43,1.79-2.91,1.79-2.11,0-3.41-1.46-3.41-3.64ZM476.51,206.81c0-1.2-.78-2.09-2-2.09-1.29,0-2.09.98-2.17,2.09h4.17Z"/>
        </g>
        <path class="cls-23" d="M287.03,349.04c-.3-.3-.71-.48-1.17-.48s-.87.18-1.16.48h0c-.3.3-.48.71-.48,1.17s.18.87.48,1.17h0c.29.3.7.49,1.16.49s.87-.18,1.17-.48h0c.3-.3.48-.71.48-1.17s-.18-.87-.48-1.17h0ZM285.86,371.66c.46,0,.87-.19,1.17-.48h0c.3-.3.48-.72.48-1.17s-.18-.87-.48-1.17h0c-.3-.3-.71-.48-1.17-.48s-.87.18-1.16.48h0c-.3.3-.48.71-.48,1.17s.18.87.48,1.16h0c.29.3.7.49,1.16.49ZM294.86,366.65c.41-.11.78-.37,1.01-.77l.03-.06c.2-.38.24-.81.13-1.2-.11-.41-.37-.78-.77-1.01l-.02-.02c-.39-.21-.83-.26-1.23-.15-.41.1-.78.38-1.01.77-.23.39-.28.84-.17,1.26.11.41.38.78.77,1.01h0c.4.23.84.27,1.26.16ZM287.55,358.41c-.43-.43-1.03-.7-1.7-.7s-1.26.27-1.69.7c-.43.43-.7,1.03-.7,1.69s.27,1.26.7,1.7c.43.43,1.03.7,1.69.7s1.26-.27,1.7-.7c.43-.44.7-1.04.7-1.7s-.27-1.26-.7-1.69ZM286.6,355.6c.96.16,1.83.62,2.49,1.28h0c.1.1.21.22.3.34l1.65-.95c-.22-.67-.23-1.37-.05-2.03.24-.88.81-1.67,1.66-2.16l.03-.02c.85-.48,1.81-.58,2.68-.34.88.24,1.67.81,2.17,1.66h0c.49.85.59,1.83.36,2.7-.23.88-.81,1.67-1.66,2.16l-.23.13h-.02c-.79.38-1.66.44-2.46.23-.66-.17-1.26-.54-1.73-1.06l-1.65.95c.19.5.29,1.04.29,1.61s-.1,1.12-.29,1.62l1.65.95c.47-.53,1.07-.88,1.73-1.06.88-.24,1.85-.14,2.71.36l.05.03h0c.82.5,1.38,1.27,1.61,2.14.23.87.13,1.85-.36,2.7l-.03.06h0c-.49.82-1.27,1.37-2.13,1.61-.88.23-1.86.13-2.71-.36h0c-.86-.5-1.43-1.29-1.66-2.17-.18-.65-.17-1.36.05-2.03l-1.65-.95c-.1.12-.2.23-.3.33h0c-.66.67-1.52,1.13-2.49,1.28v1.91c.69.14,1.3.49,1.78.97h0c.64.65,1.04,1.54,1.04,2.52s-.4,1.87-1.04,2.51h0c-.65.65-1.54,1.05-2.52,1.05s-1.87-.4-2.52-1.04h0c-.64-.65-1.04-1.54-1.04-2.52s.4-1.88,1.04-2.52h0s0,0,0,0c.48-.48,1.1-.82,1.78-.97v-1.91c-.96-.15-1.82-.61-2.48-1.28h0c-.82-.83-1.34-1.97-1.34-3.23s.52-2.4,1.34-3.22h0c.66-.66,1.52-1.13,2.48-1.28v-1.9c-.68-.15-1.3-.49-1.78-.97h0c-.64-.65-1.04-1.54-1.04-2.52s.4-1.87,1.04-2.52h0c.65-.65,1.54-1.05,2.52-1.05s1.87.4,2.52,1.05h0s0,0,0,0c.64.64,1.04,1.54,1.04,2.52s-.4,1.87-1.04,2.52h0c-.48.48-1.09.83-1.78.97v1.9ZM295.87,354.33v-.02c-.24-.38-.6-.64-1.01-.75-.41-.11-.86-.06-1.26.16h0c-.4.23-.66.59-.77,1.01-.11.41-.06.86.17,1.26h0c.23.4.59.66,1,.76.41.12.86.07,1.25-.16h.02c.39-.24.64-.6.75-1,.11-.41.07-.86-.16-1.26Z"/>
        <path class="cls-19" d="M316.2,350.79c0,.36-.08.69-.23.99-.15.3-.36.56-.63.77-.27.21-.59.38-.97.49-.37.12-.78.18-1.22.18-.53,0-1.01-.07-1.42-.22-.42-.14-.84-.38-1.26-.72l.7-1.13c.33.28.63.49.91.62.27.13.54.19.83.19.35,0,.62-.09.84-.27.21-.18.31-.42.31-.72,0-.13-.02-.25-.06-.36-.04-.11-.11-.23-.21-.35-.1-.12-.24-.25-.42-.39-.18-.14-.41-.31-.69-.52-.21-.15-.43-.31-.63-.47-.2-.16-.39-.33-.56-.52-.17-.18-.3-.39-.41-.62-.1-.23-.15-.49-.15-.78,0-.33.07-.64.21-.92s.33-.51.57-.71c.24-.2.53-.35.87-.46.34-.11.71-.16,1.11-.16.42,0,.83.05,1.22.17.39.11.76.28,1.09.49l-.63,1.02c-.43-.3-.89-.46-1.36-.46-.29,0-.53.08-.72.23s-.28.34-.28.57c0,.22.08.41.25.59.17.18.46.41.87.73.41.3.76.57,1.02.79.27.23.48.44.64.64.16.2.26.4.33.61.06.21.09.44.09.69h0ZM323.37,348.87c0,.31-.03.65-.1,1.02-.06.36-.18.7-.33,1.01-.16.31-.36.56-.62.76-.25.2-.58.3-.97.3-.65,0-1.17-.26-1.54-.78-.38-.52-.56-1.23-.56-2.14s.19-1.67.57-2.22c.38-.55.9-.82,1.55-.82s1.11.26,1.47.77c.36.51.54,1.22.54,2.1h0ZM325.63,348.79c0-.61-.09-1.16-.26-1.65-.18-.5-.42-.92-.74-1.28-.32-.36-.7-.64-1.14-.84s-.92-.3-1.45-.3c-.58,0-1.1.11-1.54.33-.44.22-.86.57-1.23,1.05v-1.18h-2.1v12.17h2.08v-5.14c.2.24.4.44.59.6.19.16.38.3.58.4.2.1.4.18.62.22.22.04.45.06.7.06.55,0,1.07-.11,1.55-.33.48-.22.89-.53,1.24-.93.35-.4.62-.87.82-1.4.2-.54.3-1.13.3-1.76h0ZM326.56,353.02h2.14v-11.91h-2.14v11.91ZM337.82,353.03v-8.12h-2.14v4.37c0,.39-.02.69-.05.9-.03.21-.09.4-.16.58-.3.67-.86,1.01-1.66,1.01-.63,0-1.07-.23-1.32-.68-.1-.17-.17-.37-.2-.59-.04-.22-.06-.53-.06-.95v-4.65h-2.14v4.62c0,.31,0,.58,0,.79,0,.21.02.41.04.58.02.17.05.32.08.45.03.13.07.26.12.37.2.5.51.87.95,1.13.44.26.98.38,1.61.38.57,0,1.08-.1,1.51-.3s.86-.53,1.27-.98v1.09s2.15,0,2.15,0h0ZM347.04,353.02v-4.61c0-.31,0-.58,0-.8,0-.22-.02-.41-.04-.58-.02-.16-.05-.31-.08-.43-.03-.13-.07-.25-.11-.36-.2-.49-.51-.86-.95-1.13s-.98-.4-1.62-.4c-.57,0-1.08.1-1.51.3s-.86.53-1.27.98v-1.09h-2.16v8.11h2.16v-4.38c0-.38.01-.67.04-.88.03-.21.08-.41.15-.59.14-.33.36-.57.64-.74s.63-.25,1.03-.25c.63,0,1.07.23,1.32.68.1.17.16.37.2.58.04.21.06.53.06.94v4.63h2.14s0,0,0,0ZM355.89,352.49l-3.26-4.05,2.75-2.95-1.62-.7-2.87,3.33h-.23v-6.99h-2.16v11.91h2.16v-4.31l3.23,4.47,1.99-.7h0ZM364.23,349.58v-1.33l-6.48-3.25v1.46l5.02,2.45-5.02,2.48v1.43l6.48-3.23h0Z"/>
        <path class="cls-19" d="M320.14,373.02c0,.2.02.41.07.6.06.17.14.33.22.49.03.05.05.1.05.16,0,.08-.05.16-.13.2l-.43.29c-.05.03-.12.06-.18.06-.07,0-.15-.04-.2-.1-.09-.1-.18-.2-.24-.32s-.14-.24-.21-.4c-.53.62-1.19.94-2,.94-.57,0-1.03-.16-1.36-.49s-.5-.76-.5-1.3c0-.58.2-1.05.62-1.4s.96-.53,1.66-.53c.24,0,.48.02.72.05.25.03.51.09.78.15v-.5c0-.52-.11-.88-.32-1.09s-.58-.31-1.11-.31c-.24,0-.5.03-.73.09-.25.06-.5.14-.73.23-.07.03-.16.06-.24.09-.03.01-.07.02-.11.02-.1,0-.14-.07-.14-.21v-.33c0-.08.01-.16.05-.24.05-.06.12-.11.19-.14.27-.14.56-.24.86-.31.35-.09.71-.13,1.06-.13.81,0,1.4.18,1.78.55.38.37.56.92.56,1.67v2.2h.01ZM317.38,374.05c.24,0,.48-.04.7-.12.25-.09.47-.24.64-.43.11-.12.19-.27.23-.43.05-.19.07-.39.07-.59v-.29c-.2-.05-.41-.09-.62-.12-.21-.03-.43-.04-.64-.04-.45,0-.79.09-1.01.27s-.33.44-.33.78c0,.32.08.56.25.72.17.16.4.25.71.25h0ZM322.83,374.78c-.09,0-.18-.01-.26-.07-.07-.07-.12-.16-.14-.26l-1.6-5.25c-.03-.09-.05-.18-.06-.27,0-.08.05-.16.13-.17h.71c.13,0,.22.02.26.07.05.05.1.14.14.26l1.13,4.49,1.06-4.49c.03-.14.07-.22.13-.26.08-.05.18-.07.27-.07h.54c.13,0,.22.02.27.07.07.07.12.16.13.26l1.07,4.55,1.17-4.55c.02-.1.07-.19.14-.26.08-.05.17-.07.26-.07h.63c.08-.01.16.05.17.13v.04s0,.07-.01.11c-.01.06-.03.12-.05.17l-1.64,5.25c-.04.14-.09.22-.14.26-.07.05-.17.07-.26.07h-.58c-.13,0-.22-.02-.27-.07-.07-.07-.12-.17-.13-.27l-1.05-4.38-1.05,4.37c-.01.1-.06.2-.13.27-.08.05-.18.07-.27.07h-.58ZM331.56,374.97c-.35,0-.71-.04-1.05-.12-.34-.08-.6-.17-.78-.27-.09-.04-.16-.11-.21-.19-.03-.06-.04-.12-.04-.19v-.35c0-.14.05-.21.16-.21.04,0,.08,0,.12.02.04.01.1.04.17.07.24.11.49.18.75.24.26.05.54.08.81.08.43,0,.76-.07.99-.22.22-.14.36-.38.35-.64,0-.18-.06-.35-.18-.48-.12-.13-.35-.24-.69-.35l-.98-.31c-.5-.16-.86-.39-1.09-.69-.22-.29-.34-.62-.34-.98,0-.26.05-.52.18-.75.12-.22.29-.41.49-.56.21-.16.45-.28.71-.35.28-.08.56-.12.86-.12.15,0,.31,0,.45.03.16.02.3.05.44.07s.26.07.39.11c.1.03.2.07.29.12.08.04.15.1.2.17.05.07.07.14.06.22v.32c0,.14-.05.22-.16.22-.09-.01-.18-.04-.26-.08-.41-.18-.86-.27-1.3-.26-.39,0-.69.06-.9.19s-.32.33-.32.6c0,.18.07.36.2.48.14.13.39.26.75.37l.96.31c.49.16.84.37,1.05.65.21.27.32.61.31.95,0,.27-.05.54-.18.79-.12.23-.29.43-.5.6-.22.18-.48.31-.75.38-.31.1-.64.14-.97.14h0Z"/>
        <path class="cls-19" d="M332.84,378.27c-2.23,1.65-5.48,2.53-8.27,2.53-3.91,0-7.43-1.45-10.09-3.85-.21-.19-.02-.45.23-.3,2.88,1.67,6.43,2.68,10.1,2.68,2.65-.01,5.27-.55,7.7-1.57.37-.17.69.24.33.52h0Z"/>
        <path class="cls-19" d="M333.77,377.21c-.29-.37-1.89-.18-2.61-.09-.22.03-.25-.16-.05-.31,1.28-.9,3.37-.64,3.62-.34s-.07,2.4-1.26,3.41c-.18.16-.36.07-.28-.13.27-.67.88-2.19.59-2.55Z"/>
        <path class="cls-19" d="M342.91,376.36c.12.24.3.45.52.61.23.16.48.28.76.34.29.07.59.11.9.11.23,0,.45-.02.68-.05.23-.04.46-.1.68-.21.21-.1.39-.24.52-.41.15-.19.22-.42.21-.67.01-.27-.1-.52-.28-.7-.21-.19-.46-.34-.73-.45-.33-.13-.67-.23-1.02-.32-.38-.08-.76-.19-1.15-.3-.4-.1-.79-.22-1.18-.36-.36-.13-.71-.33-1.02-.57-.3-.23-.55-.52-.73-.86-.19-.39-.29-.81-.28-1.25-.01-.5.11-.99.36-1.43.23-.4.55-.75.92-1.02.39-.28.82-.47,1.28-.61.47-.13.96-.19,1.44-.19.55,0,1.08.06,1.61.18.5.11.96.32,1.37.61.4.28.73.64.96,1.07.24.48.36,1.03.35,1.58h-2.28c-.01-.28-.08-.55-.21-.79-.11-.21-.27-.38-.46-.5-.21-.12-.42-.21-.65-.25-.27-.05-.53-.07-.8-.07-.19,0-.39.02-.57.06s-.36.11-.52.21-.28.23-.38.38c-.11.17-.16.36-.15.57-.01.18.04.35.12.51.12.17.28.29.47.36.32.13.64.24.97.33.41.11.96.25,1.62.42.19.04.47.11.84.22.38.11.73.28,1.05.5.36.24.68.55.91.91.25.39.39.87.39,1.48,0,.47-.1.93-.29,1.37-.19.42-.48.8-.85,1.09-.41.33-.88.57-1.39.71-.63.18-1.27.27-1.93.25-.58,0-1.15-.07-1.72-.22-.53-.13-1.03-.36-1.47-.69-.42-.32-.78-.71-1.02-1.19-.27-.53-.39-1.11-.36-1.71h2.28c-.01.35.06.67.19.96h0ZM353.96,372.73c.25-.01.5-.07.73-.17.22-.08.41-.23.56-.41.16-.21.23-.46.22-.71,0-.45-.15-.8-.45-1.03-.29-.24-.65-.36-1.03-.36-.55,0-.95.18-1.22.53-.29.39-.42.86-.4,1.35h-2.02c.01-.51.11-1.01.29-1.48.17-.42.41-.82.74-1.15.33-.33.7-.58,1.13-.74.47-.18.97-.27,1.47-.27.42,0,.85.06,1.26.18s.79.32,1.13.56c.33.24.61.56.81.91.22.38.33.81.32,1.25.01.47-.12.95-.36,1.35-.25.4-.64.68-1.1.8v.04c.53.11,1.02.4,1.36.84.34.45.51.99.5,1.54.01.51-.1,1.02-.32,1.47-.21.42-.5.79-.86,1.08-.38.29-.79.52-1.25.65-.47.15-.97.23-1.47.23-.55.01-1.09-.08-1.61-.25-.46-.16-.88-.41-1.24-.74-.35-.34-.62-.74-.79-1.2-.19-.52-.28-1.07-.27-1.62h2.02c.01.27.05.55.13.8.07.24.19.46.35.67.16.18.34.34.56.44.25.12.52.17.8.17.45.01.88-.15,1.21-.44s.5-.7.5-1.21c0-.4-.07-.7-.23-.91-.15-.21-.35-.36-.59-.46-.25-.1-.52-.15-.79-.16-.29-.01-.56-.02-.81-.02v-1.49c.24.02.5.02.74,0h0ZM337.63,367.57h.48v11.95h-.48v-11.95Z"/>
        <g>
          <g>
            <path class="cls-17" d="M293.37,155.32c4.56,0,7.52,2.57,10.85,2.57"/>
            <path class="cls-3" d="M315.07,155.32c-4.56,0-7.52,2.57-10.85,2.57s-6.29-2.57-10.85-2.57-7.52,2.57-10.85,2.57-6.29-2.57-10.85-2.57c-5.3,0-9.61,4.3-9.61,9.61s4.3,9.61,9.61,9.61c4.56,0,7.52-2.57,10.85-2.57s6.29,2.57,10.85,2.57c2.64,0,4.74-.86,6.69-1.59l4.16-.99c3.33,0,6.29,2.57,10.85,2.57,5.3,0,9.61-4.3,9.61-9.61s-4.3-9.61-9.61-9.61Z"/>
            <circle class="cls-22" cx="271.63" cy="164.93" r="4.93"/>
            <line class="cls-9" x1="289.88" y1="162.67" x2="289.88" y2="165.77"/>
            <line class="cls-9" x1="289.88" y1="167.81" x2="289.88" y2="167.81"/>
            <line class="cls-9" x1="293.37" y1="166.61" x2="296.47" y2="166.61"/>
            <line class="cls-9" x1="293.37" y1="164.11" x2="296.47" y2="164.11"/>
          </g>
          <polygon class="cls-21" points="315.11 159.85 310.2 168.36 320.02 168.36 315.11 159.85"/>
        </g>
        <line class="cls-12" x1="203.56" y1="139.77" x2="207.84" y2="139.77"/>
        <line class="cls-12" x1="215.05" y1="139.77" x2="219.33" y2="139.77"/>
        <line class="cls-12" x1="207.84" y1="134.5" x2="215.05" y2="134.5"/>
        <polyline class="cls-10" points="223.75 135.95 242.28 135.95 264.68 158.35"/>
        <rect class="cls-21" x="39.65" y="324.22" width="137.12" height="70.62" rx="4.25" ry="4.25"/>
        <g>
          <path class="cls-21" d="M33.41,404.64l2.81,6.67h.1l2.81-6.67h1.2v8.03h-.94v-6.1h-.08l-2.59,6.1h-.91l-2.59-6.1h-.08v6.1h-.94v-8.03h1.2Z"/>
          <path class="cls-21" d="M41.93,410.96c0-1.38,1.26-1.63,2.41-1.77,1.13-.14,1.6-.1,1.6-.55v-.03c0-.77-.43-1.22-1.31-1.22s-1.41.47-1.62.91l-.91-.31c.49-1.1,1.55-1.41,2.49-1.41.79,0,2.3.22,2.3,2.13v3.97h-.95v-.82h-.05c-.19.39-.76.96-1.84.96-1.18,0-2.12-.67-2.12-1.85ZM45.95,410.49v-.85c-.16.19-1.25.3-1.65.35-.74.09-1.41.31-1.41,1.02,0,.64.55.97,1.31.97,1.13,0,1.75-.74,1.75-1.49Z"/>
          <path class="cls-21" d="M48.65,406.65h.92v.96h.11c.21-.31.58-1.04,1.8-1.04,1.57,0,2.65,1.21,2.65,3.11s-1.08,3.12-2.64,3.12c-1.2,0-1.6-.72-1.81-1.05h-.08v3.18h-.95v-8.28ZM51.37,411.97c1.2,0,1.81-1.02,1.81-2.31s-.6-2.26-1.81-2.26-1.78.91-1.78,2.26.63,2.31,1.78,2.31Z"/>
          <path class="cls-21" d="M55.6,406.65h.92v.96h.11c.21-.31.58-1.04,1.8-1.04,1.57,0,2.65,1.21,2.65,3.11s-1.08,3.12-2.64,3.12c-1.2,0-1.6-.72-1.81-1.05h-.08v3.18h-.95v-8.28ZM58.32,411.97c1.2,0,1.81-1.02,1.81-2.31s-.6-2.26-1.81-2.26-1.78.91-1.78,2.26.63,2.31,1.78,2.31Z"/>
          <path class="cls-21" d="M62.35,405.02c0-.35.31-.63.68-.63s.68.28.68.63-.31.63-.68.63-.68-.28-.68-.63ZM62.55,406.65h.95v6.02h-.95v-6.02Z"/>
          <path class="cls-21" d="M66.21,412.67h-.95v-6.02h.92v.94h.08c.29-.61.87-1.02,1.81-1.02,1.26,0,2.1.74,2.1,2.27v3.83h-.95v-3.76c0-.95-.54-1.51-1.42-1.51s-1.59.6-1.59,1.65v3.62Z"/>
          <path class="cls-21" d="M71.89,413.85l.76-.52c.25.33.65.91,1.78.91,1,0,1.73-.46,1.73-1.46v-1.22h-.08c-.21.33-.6,1.02-1.81,1.02-1.5,0-2.64-1.07-2.64-2.95s1.08-3.06,2.65-3.06c1.21,0,1.6.72,1.81,1.04h.1v-.96h.92v6.2c0,1.55-1.2,2.21-2.69,2.21-1.39,0-2.15-.58-2.54-1.21ZM76.18,409.61c0-1.3-.61-2.21-1.78-2.21s-1.81.99-1.81,2.21.61,2.13,1.81,2.13,1.78-.8,1.78-2.13Z"/>
          <path class="cls-21" d="M82.34,413.88h-.87l2.67-9.62h.87l-2.67,9.62Z"/>
          <path class="cls-21" d="M92.28,411.4h.1l2.46-6.76h1.05l-3.04,8.03h-1.04l-3.04-8.03h1.05l2.46,6.76Z"/>
          <path class="cls-21" d="M96.86,405.02c0-.35.31-.63.68-.63s.68.28.68.63-.31.63-.68.63-.68-.28-.68-.63ZM97.06,406.65h.95v6.02h-.95v-6.02Z"/>
          <path class="cls-21" d="M103.3,408.23c-.17-.42-.51-.86-1.34-.86-.76,0-1.33.38-1.33.89,0,.46.33.7,1.07.88l.92.22c1.11.26,1.65.79,1.65,1.63,0,1.04-.98,1.8-2.43,1.8-1.27,0-2.14-.54-2.36-1.57l.91-.22c.17.65.66.97,1.44.97.89,0,1.46-.42,1.46-.94,0-.42-.3-.71-.92-.85l-1.04-.24c-1.14-.26-1.65-.82-1.65-1.65,0-1.02.97-1.74,2.28-1.74,1.23,0,1.9.57,2.2,1.43l-.86.24Z"/>
          <path class="cls-21" d="M105.53,405.02c0-.35.31-.63.68-.63s.68.28.68.63-.31.63-.68.63-.68-.28-.68-.63ZM105.72,406.65h.95v6.02h-.95v-6.02Z"/>
          <path class="cls-21" d="M108.56,404.64h.95v2.96h.08c.21-.31.58-1.04,1.8-1.04,1.57,0,2.65,1.21,2.65,3.11s-1.08,3.12-2.64,3.12c-1.2,0-1.6-.72-1.81-1.05h-.11v.93h-.92v-8.03ZM111.27,411.97c1.2,0,1.81-1.02,1.81-2.31s-.6-2.26-1.81-2.26-1.78.91-1.78,2.26.63,2.31,1.78,2.31Z"/>
          <path class="cls-21" d="M115.31,405.02c0-.35.31-.63.68-.63s.68.28.68.63-.31.63-.68.63-.68-.28-.68-.63ZM115.5,406.65h.95v6.02h-.95v-6.02Z"/>
          <path class="cls-21" d="M119.16,412.67h-.95v-8.03h.95v8.03Z"/>
          <path class="cls-21" d="M120.72,405.02c0-.35.31-.63.68-.63s.68.28.68.63-.31.63-.68.63-.68-.28-.68-.63ZM120.91,406.65h.95v6.02h-.95v-6.02Z"/>
          <path class="cls-21" d="M126.32,407.43h-1.33v3.51c0,.78.4.91.82.91.21,0,.34-.03.42-.05l.19.83c-.13.05-.36.11-.71.11-.81,0-1.68-.5-1.68-1.55v-3.76h-.94v-.78h.94v-1.44h.95v1.44h1.33v.78Z"/>
          <path class="cls-21" d="M127.68,414.82l.24-.82c.7.17,1.12.09,1.47-.83l.18-.47-2.3-6.05h1.04l1.71,4.8h.06l1.71-4.8h1.04l-2.64,6.9c-.36.94-.97,1.38-1.83,1.38-.32,0-.6-.06-.7-.11Z"/>
          <path class="cls-21" d="M137.57,413.88h-.87l2.67-9.62h.87l-2.67,9.62Z"/>
          <path class="cls-21" d="M145.72,412.67h-1v-8.03h1v8.03Z"/>
          <path class="cls-21" d="M148.55,412.67h-.95v-6.02h.92v.94h.08c.29-.61.87-1.02,1.81-1.02,1.26,0,2.1.74,2.1,2.27v3.83h-.95v-3.76c0-.95-.54-1.51-1.42-1.51s-1.58.6-1.58,1.65v3.62Z"/>
          <path class="cls-21" d="M157.81,408.23c-.17-.42-.51-.86-1.34-.86-.76,0-1.33.38-1.33.89,0,.46.33.7,1.07.88l.92.22c1.11.26,1.65.79,1.65,1.63,0,1.04-.98,1.8-2.43,1.8-1.27,0-2.14-.54-2.36-1.57l.91-.22c.17.65.66.97,1.44.97.89,0,1.46-.42,1.46-.94,0-.42-.3-.71-.92-.85l-1.04-.24c-1.14-.26-1.65-.82-1.65-1.65,0-1.02.97-1.74,2.28-1.74,1.23,0,1.9.57,2.2,1.43l-.86.24Z"/>
          <path class="cls-21" d="M160.04,405.02c0-.35.31-.63.68-.63s.68.28.68.63-.31.63-.68.63-.68-.28-.68-.63ZM160.23,406.65h.95v6.02h-.95v-6.02Z"/>
          <path class="cls-21" d="M162.9,413.85l.76-.52c.25.33.65.91,1.78.91,1,0,1.73-.46,1.73-1.46v-1.22h-.08c-.21.33-.6,1.02-1.81,1.02-1.5,0-2.64-1.07-2.64-2.95s1.08-3.06,2.65-3.06c1.21,0,1.6.72,1.81,1.04h.1v-.96h.92v6.2c0,1.55-1.2,2.21-2.69,2.21-1.39,0-2.15-.58-2.54-1.21ZM167.19,409.61c0-1.3-.61-2.21-1.78-2.21s-1.81.99-1.81,2.21.61,2.13,1.81,2.13,1.78-.8,1.78-2.13Z"/>
          <path class="cls-21" d="M170.84,412.67h-.95v-8.03h.95v2.95h.08c.29-.62.85-1.02,1.83-1.02,1.27,0,2.12.73,2.12,2.27v3.83h-.95v-3.76c0-.96-.54-1.51-1.44-1.51-.94,0-1.63.6-1.63,1.65v3.62Z"/>
          <path class="cls-21" d="M179.32,407.43h-1.33v3.51c0,.78.4.91.82.91.21,0,.34-.03.42-.05l.19.83c-.13.05-.36.11-.71.11-.81,0-1.68-.5-1.68-1.55v-3.76h-.94v-.78h.94v-1.44h.95v1.44h1.33v.78Z"/>
          <path class="cls-21" d="M184.19,408.23c-.17-.42-.51-.86-1.34-.86-.76,0-1.33.38-1.33.89,0,.46.33.7,1.07.88l.92.22c1.11.26,1.65.79,1.65,1.63,0,1.04-.98,1.8-2.43,1.8-1.27,0-2.14-.54-2.36-1.57l.91-.22c.17.65.66.97,1.44.97.89,0,1.46-.42,1.46-.94,0-.42-.3-.71-.92-.85l-1.04-.24c-1.14-.26-1.65-.82-1.65-1.65,0-1.02.97-1.74,2.28-1.74,1.23,0,1.9.57,2.2,1.43l-.86.24Z"/>
        </g>
        <g>
          <path class="cls-24" d="M100.58,365.33l1.82,2.29h-2.51l-1.02-1.26c-.68.26-1.43.39-2.23.39-3.39,0-5.96-2.39-5.96-6.53s2.56-6.53,5.96-6.53,5.96,2.37,5.96,6.53c0,2.27-.77,4.01-2.01,5.12ZM97.99,362.15l.94,1.21c.59-.7.93-1.76.93-3.15,0-2.7-1.28-4.15-3.23-4.15s-3.23,1.46-3.23,4.15,1.27,4.15,3.23,4.15c.24,0,.48-.02.7-.07l-1.63-2.15h2.29Z"/>
          <path class="cls-24" d="M104.54,357.03h2.61v1.6h.12c.35-.78,1.12-1.73,2.71-1.73,2.09,0,3.86,1.63,3.86,4.91s-1.7,4.91-3.87,4.91c-1.54,0-2.34-.89-2.71-1.68h-.08v5.1h-2.65v-13.12ZM109.13,364.62c1.3,0,2.01-1.15,2.01-2.82s-.7-2.79-2.01-2.79-2.01,1.09-2.01,2.79.73,2.82,2.01,2.82Z"/>
          <path class="cls-24" d="M115.21,361.84c0-2.96,1.8-4.93,4.7-4.93s4.7,1.97,4.7,4.93-1.8,4.92-4.7,4.92-4.7-1.98-4.7-4.92ZM121.91,361.82c0-1.66-.68-2.89-1.99-2.89s-2.02,1.23-2.02,2.89.68,2.89,2.02,2.89,1.99-1.22,1.99-2.89Z"/>
          <path class="cls-24" d="M126.22,354.46c0-.73.65-1.33,1.43-1.33s1.43.6,1.43,1.33-.65,1.34-1.43,1.34-1.43-.6-1.43-1.34ZM126.32,357.03h2.65v9.54h-2.65v-9.54Z"/>
          <path class="cls-24" d="M133.72,366.57h-2.65v-9.54h2.52v1.68h.11c.43-1.11,1.45-1.81,2.87-1.81,1.99,0,3.29,1.37,3.29,3.59v6.07h-2.65v-5.6c0-1.17-.63-1.86-1.7-1.86s-1.8.72-1.81,1.95v5.51Z"/>
          <path class="cls-24" d="M147.01,359.02h-1.79v4.62c0,.73.37.93.89.93.25,0,.53-.06.66-.09l.42,1.97c-.27.09-.75.22-1.43.25-1.92.08-3.19-.84-3.18-2.71v-4.97h-1.3v-1.99h1.3v-2.29h2.65v2.29h1.79v1.99Z"/>
        </g>
        <g>
          <path class="cls-24" d="M83.16,372.98c-.26,0-.52-.1-.71-.3l-.66-.66c-.39-.39-.39-1.03,0-1.43.39-.39,1.03-.39,1.43,0l.66.66c.39.39.39,1.03,0,1.43-.2.2-.46.3-.71.3Z"/>
          <path class="cls-24" d="M70.03,344.7c-7.81,0-14.14,6.33-14.14,14.14s6.33,14.14,14.14,14.14,14.14-6.33,14.14-14.14-6.33-14.14-14.14-14.14ZM77.87,366.84c-.23.24-.54.35-.85.35s-.62-.12-.85-.35l-3.5-3.5c-.47-.47-.47-1.23,0-1.7.47-.47,1.23-.47,1.7,0l3.5,3.5c.47.47.47,1.23,0,1.7Z"/>
        </g>
      </g>
    </g>
  </g>
</svg>